GeoramaCondensed-SemiBoldItalic.ufo
<glyph name="exclam" format="2">
  <advance width="175.89000000000001"/>
  <unicode hex="0021"/>
  <outline>
    <contour>
      <point x="38.56999999999999" y="261.25" type="line"/>
      <point x="129.61" y="261.25" type="line"/>
      <point x="215.66500000000002" y="740.0" type="line"/>
      <point x="109.225" y="740.0" type="line"/>
    </contour>
    <contour>
      <point x="-5.860000000000001" y="42.010000000000005" type="curve" smooth="yes"/>
      <point x="-6.3100000000000005" y="9.875000000000002"/>
      <point x="7.750000000000002" y="-5.5"/>
      <point x="42.685" y="-5.5" type="curve" smooth="yes"/>
      <point x="97.60500000000002" y="-5.5"/>
      <point x="113.82000000000001" y="43.955000000000005"/>
      <point x="115.17" y="91.21000000000001" type="curve" smooth="yes"/>
      <point x="115.62" y="123.75000000000001"/>
      <point x="100.75" y="138.72"/>
      <point x="66.27499999999999" y="138.72" type="curve" smooth="yes"/>
      <point x="12.88" y="138.72"/>
      <point x="-4.510000000000002" y="89.98"/>
    </contour>
  </outline>
</glyph>
<glyph name="numbersign" format="2">
  <advance width="413.42999999999995"/>
  <unicode hex="0023"/>
  <outline>
    <contour>
      <point x="82.44" y="433.39" type="line"/>
      <point x="133.16" y="433.39" type="line"/>
      <point x="87.51" y="261.25500000000005" type="line"/>
      <point x="37.855000000000004" y="261.25500000000005" type="line"/>
      <point x="22.285" y="165.585" type="line"/>
      <point x="66.14" y="165.585" type="line"/>
      <point x="24.360000000000007" y="0.0" type="line"/>
      <point x="105.155" y="0.0" type="line"/>
      <point x="146.48499999999999" y="165.585" type="line"/>
      <point x="203.54000000000002" y="165.585" type="line"/>
      <point x="162.21" y="0.0" type="line"/>
      <point x="242.105" y="0.0" type="line"/>
      <point x="283.435" y="165.585" type="line"/>
      <point x="339.71" y="165.585" type="line"/>
      <point x="354.82000000000005" y="261.25500000000005" type="line"/>
      <point x="304.96000000000004" y="261.25500000000005" type="line"/>
      <point x="350.455" y="433.39" type="line"/>
      <point x="399.405" y="433.39" type="line"/>
      <point x="415.10999999999996" y="529.94" type="line"/>
      <point x="371.87" y="529.94" type="line"/>
      <point x="414.935" y="700.0" type="line"/>
      <point x="334.545" y="700.0" type="line"/>
      <point x="291.47999999999996" y="529.94" type="line"/>
      <point x="234.425" y="529.94" type="line"/>
      <point x="277.49" y="700.0" type="line"/>
      <point x="197.59500000000003" y="700.0" type="line"/>
      <point x="154.53000000000003" y="529.94" type="line"/>
      <point x="98.09" y="529.94" type="line"/>
    </contour>
    <contour>
      <point x="213.055" y="433.39" type="line"/>
      <point x="270.11" y="433.39" type="line"/>
      <point x="224.95499999999998" y="261.25500000000005" type="line"/>
      <point x="167.90000000000003" y="261.25500000000005" type="line"/>
    </contour>
  </outline>
</glyph>
<glyph name="dollar" format="2">
  <advance width="413.42999999999995"/>
  <unicode hex="0024"/>
  <outline>
    <contour>
      <point x="409.84000000000003" y="681.9399999999999" type="line"/>
      <point x="390.47499999999997" y="692.6299999999999"/>
      <point x="358.14" y="703.62"/>
      <point x="319.1" y="707.865" type="curve"/>
      <point x="334.2" y="804.01" type="line"/>
      <point x="243.70000000000002" y="804.01" type="line"/>
      <point x="226.755" y="701.015" type="line"/>
      <point x="129.855" y="681.3050000000001"/>
      <point x="77.71" y="595.1300000000001"/>
      <point x="77.71" y="505.97999999999996" type="curve" smooth="yes"/>
      <point x="77.71" y="335.64"/>
      <point x="250.25000000000003" y="286.71000000000004"/>
      <point x="250.25000000000003" y="189.115" type="curve" smooth="yes"/>
      <point x="250.25000000000003" y="133.92"/>
      <point x="212.98000000000002" y="91.58500000000001"/>
      <point x="153.70500000000004" y="91.58500000000001" type="curve" smooth="yes"/>
      <point x="111.94500000000002" y="91.58500000000001"/>
      <point x="69.795" y="101.215"/>
      <point x="31.62" y="118.95" type="curve"/>
      <point x="-4.619999999999999" y="23.575" type="line"/>
      <point x="23.194999999999997" y="8.83"/>
      <point x="63.34000000000001" y="-3.684999999999999"/>
      <point x="103.205" y="-6.9750000000000005" type="curve"/>
      <point x="88.205" y="-105.0" type="line"/>
      <point x="178.65" y="-105.0" type="line"/>
      <point x="193.65" y="-4.81" type="line"/>
      <point x="299.85" y="13.635000000000002"/>
      <point x="356.39000000000004" y="103.09"/>
      <point x="356.39000000000004" y="194.84" type="curve" smooth="yes"/>
      <point x="356.39000000000004" y="364.71500000000003"/>
      <point x="187.59000000000003" y="407.85499999999996"/>
      <point x="187.59000000000003" y="507.74000000000007" type="curve" smooth="yes"/>
      <point x="187.59000000000003" y="557.9599999999999"/>
      <point x="222.63" y="604.9449999999999"/>
      <point x="281.025" y="604.9449999999999" type="curve" smooth="yes"/>
      <point x="311.4" y="604.9449999999999"/>
      <point x="341.865" y="599.4899999999999"/>
      <point x="374.53000000000003" y="585.36" type="curve"/>
    </contour>
  </outline>
</glyph>
<glyph name="ampersand" format="2">
  <advance width="485.6"/>
  <unicode hex="0026"/>
  <outline>
    <contour>
      <point x="193.48499999999999" y="-10.0" type="curve" smooth="yes"/>
      <point x="339.97" y="-10.0"/>
      <point x="443.9650000000001" y="147.65"/>
      <point x="409.525" y="295.51500000000004" type="curve"/>
      <point x="325.075" y="289.09000000000003" type="line"/>
      <point x="363.88499999999993" y="192.41000000000003"/>
      <point x="285.645" y="86.65500000000002"/>
      <point x="209.25" y="86.65500000000002" type="curve" smooth="yes"/>
      <point x="144.375" y="86.65500000000002"/>
      <point x="112.06" y="126.74"/>
      <point x="112.06" y="190.71" type="curve" smooth="yes"/>
      <point x="112.06" y="291.935"/>
      <point x="176.855" y="373.53000000000003"/>
      <point x="264.26" y="373.53000000000003" type="curve" smooth="yes"/>
      <point x="280.78999999999996" y="373.53000000000003" type="line"/>
      <point x="298.12" y="447.465" type="line"/>
      <point x="283.605" y="449.655" type="line" smooth="yes"/>
      <point x="234.625" y="453.78499999999997"/>
      <point x="211.22" y="482.535"/>
      <point x="211.22" y="530.73" type="curve" smooth="yes"/>
      <point x="211.22" y="580.725"/>
      <point x="244.885" y="617.3899999999999"/>
      <point x="287.34999999999997" y="617.3899999999999" type="curve" smooth="yes"/>
      <point x="313.935" y="617.3899999999999"/>
      <point x="335.945" y="610.915"/>
      <point x="361.04999999999995" y="591.815" type="curve"/>
      <point x="409.185" y="673.095" type="line"/>
      <point x="369.74" y="697.235"/>
      <point x="329.37500000000006" y="710.0"/>
      <point x="278.29999999999995" y="710.0" type="curve" smooth="yes"/>
      <point x="176.505" y="710.0"/>
      <point x="111.92999999999999" y="632.2450000000001"/>
      <point x="111.92999999999999" y="543.3299999999999" type="curve" smooth="yes"/>
      <point x="111.92999999999999" y="485.945"/>
      <point x="135.535" y="444.5199999999999"/>
      <point x="182.16500000000002" y="417.05999999999995" type="curve"/>
      <point x="82.86500000000001" y="391.04999999999995"/>
      <point x="10.459999999999999" y="301.985"/>
      <point x="10.459999999999999" y="169.735" type="curve" smooth="yes"/>
      <point x="10.459999999999999" y="65.22999999999999"/>
      <point x="71.39500000000001" y="-10.0"/>
    </contour>
    <contour>
      <point x="278.40999999999997" y="231.44" type="line"/>
      <point x="281.28499999999997" y="259.09499999999997"/>
      <point x="292.97499999999997" y="274.98"/>
      <point x="317.12500000000006" y="274.98" type="curve" smooth="yes"/>
      <point x="350.65500000000003" y="274.98"/>
      <point x="378.76000000000005" y="267.88999999999993"/>
      <point x="412.065" y="267.88999999999993" type="curve" smooth="yes"/>
      <point x="468.28499999999997" y="267.88999999999993"/>
      <point x="504.98999999999995" y="322.205"/>
      <point x="497.24999999999994" y="380.67" type="curve"/>
      <point x="432.27500000000003" y="384.315" type="line"/>
      <point x="428.44000000000005" y="343.24"/>
      <point x="409.29" y="335.10499999999996"/>
      <point x="373.34" y="335.10499999999996" type="curve" smooth="yes"/>
      <point x="350.4" y="335.10499999999996"/>
      <point x="327.94" y="342.75500000000005"/>
      <point x="303.83" y="342.75500000000005" type="curve" smooth="yes"/>
      <point x="241.22000000000003" y="342.75500000000005"/>
      <point x="216.715" y="295.00500000000005"/>
      <point x="212.22" y="244.785" type="curve"/>
    </contour>
  </outline>
</glyph>
<glyph name="quotesingle" format="2">
  <advance width="161.615"/>
  <unicode hex="0027"/>
  <outline>
    <contour>
      <point x="60.10999999999999" y="427.0" type="line"/>
      <point x="146.92" y="427.0" type="line"/>
      <point x="197.22" y="700.0" type="line"/>
      <point x="98.395" y="700.0" type="line"/>
    </contour>
  </outline>
</glyph>
<glyph name="parenleft" format="2">
  <advance width="232.115"/>
  <unicode hex="0028"/>
  <outline>
    <contour>
      <point x="19.939999999999998" y="26.2" type="curve" smooth="yes"/>
      <point x="19.939999999999998" y="-109.38"/>
      <point x="55.964999999999996" y="-199.655"/>
      <point x="136.77" y="-220.0" type="curve"/>
      <point x="156.965" y="-125.69999999999999" type="line"/>
      <point x="124.67999999999999" y="-107.34499999999998"/>
      <point x="104.86500000000001" y="-56.614999999999995"/>
      <point x="104.86500000000001" y="33.160000000000004" type="curve" smooth="yes"/>
      <point x="104.86500000000001" y="179.095"/>
      <point x="173.975" y="621.755"/>
      <point x="280.21999999999997" y="653.6400000000001" type="curve"/>
      <point x="291.325" y="749.595" type="line"/>
      <point x="96.07" y="714.47"/>
      <point x="19.939999999999998" y="259.34499999999997"/>
    </contour>
  </outline>
</glyph>
<glyph name="parenright" format="2">
  <advance width="232.115"/>
  <unicode hex="0029"/>
  <outline>
    <contour>
      <point x="209.525" y="503.71" type="curve" smooth="yes"/>
      <point x="209.525" y="639.835"/>
      <point x="173.815" y="729.655"/>
      <point x="92.965" y="750.0" type="curve"/>
      <point x="73.58" y="654.1199999999999" type="line"/>
      <point x="107.12500000000001" y="633.245"/>
      <point x="124.6" y="585.035"/>
      <point x="124.6" y="501.74" type="curve" smooth="yes"/>
      <point x="124.6" y="352.07000000000005"/>
      <point x="55.4" y="-92.61"/>
      <point x="-51.25" y="-124.36" type="curve"/>
      <point x="-61.95" y="-220.0" type="line"/>
      <point x="130.83" y="-182.32"/>
      <point x="209.525" y="269.72"/>
    </contour>
  </outline>
</glyph>
<glyph name="asterisk" format="2">
  <advance width="277.33"/>
  <unicode hex="002A"/>
  <outline>
    <contour>
      <point x="102.72" y="402.15" type="line"/>
      <point x="171.16000000000003" y="481.73" type="line"/>
      <point x="213.10999999999999" y="402.555" type="line"/>
      <point x="258.985" y="433.365" type="line"/>
      <point x="227.51000000000002" y="523.145" type="line"/>
      <point x="314.265" y="565.4200000000001" type="line"/>
      <point x="306.24" y="616.63" type="line"/>
      <point x="219.625" y="589.4300000000001" type="line"/>
      <point x="230.35" y="694.045" type="line"/>
      <point x="179.335" y="694.045" type="line"/>
      <point x="156.17999999999998" y="589.835" type="line"/>
      <point x="79.48" y="617.035" type="line"/>
      <point x="54.96" y="566.23" type="line"/>
      <point x="125.695" y="523.9549999999999" type="line"/>
      <point x="66.00500000000001" y="433.45500000000004" type="line"/>
    </contour>
  </outline>
</glyph>
<glyph name="plus" format="2">
  <advance width="393.115"/>
  <unicode hex="002B"/>
  <outline>
    <contour>
      <point x="125.765" y="117.87" type="line"/>
      <point x="218.255" y="117.87" type="line"/>
      <point x="241.09" y="261.72" type="line"/>
      <point x="348.26" y="261.72" type="line"/>
      <point x="363.855" y="360.7" type="line"/>
      <point x="256.685" y="360.7" type="line"/>
      <point x="279.62" y="504.9" type="line"/>
      <point x="187.23999999999998" y="504.9" type="line"/>
      <point x="164.195" y="360.7" type="line"/>
      <point x="56.785" y="360.7" type="line"/>
      <point x="41.19" y="261.72" type="line"/>
      <point x="148.71" y="261.72" type="line"/>
    </contour>
  </outline>
</glyph>
<glyph name="comma" format="2">
  <advance width="160.58"/>
  <unicode hex="002C"/>
  <outline>
    <contour>
      <point x="-0.8050000000000003" y="76.08" type="line"/>
      <point x="-0.7700000000000001" y="51.875"/>
      <point x="-2.880000000000001" y="29.640000000000004"/>
      <point x="-4.585000000000002" y="16.28" type="curve" smooth="yes"/>
      <point x="-9.810000000000002" y="-42.115"/>
      <point x="-44.505" y="-123.505"/>
      <point x="-81.07" y="-163.905" type="curve"/>
      <point x="-9.399999999999995" y="-189.82999999999998" type="line"/>
      <point x="58.85000000000001" y="-122.415"/>
      <point x="96.67500000000001" y="-29.055"/>
      <point x="96.67500000000001" y="45.53000000000001" type="curve" smooth="yes"/>
      <point x="96.67500000000001" y="57.295"/>
      <point x="95.99000000000001" y="68.11500000000001"/>
      <point x="94.79" y="79.87" type="curve"/>
    </contour>
  </outline>
</glyph>
<glyph name="hyphen" format="2">
  <advance width="263.07"/>
  <unicode hex="002D"/>
  <outline>
    <contour>
      <point x="23.575000000000003" y="241.54" type="line"/>
      <point x="228.305" y="241.54" type="line"/>
      <point x="246.285" y="347.66" type="line"/>
      <point x="41.555" y="347.66" type="line"/>
    </contour>
  </outline>
</glyph>
<glyph name="period" format="2">
  <advance width="161.295"/>
  <unicode hex="002E"/>
  <outline>
    <contour>
      <point x="-12.48" y="43.495" type="curve" smooth="yes"/>
      <point x="-12.93" y="10.865000000000002"/>
      <point x="0.6350000000000013" y="-4.015000000000001"/>
      <point x="36.065" y="-4.015000000000001" type="curve" smooth="yes"/>
      <point x="90.985" y="-4.015000000000001"/>
      <point x="106.705" y="45.44"/>
      <point x="108.055" y="93.685" type="curve" smooth="yes"/>
      <point x="108.505" y="125.73000000000002"/>
      <point x="94.13000000000002" y="140.20499999999998"/>
      <point x="59.655" y="140.20499999999998" type="curve" smooth="yes"/>
      <point x="5.765000000000001" y="140.20499999999998"/>
      <point x="-11.13" y="91.46499999999999"/>
    </contour>
  </outline>
</glyph>
<glyph name="slash" format="2">
  <advance width="312.025"/>
  <unicode hex="002F"/>
  <outline>
    <contour>
      <point x="-76.49499999999999" y="-210.0" type="line"/>
      <point x="12.030000000000005" y="-210.0" type="line"/>
      <point x="385.52" y="740.0" type="line"/>
      <point x="295.95000000000005" y="740.0" type="line"/>
    </contour>
  </outline>
</glyph>
<glyph name="zero" format="2">
  <advance width="413.69999999999993"/>
  <unicode hex="0030"/>
  <outline>
    <contour>
      <point x="168.65" y="-10.45" type="curve" smooth="yes"/>
      <point x="346.275" y="-10.45"/>
      <point x="416.17499999999995" y="295.1499999999999"/>
      <point x="416.17499999999995" y="516.3" type="curve" smooth="yes"/>
      <point x="416.17499999999995" y="651.0749999999999"/>
      <point x="370.65000000000003" y="710.225"/>
      <point x="268.95" y="710.225" type="curve" smooth="yes"/>
      <point x="90.05000000000003" y="710.225"/>
      <point x="21.2" y="404.85"/>
      <point x="21.2" y="185.05" type="curve" smooth="yes"/>
      <point x="21.2" y="50.50000000000001"/>
      <point x="66.95000000000002" y="-10.45"/>
    </contour>
    <contour>
      <point x="180.0" y="93.42500000000001" type="curve" smooth="yes"/>
      <point x="140.52499999999998" y="93.42500000000001"/>
      <point x="125.85000000000001" y="122.25000000000001"/>
      <point x="126.52499999999999" y="184.37500000000003" type="curve" smooth="yes"/>
      <point x="127.20000000000002" y="316.9"/>
      <point x="176.22500000000005" y="606.575"/>
      <point x="257.97499999999997" y="606.575" type="curve" smooth="yes"/>
      <point x="297.3" y="606.575"/>
      <point x="311.67499999999995" y="578.175"/>
      <point x="311.00000000000006" y="516.275" type="curve" smooth="yes"/>
      <point x="310.325" y="384.79999999999995"/>
      <point x="260.85" y="93.42500000000001"/>
    </contour>
  </outline>
</glyph>
<glyph name="one" format="2">
  <advance width="413.42999999999995"/>
  <unicode hex="0031"/>
  <outline>
    <contour>
      <point x="19.860000000000003" y="0.0" type="line"/>
      <point x="331.995" y="0.0" type="line"/>
      <point x="348.03" y="99.155" type="line"/>
      <point x="248.815" y="99.155" type="line"/>
      <point x="345.08" y="700.45" type="line"/>
      <point x="292.665" y="700.45" type="line"/>
      <point x="98.83" y="608.86" type="line"/>
      <point x="105.26" y="499.64" type="line"/>
      <point x="218.025" y="560.795" type="line"/>
      <point x="144.005" y="99.155" type="line"/>
      <point x="35.400000000000006" y="99.155" type="line"/>
    </contour>
  </outline>
</glyph>
<glyph name="two" format="2">
  <advance width="413.69999999999993"/>
  <unicode hex="0032"/>
  <outline>
    <contour>
      <point x="22.45000000000001" y="80.775" type="curve"/>
      <point x="11.8" y="0.0" type="line"/>
      <point x="323.45" y="0.0" type="line"/>
      <point x="338.34999999999997" y="91.25000000000001" type="line"/>
      <point x="147.50000000000003" y="91.25000000000001" type="line"/>
      <point x="305.17499999999995" y="316.6"/>
      <point x="384.95000000000005" y="440.7"/>
      <point x="384.95000000000005" y="565.7250000000001" type="curve" smooth="yes"/>
      <point x="384.95000000000005" y="654.7500000000001"/>
      <point x="337.3250000000001" y="710.0"/>
      <point x="259.6000000000001" y="710.0" type="curve" smooth="yes"/>
      <point x="199.67500000000004" y="710.0"/>
      <point x="142.47500000000002" y="688.9250000000001"/>
      <point x="96.27499999999999" y="651.95" type="curve"/>
      <point x="119.87500000000003" y="557.2999999999998" type="line"/>
      <point x="153.7" y="582.5749999999999"/>
      <point x="185.225" y="597.75"/>
      <point x="218.95" y="597.75" type="curve" smooth="yes"/>
      <point x="255.025" y="597.75"/>
      <point x="274.95" y="571.1750000000001"/>
      <point x="274.95" y="532.2500000000001" type="curve" smooth="yes"/>
      <point x="274.95" y="440.375"/>
      <point x="196.04999999999998" y="318.925"/>
    </contour>
  </outline>
</glyph>
<glyph name="three" format="2">
  <advance width="413.70000000000005"/>
  <unicode hex="0033"/>
  <outline>
    <contour>
      <point x="-9.825" y="38.3875" type="line"/>
      <point x="26.225000000000005" y="7.574999999999999"/>
      <point x="71.775" y="-10.0"/>
      <point x="135.4125" y="-10.0" type="curve" smooth="yes"/>
      <point x="249.22499999999997" y="-10.0"/>
      <point x="353.9375" y="79.6"/>
      <point x="353.9375" y="236.13750000000002" type="curve" smooth="yes"/>
      <point x="353.9375" y="315.7625"/>
      <point x="321.8125" y="353.9625"/>
      <point x="285.8" y="370.45" type="curve"/>
      <point x="345.03749999999997" y="404.4125"/>
      <point x="390.28749999999997" y="469.325"/>
      <point x="390.28749999999997" y="564.2125" type="curve" smooth="yes"/>
      <point x="390.28749999999997" y="656.175"/>
      <point x="339.4125" y="710.0"/>
      <point x="247.16250000000002" y="710.0" type="curve" smooth="yes"/>
      <point x="192.45" y="710.0"/>
      <point x="135.875" y="692.5624999999999"/>
      <point x="95.85" y="662.5375" type="curve"/>
      <point x="116.31249999999999" y="575.7375" type="line"/>
      <point x="141.3875" y="591.8375"/>
      <point x="172.4" y="601.7375"/>
      <point x="208.0375" y="601.7375" type="curve" smooth="yes"/>
      <point x="253.0625" y="601.7375"/>
      <point x="281.325" y="570.375"/>
      <point x="281.325" y="520.9375" type="curve" smooth="yes"/>
      <point x="281.325" y="459.3"/>
      <point x="243.85" y="402.175"/>
      <point x="188.81249999999997" y="402.175" type="curve" smooth="yes"/>
      <point x="137.0" y="402.175" type="line"/>
      <point x="122.9125" y="317.675" type="line"/>
      <point x="184.22500000000002" y="317.675" type="line" smooth="yes"/>
      <point x="229.5875" y="317.675"/>
      <point x="251.5125" y="287.72499999999997"/>
      <point x="251.5125" y="238.3125" type="curve" smooth="yes"/>
      <point x="251.5125" y="154.5"/>
      <point x="208.02499999999998" y="95.0625"/>
      <point x="137.325" y="95.0625" type="curve" smooth="yes"/>
      <point x="98.075" y="95.0625"/>
      <point x="67.6625" y="105.2125"/>
      <point x="39.6875" y="126.66250000000001" type="curve"/>
    </contour>
  </outline>
</glyph>
<glyph name="four" format="2">
  <advance width="413.70000000000005"/>
  <unicode hex="0034"/>
  <outline>
    <contour>
      <point x="6.399999999999999" y="131.81249999999997" type="line"/>
      <point x="193.0375" y="131.81249999999997" type="line"/>
      <point x="172.275" y="-0.22499999999999998" type="line"/>
      <point x="281.3125" y="-0.22499999999999998" type="line"/>
      <point x="302.075" y="131.81249999999997" type="line"/>
      <point x="365.72499999999997" y="131.81249999999997" type="line"/>
      <point x="379.99999999999994" y="223.675" type="line"/>
      <point x="317.0125" y="223.675" type="line"/>
      <point x="393.1" y="699.4374999999999" type="line"/>
      <point x="280.7125" y="701.8" type="line"/>
      <point x="17.925" y="220.0125" type="line"/>
    </contour>
    <contour>
      <point x="94.1125" y="223.675" type="line"/>
      <point x="263.16249999999997" y="538.8" type="line"/>
      <point x="211.85000000000002" y="223.675" type="line"/>
    </contour>
  </outline>
</glyph>
<glyph name="five" format="2">
  <advance width="413.69999999999993"/>
  <unicode hex="0035"/>
  <outline>
    <contour>
      <point x="-3.374999999999999" y="35.9875" type="line"/>
      <point x="31.150000000000002" y="5.45"/>
      <point x="73.8125" y="-10.0"/>
      <point x="135.73749999999995" y="-10.0" type="curve" smooth="yes"/>
      <point x="300.3625" y="-10.0"/>
      <point x="363.6875" y="141.06249999999997"/>
      <point x="363.6875" y="266.2875" type="curve" smooth="yes"/>
      <point x="363.6875" y="362.2"/>
      <point x="321.4375" y="408.525"/>
      <point x="243.83750000000003" y="411.04999999999995" type="curve" smooth="yes"/>
      <point x="186.11250000000004" y="411.90000000000003" type="line"/>
      <point x="227.10000000000005" y="594.4124999999999" type="line"/>
      <point x="395.2" y="594.4124999999999" type="line"/>
      <point x="411.2625" y="700.0" type="line"/>
      <point x="161.44999999999996" y="700.0" type="line"/>
      <point x="73.02499999999999" y="328.01249999999993" type="line"/>
      <point x="79.85000000000001" y="316.21250000000003" type="line"/>
      <point x="180.50000000000003" y="316.21250000000003" type="line" smooth="yes"/>
      <point x="233.3" y="316.21250000000003"/>
      <point x="253.725" y="290.08750000000003"/>
      <point x="253.725" y="237.96250000000003" type="curve" smooth="yes"/>
      <point x="253.725" y="183.475"/>
      <point x="224.9" y="95.30000000000001"/>
      <point x="134.78749999999997" y="95.30000000000001" type="curve" smooth="yes"/>
      <point x="90.63750000000002" y="95.30000000000001"/>
      <point x="59.375" y="111.25"/>
      <point x="36.5" y="128.875" type="curve"/>
    </contour>
  </outline>
</glyph>
<glyph name="six" format="2">
  <advance width="413.7"/>
  <unicode hex="0036"/>
  <note>
14
</note>
  <outline>
    <contour>
      <point x="182.02500000000003" y="-10.0" type="curve" smooth="yes"/>
      <point x="301.34999999999997" y="-10.0"/>
      <point x="381.625" y="110.65"/>
      <point x="381.625" y="289.82500000000005" type="curve" smooth="yes"/>
      <point x="381.625" y="390.20000000000005"/>
      <point x="330.375" y="436.45"/>
      <point x="260.72499999999997" y="436.45" type="curve" smooth="yes"/>
      <point x="212.775" y="436.45"/>
      <point x="171.7" y="418.04999999999995"/>
      <point x="135.425" y="372.55" type="curve"/>
      <point x="126.37500000000001" y="262.525" type="line"/>
      <point x="149.65" y="312.6"/>
      <point x="183.925" y="345.25"/>
      <point x="220.525" y="345.25" type="curve" smooth="yes"/>
      <point x="260.84999999999997" y="345.25"/>
      <point x="277.825" y="317.84999999999997"/>
      <point x="277.825" y="263.65000000000003" type="curve" smooth="yes"/>
      <point x="277.825" y="173.75"/>
      <point x="238.65" y="86.55000000000001"/>
      <point x="188.97500000000002" y="86.55000000000001" type="curve" smooth="yes"/>
      <point x="149.8" y="86.55000000000001"/>
      <point x="128.65" y="115.75000000000001"/>
      <point x="128.65" y="173.875" type="curve" smooth="yes"/>
      <point x="128.65" y="272.8"/>
      <point x="149.475" y="375.84999999999997"/>
      <point x="184.375" y="478.95000000000005" type="curve" smooth="yes"/>
      <point x="212.45000000000002" y="560.6749999999998"/>
      <point x="253.57500000000005" y="608.2249999999999"/>
      <point x="319.05" y="608.2249999999999" type="curve" smooth="yes"/>
      <point x="347.05" y="608.2249999999999"/>
      <point x="371.975" y="598.15"/>
      <point x="395.175" y="584.1500000000001" type="curve"/>
      <point x="438.75" y="674.4999999999999" type="line"/>
      <point x="414.25" y="693.025"/>
      <point x="370.125" y="710.0"/>
      <point x="316.65000000000003" y="710.0" type="curve" smooth="yes"/>
      <point x="128.6" y="710.0"/>
      <point x="27.275000000000006" y="463.725"/>
      <point x="27.275000000000006" y="183.85" type="curve" smooth="yes"/>
      <point x="27.275000000000006" y="47.175000000000004"/>
      <point x="82.025" y="-10.0"/>
    </contour>
  </outline>
</glyph>
<glyph name="seven" format="2">
  <advance width="413.42999999999995"/>
  <unicode hex="0037"/>
  <note>
9
</note>
  <outline>
    <contour>
      <point x="67.465" y="0.0" type="curve"/>
      <point x="178.38500000000002" y="0.0" type="line"/>
      <point x="199.055" y="119.56500000000001"/>
      <point x="228.76000000000002" y="213.225"/>
      <point x="313.055" y="389.805" type="curve" smooth="yes"/>
      <point x="422.895" y="619.375" type="line"/>
      <point x="435.73" y="700.0" type="line"/>
      <point x="104.145" y="700.0" type="line"/>
      <point x="87.60500000000002" y="595.525" type="line"/>
      <point x="304.985" y="595.525" type="line"/>
      <point x="206.79999999999998" y="402.715" type="line" smooth="yes"/>
      <point x="128.19" y="248.735"/>
      <point x="89.62500000000001" y="137.92499999999998"/>
    </contour>
  </outline>
</glyph>
<glyph name="eight" format="2">
  <advance width="415.25"/>
  <unicode hex="0038"/>
  <outline>
    <contour>
      <point x="180.725" y="-10.0" type="curve" smooth="yes"/>
      <point x="302.47499999999997" y="-10.0"/>
      <point x="376.02500000000003" y="66.39999999999999"/>
      <point x="376.02500000000003" y="201.325" type="curve" smooth="yes"/>
      <point x="376.02500000000003" y="386.02500000000003"/>
      <point x="178.04999999999998" y="398.05"/>
      <point x="178.04999999999998" y="534.2" type="curve" smooth="yes"/>
      <point x="178.04999999999998" y="580.45"/>
      <point x="204.5" y="613.65"/>
      <point x="255.125" y="613.65" type="curve" smooth="yes"/>
      <point x="299.5" y="613.65"/>
      <point x="316.15" y="585.5"/>
      <point x="316.15" y="542.55" type="curve" smooth="yes"/>
      <point x="316.15" y="478.4"/>
      <point x="280.575" y="436.625"/>
      <point x="234.02499999999998" y="405.05" type="curve"/>
      <point x="288.65000000000003" y="354.125" type="line"/>
      <point x="360.95" y="399.8"/>
      <point x="413.6" y="468.95"/>
      <point x="413.6" y="566.2750000000001" type="curve" smooth="yes"/>
      <point x="413.6" y="645.45"/>
      <point x="369.75" y="710.0"/>
      <point x="258.92499999999995" y="710.0" type="curve" smooth="yes"/>
      <point x="138.24999999999997" y="710.0"/>
      <point x="75.75" y="631.5250000000001"/>
      <point x="75.75" y="522.0749999999999" type="curve" smooth="yes"/>
      <point x="75.75" y="324.34999999999997"/>
      <point x="272.075" y="329.325"/>
      <point x="272.075" y="184.1" type="curve" smooth="yes"/>
      <point x="272.075" y="120.0"/>
      <point x="239.75" y="82.50000000000001"/>
      <point x="187.27500000000003" y="82.50000000000001" type="curve" smooth="yes"/>
      <point x="135.97500000000002" y="82.50000000000001"/>
      <point x="111.7" y="111.75"/>
      <point x="111.7" y="161.47500000000002" type="curve" smooth="yes"/>
      <point x="111.7" y="238.1"/>
      <point x="148.9" y="290.7"/>
      <point x="204.975" y="318.04999999999995" type="curve"/>
      <point x="147.24999999999997" y="375.225" type="line"/>
      <point x="59.75" y="337.825"/>
      <point x="6.675000000000001" y="246.2"/>
      <point x="6.675000000000001" y="147.0" type="curve" smooth="yes"/>
      <point x="6.675000000000001" y="54.075"/>
      <point x="55.925" y="-10.0"/>
    </contour>
  </outline>
</glyph>
<glyph name="nine" format="2">
  <advance width="413.7"/>
  <unicode hex="0039"/>
  <outline>
    <contour>
      <point x="256.87500000000006" y="710.0" type="curve" smooth="yes"/>
      <point x="137.65" y="710.0"/>
      <point x="56.599999999999994" y="589.4"/>
      <point x="56.599999999999994" y="410.54999999999995" type="curve" smooth="yes"/>
      <point x="56.599999999999994" y="309.72499999999997"/>
      <point x="106.075" y="264.22499999999997"/>
      <point x="175.05" y="264.22499999999997" type="curve" smooth="yes"/>
      <point x="223.67499999999998" y="264.22499999999997"/>
      <point x="267.19999999999993" y="279.925"/>
      <point x="302.8" y="334.2" type="curve"/>
      <point x="311.85" y="438.15" type="line"/>
      <point x="289.25" y="388.075"/>
      <point x="254.29999999999998" y="355.425"/>
      <point x="217.70000000000002" y="355.425" type="curve" smooth="yes"/>
      <point x="178.05" y="355.425"/>
      <point x="161.07500000000002" y="382.15000000000003"/>
      <point x="161.07500000000002" y="436.34999999999997" type="curve" smooth="yes"/>
      <point x="161.07500000000002" y="526.9250000000001"/>
      <point x="200.25" y="613.4499999999999"/>
      <point x="249.175" y="613.4499999999999" type="curve" smooth="yes"/>
      <point x="287.525" y="613.4499999999999"/>
      <point x="309.5" y="584.1750000000001"/>
      <point x="309.5" y="526.95" type="curve" smooth="yes"/>
      <point x="309.5" y="435.37500000000006"/>
      <point x="290.2" y="324.09999999999997"/>
      <point x="254.62499999999994" y="220.325" type="curve" smooth="yes"/>
      <point x="227.25000000000003" y="138.57500000000002"/>
      <point x="187.22500000000002" y="90.975"/>
      <point x="122.85000000000001" y="90.975" type="curve" smooth="yes"/>
      <point x="95.52499999999998" y="90.975"/>
      <point x="66.92500000000001" y="101.85"/>
      <point x="43.050000000000004" y="119.9" type="curve"/>
      <point x="-0.5249999999999994" y="28.874999999999996" type="line"/>
      <point x="25.4" y="6.9750000000000005"/>
      <point x="72.525" y="-10.0"/>
      <point x="127.72500000000002" y="-10.0" type="curve" smooth="yes"/>
      <point x="309.84999999999997" y="-10.0"/>
      <point x="410.875" y="236.27500000000003"/>
      <point x="410.875" y="516.8249999999999" type="curve" smooth="yes"/>
      <point x="410.875" y="653.5"/>
      <point x="356.20000000000005" y="710.0"/>
    </contour>
  </outline>
</glyph>
<glyph name="less" format="2">
  <advance width="391.09"/>
  <unicode hex="003C"/>
  <outline>
    <contour>
      <point x="329.895" y="93.765" type="line"/>
      <point x="344.005" y="185.625" type="line"/>
      <point x="129.925" y="301.97999999999996" type="line"/>
      <point x="381.42" y="419.18" type="line"/>
      <point x="395.53000000000003" y="511.51" type="line"/>
      <point x="45.220000000000006" y="353.585" type="line"/>
      <point x="29.165" y="252.655" type="line"/>
    </contour>
  </outline>
</glyph>
<glyph name="equal" format="2">
  <advance width="372.785"/>
  <unicode hex="003D"/>
  <outline>
    <contour>
      <point x="323.875" y="243.97" type="line"/>
      <point x="39.575" y="243.97" type="line"/>
      <point x="24.970000000000002" y="144.58499999999998" type="line"/>
      <point x="309.27" y="144.58499999999998" type="line"/>
    </contour>
    <contour>
      <point x="355.87500000000006" y="461.27500000000003" type="line"/>
      <point x="72.01500000000001" y="461.27500000000003" type="line"/>
      <point x="56.97" y="361.89" type="line"/>
      <point x="341.27000000000004" y="361.89" type="line"/>
    </contour>
  </outline>
</glyph>
<glyph name="greater" format="2">
  <advance width="391.09"/>
  <unicode hex="003E"/>
  <outline>
    <contour>
      <point x="354.75000000000006" y="251.44" type="line"/>
      <point x="370.695" y="351.545" type="line"/>
      <point x="70.16499999999999" y="510.15000000000003" type="line"/>
      <point x="55.945" y="419.225" type="line"/>
      <point x="270.98" y="302.385" type="line"/>
      <point x="19.045" y="186.07500000000002" type="line"/>
      <point x="4.475" y="92.955" type="line"/>
    </contour>
  </outline>
</glyph>
<glyph name="question" format="2">
  <advance width="331.17500000000007"/>
  <unicode hex="003F"/>
  <outline>
    <contour>
      <point x="99.425" y="261.565" type="line"/>
      <point x="190.51000000000002" y="261.565" type="line"/>
      <point x="202.35500000000002" y="334.23" type="line"/>
      <point x="294.24" y="400.65999999999997"/>
      <point x="364.015" y="474.185"/>
      <point x="364.015" y="598.74" type="curve" smooth="yes"/>
      <point x="364.015" y="694.9749999999999"/>
      <point x="309.93" y="750.0"/>
      <point x="224.67499999999998" y="750.0" type="curve" smooth="yes"/>
      <point x="174.19499999999996" y="750.0"/>
      <point x="117.20000000000002" y="729.1350000000001"/>
      <point x="74.82" y="693.175" type="curve"/>
      <point x="97.69999999999999" y="595.8899999999999" type="line"/>
      <point x="130.845" y="622.0099999999999"/>
      <point x="159.82" y="636.115"/>
      <point x="191.08500000000004" y="636.115" type="curve" smooth="yes"/>
      <point x="224.505" y="636.115"/>
      <point x="250.125" y="619.78"/>
      <point x="250.125" y="569.1800000000001" type="curve" smooth="yes"/>
      <point x="250.125" y="489.27000000000004"/>
      <point x="205.49500000000003" y="440.19"/>
      <point x="116.88" y="384.91499999999996" type="curve"/>
    </contour>
    <contour>
      <point x="54.705" y="41.33500000000001" type="curve" smooth="yes"/>
      <point x="54.75" y="8.930000000000001"/>
      <point x="67.86500000000001" y="-5.500000000000001"/>
      <point x="102.26" y="-5.500000000000001" type="curve" smooth="yes"/>
      <point x="157.54000000000002" y="-5.500000000000001"/>
      <point x="175.33" y="41.97500000000001"/>
      <point x="175.19500000000002" y="90.355" type="curve" smooth="yes"/>
      <point x="175.15000000000003" y="123.75000000000001"/>
      <point x="161.27" y="138.26999999999998"/>
      <point x="127.78500000000001" y="138.26999999999998" type="curve" smooth="yes"/>
      <point x="72.995" y="138.26999999999998"/>
      <point x="54.57" y="90.43"/>
    </contour>
  </outline>
</glyph>
<glyph name="at" format="2">
  <advance width="642.075"/>
  <unicode hex="0040"/>
  <outline>
    <contour>
      <point x="264.40000000000003" y="-123.475" type="curve" smooth="yes"/>
      <point x="314.52500000000003" y="-123.475"/>
      <point x="379.35" y="-104.075"/>
      <point x="419.72499999999997" y="-70.325" type="curve"/>
      <point x="404.35" y="-28.424999999999997" type="line"/>
      <point x="362.675" y="-56.54999999999999"/>
      <point x="314.85" y="-71.89999999999998"/>
      <point x="266.09999999999997" y="-71.89999999999998" type="curve" smooth="yes"/>
      <point x="151.2" y="-71.89999999999998"/>
      <point x="71.05000000000001" y="-3.099999999999999"/>
      <point x="71.05000000000001" y="160.025" type="curve" smooth="yes"/>
      <point x="71.05000000000001" y="403.6"/>
      <point x="196.02499999999998" y="660.8"/>
      <point x="392.55" y="660.8" type="curve" smooth="yes"/>
      <point x="517.625" y="660.8"/>
      <point x="584.6" y="597.0500000000001"/>
      <point x="584.6" y="448.35" type="curve" smooth="yes"/>
      <point x="584.6" y="319.2"/>
      <point x="542.875" y="125.125"/>
      <point x="469.475" y="125.125" type="curve" smooth="yes"/>
      <point x="428.54999999999995" y="125.125"/>
      <point x="429.725" y="174.95"/>
      <point x="440.825" y="221.05000000000004" type="curve" smooth="yes"/>
      <point x="513.3" y="522.9" type="line"/>
      <point x="471.725" y="543.125"/>
      <point x="430.2" y="554.3000000000001"/>
      <point x="380.65000000000003" y="554.3000000000001" type="curve" smooth="yes"/>
      <point x="235.2" y="554.3000000000001"/>
      <point x="150.875" y="323.625"/>
      <point x="150.875" y="164.625" type="curve" smooth="yes"/>
      <point x="150.875" y="91.92500000000001"/>
      <point x="183.54999999999998" y="56.224999999999994"/>
      <point x="236.52500000000003" y="56.224999999999994" type="curve" smooth="yes"/>
      <point x="283.1" y="56.224999999999994"/>
      <point x="323.825" y="87.9"/>
      <point x="355.5" y="137.475" type="curve"/>
      <point x="366.7" y="95.9"/>
      <point x="387.02500000000003" y="53.550000000000004"/>
      <point x="448.50000000000006" y="53.550000000000004" type="curve" smooth="yes"/>
      <point x="571.85" y="53.550000000000004"/>
      <point x="639.5000000000001" y="278.49999999999994"/>
      <point x="639.5000000000001" y="458.325" type="curve" smooth="yes"/>
      <point x="639.5000000000001" y="625.7"/>
      <point x="542.0500000000001" y="712.2"/>
      <point x="402.875" y="712.2" type="curve" smooth="yes"/>
      <point x="161.75000000000003" y="712.2"/>
      <point x="15.075" y="439.875"/>
      <point x="15.075" y="146.89999999999998" type="curve" smooth="yes"/>
      <point x="15.075" y="-25.649999999999995"/>
      <point x="106.075" y="-123.475"/>
    </contour>
    <contour>
      <point x="285.875" y="153.95" type="curve" smooth="yes"/>
      <point x="266.1" y="153.95"/>
      <point x="255.17500000000004" y="168.7"/>
      <point x="255.17500000000004" y="196.0" type="curve" smooth="yes"/>
      <point x="255.17500000000004" y="289.825"/>
      <point x="320.15000000000003" y="474.90000000000003"/>
      <point x="372.35" y="474.90000000000003" type="curve" smooth="yes"/>
      <point x="385.52500000000003" y="474.90000000000003"/>
      <point x="396.97499999999997" y="472.42499999999995"/>
      <point x="408.84999999999997" y="466.825" type="curve"/>
      <point x="351.45000000000005" y="229.15" type="line" smooth="yes"/>
      <point x="336.325" y="182.17499999999998"/>
      <point x="309.1" y="153.95"/>
    </contour>
  </outline>
</glyph>
<glyph name="A" format="2">
  <advance width="414.6525"/>
  <unicode hex="0041"/>
  <anchor x="162.5425" y="0.0" name="bottom"/>
  <anchor x="360.76750000000004" y="0.0" name="ogonek"/>
  <anchor x="269.385" y="700.0" name="top"/>
  <outline>
    <contour>
      <point x="-34.115" y="0.0" type="line"/>
      <point x="76.50250000000001" y="0.0" type="line"/>
      <point x="125.675" y="152.4025" type="line"/>
      <point x="248.24249999999998" y="152.4025" type="line"/>
      <point x="249.35000000000002" y="0.0" type="line"/>
      <point x="360.76750000000004" y="0.0" type="line"/>
      <point x="347.495" y="705.05" type="line"/>
      <point x="194.39999999999998" y="705.05" type="line"/>
    </contour>
    <contour>
      <point x="152.51" y="250.715" type="line"/>
      <point x="256.13" y="604.7900000000001" type="line"/>
      <point x="253.2975" y="250.715" type="line"/>
    </contour>
  </outline>
</glyph>
<glyph name="B" format="2">
  <advance width="401.725"/>
  <unicode hex="0042"/>
  <outline>
    <contour>
      <point x="-4.345000000000001" y="0.5450000000000007" type="line"/>
      <point x="59.71000000000001" y="-7.194999999999999"/>
      <point x="91.545" y="-10.0"/>
      <point x="148.03" y="-10.0" type="curve" smooth="yes"/>
      <point x="303.895" y="-10.0"/>
      <point x="376.985" y="115.425"/>
      <point x="376.985" y="247.08999999999997" type="curve" smooth="yes"/>
      <point x="376.985" y="312.49"/>
      <point x="351.54" y="357.075"/>
      <point x="311.40000000000003" y="374.36" type="curve"/>
      <point x="376.915" y="409.77000000000004"/>
      <point x="410.11" y="496.675"/>
      <point x="410.11" y="573.6899999999999" type="curve" smooth="yes"/>
      <point x="410.11" y="659.295"/>
      <point x="362.72999999999996" y="710.0"/>
      <point x="254.12499999999997" y="710.0" type="curve" smooth="yes"/>
      <point x="223.475" y="710.0"/>
      <point x="173.93499999999997" y="707.305"/>
      <point x="105.69500000000001" y="698.645" type="curve"/>
    </contour>
    <contour>
      <point x="163.57" y="398.18" type="line"/>
      <point x="196.74500000000003" y="610.285" type="line"/>
      <point x="215.125" y="612.97"/>
      <point x="229.23499999999999" y="614.8249999999999"/>
      <point x="246.155" y="614.8249999999999" type="curve" smooth="yes"/>
      <point x="288.735" y="614.8249999999999"/>
      <point x="308.73" y="595.9"/>
      <point x="308.73" y="544.73" type="curve" smooth="yes"/>
      <point x="308.73" y="470.15500000000003"/>
      <point x="270.11" y="398.18"/>
      <point x="218.875" y="398.18" type="curve" smooth="yes"/>
    </contour>
    <contour>
      <point x="149.14000000000001" y="307.52000000000004" type="line"/>
      <point x="211.955" y="307.52000000000004" type="line" smooth="yes"/>
      <point x="246.78" y="307.52000000000004"/>
      <point x="271.8" y="283.175"/>
      <point x="271.8" y="234.06999999999996" type="curve" smooth="yes"/>
      <point x="271.8" y="150.615"/>
      <point x="234.57999999999998" y="85.22"/>
      <point x="162.43500000000003" y="85.22" type="curve" smooth="yes"/>
      <point x="147.725" y="85.22"/>
      <point x="133.15" y="86.09500000000001"/>
      <point x="114.29" y="88.77000000000001" type="curve"/>
    </contour>
  </outline>
</glyph>
<glyph name="C" format="2">
  <advance width="362.525"/>
  <unicode hex="0043"/>
  <anchor x="189.5875" y="0.0" name="bottom"/>
  <anchor x="296.3375" y="700.0" name="top"/>
  <outline>
    <contour>
      <point x="213.25000000000003" y="-10.0" type="curve" smooth="yes"/>
      <point x="251.98749999999998" y="-10.0"/>
      <point x="284.1125" y="-5.7749999999999995"/>
      <point x="313.7125" y="4.4750000000000005" type="curve"/>
      <point x="308.2749999999999" y="98.675" type="line"/>
      <point x="286.5625" y="93.00000000000001"/>
      <point x="261.3875" y="89.08750000000002"/>
      <point x="236.8875" y="89.08750000000002" type="curve" smooth="yes"/>
      <point x="168.05000000000004" y="89.08750000000002"/>
      <point x="132.425" y="123.0"/>
      <point x="132.425" y="222.225" type="curve" smooth="yes"/>
      <point x="132.425" y="434.68750000000006"/>
      <point x="198.65" y="610.9125"/>
      <point x="304.275" y="610.9125" type="curve" smooth="yes"/>
      <point x="330.61249999999995" y="610.9125"/>
      <point x="353.78749999999997" y="606.3375"/>
      <point x="380.26250000000005" y="597.3125" type="curve"/>
      <point x="412.19999999999993" y="687.3124999999999" type="line"/>
      <point x="380.63750000000005" y="703.0"/>
      <point x="340.59999999999997" y="710.0"/>
      <point x="299.0" y="710.0" type="curve" smooth="yes"/>
      <point x="131.775" y="710.0"/>
      <point x="24.675" y="504.9"/>
      <point x="24.675" y="204.56249999999997" type="curve" smooth="yes"/>
      <point x="24.675" y="57.1875"/>
      <point x="89.675" y="-10.0"/>
    </contour>
  </outline>
</glyph>
<glyph name="D" format="2">
  <advance width="427.1625"/>
  <unicode hex="0044"/>
  <anchor x="160.38749999999996" y="0.0" name="bottom"/>
  <anchor x="223.35008749999997" y="350.0" name="center"/>
  <anchor x="254.48749999999998" y="700.0" name="top"/>
  <outline>
    <contour>
      <point x="140.6625" y="-10.0" type="curve" smooth="yes"/>
      <point x="322.3" y="-10.0"/>
      <point x="422.5625" y="187.57499999999996"/>
      <point x="422.5625" y="465.8625" type="curve" smooth="yes"/>
      <point x="422.5625" y="637.8375"/>
      <point x="357.6000000000001" y="710.0"/>
      <point x="230.20000000000002" y="710.0" type="curve" smooth="yes"/>
      <point x="189.6" y="710.0"/>
      <point x="152.8625" y="707.675"/>
      <point x="105.63750000000002" y="701.7375" type="curve"/>
      <point x="-5.5375000000000005" y="0.11250000000000066" type="line"/>
      <point x="39.75" y="-6.575"/>
      <point x="84.58749999999999" y="-10.0"/>
    </contour>
    <contour>
      <point x="154.9125" y="82.525" type="curve" smooth="yes"/>
      <point x="138.3125" y="82.525"/>
      <point x="127.43750000000001" y="83.775"/>
      <point x="113.0125" y="85.3375" type="curve"/>
      <point x="196.45000000000002" y="609.7375" type="line"/>
      <point x="208.23749999999998" y="610.9625000000001"/>
      <point x="221.26250000000002" y="611.85"/>
      <point x="235.26250000000002" y="611.85" type="curve" smooth="yes"/>
      <point x="288.5125" y="611.85"/>
      <point x="316.8" y="571.0"/>
      <point x="316.8" y="465.2125000000001" type="curve" smooth="yes"/>
      <point x="316.8" y="270.8375"/>
      <point x="245.3375" y="82.525"/>
    </contour>
  </outline>
</glyph>
<glyph name="E" format="2">
  <advance width="351.9575"/>
  <unicode hex="0045"/>
  <anchor x="145.87" y="0.0" name="bottom"/>
  <anchor x="293.485" y="0.0" name="ogonek"/>
  <anchor x="251.795" y="700.0" name="top"/>
  <anchor x="87.5869375" y="700.0" name="topleft"/>
  <outline>
    <contour>
      <point x="-5.210000000000001" y="0.0" type="line"/>
      <point x="293.485" y="0.0" type="line"/>
      <point x="309.34999999999997" y="99.1825" type="line"/>
      <point x="115.15" y="99.1825" type="line"/>
      <point x="147.79749999999999" y="308.07" type="line"/>
      <point x="311.6375" y="308.07" type="line"/>
      <point x="327.6875" y="402.72749999999996" type="line"/>
      <point x="163.19499999999996" y="402.72749999999996" type="line"/>
      <point x="194.155" y="598.6800000000001" type="line"/>
      <point x="377.365" y="598.6800000000001" type="line"/>
      <point x="394.4225" y="700.0" type="line"/>
      <point x="105.06500000000001" y="700.0" type="line"/>
    </contour>
  </outline>
</glyph>
<glyph name="F" format="2">
  <advance width="336.665"/>
  <unicode hex="0046"/>
  <outline>
    <contour>
      <point x="-5.525" y="0.0" type="line"/>
      <point x="99.265" y="0.0" type="line"/>
      <point x="143.06" y="272.57" type="line"/>
      <point x="293.94000000000005" y="272.57" type="line"/>
      <point x="310.08500000000004" y="374.3" type="line"/>
      <point x="158.79999999999998" y="374.3" type="line"/>
      <point x="194.14" y="598.17" type="line"/>
      <point x="376.075" y="598.17" type="line"/>
      <point x="392.915" y="700.0" type="line"/>
      <point x="105.29" y="700.0" type="line"/>
    </contour>
  </outline>
</glyph>
<glyph name="G" format="2">
  <advance width="398.25"/>
  <unicode hex="0047"/>
  <anchor x="200.47500000000002" y="0.0" name="bottom"/>
  <anchor x="298.64500000000004" y="700.0" name="top"/>
  <outline>
    <contour>
      <point x="206.32000000000002" y="-10.0" type="curve" smooth="yes"/>
      <point x="251.49" y="-10.0"/>
      <point x="299.22999999999996" y="-0.6049999999999994"/>
      <point x="330.47" y="19.165000000000003" type="curve"/>
      <point x="387.79" y="380.165" type="line"/>
      <point x="223.505" y="380.165" type="line"/>
      <point x="209.615" y="291.7" type="line"/>
      <point x="280.155" y="291.7" type="line"/>
      <point x="247.96500000000003" y="89.9" type="line"/>
      <point x="239.10000000000002" y="86.02000000000001"/>
      <point x="223.165" y="83.635"/>
      <point x="207.77" y="83.635" type="curve" smooth="yes"/>
      <point x="155.25" y="83.635"/>
      <point x="126.76000000000002" y="116.28500000000001"/>
      <point x="126.76000000000002" y="210.78000000000003" type="curve" smooth="yes"/>
      <point x="126.76000000000002" y="421.40500000000003"/>
      <point x="193.265" y="610.975"/>
      <point x="301.99" y="610.975" type="curve" smooth="yes"/>
      <point x="336.275" y="610.975"/>
      <point x="364.25500000000005" y="602.52"/>
      <point x="390.805" y="594.15" type="curve"/>
      <point x="423.44500000000005" y="687.18" type="line"/>
      <point x="387.69500000000005" y="702.6999999999999"/>
      <point x="344.495" y="710.0"/>
      <point x="300.08500000000004" y="710.0" type="curve" smooth="yes"/>
      <point x="109.405" y="710.0"/>
      <point x="23.665" y="455.65999999999997"/>
      <point x="23.665" y="204.375" type="curve" smooth="yes"/>
      <point x="23.665" y="59.85"/>
      <point x="90.49" y="-10.0"/>
    </contour>
  </outline>
</glyph>
<glyph name="H" format="2">
  <advance width="429.66"/>
  <unicode hex="0048"/>
  <anchor x="171.31918" y="0.0" name="bottom"/>
  <anchor x="226.983005" y="350.0" name="center"/>
  <anchor x="282.241235" y="700.0" name="top"/>
  <anchor x="86.376235" y="700.0" name="topleft"/>
  <outline>
    <contour>
      <point x="-5.57" y="0.0" type="line"/>
      <point x="100.075" y="0.0" type="line"/>
      <point x="141.455" y="263.06" type="line"/>
      <point x="284.15999999999997" y="263.06" type="line"/>
      <point x="243.16499999999996" y="0.0" type="line"/>
      <point x="347.415" y="0.0" type="line"/>
      <point x="458.635" y="700.0" type="line"/>
      <point x="353.94499999999994" y="700.0" type="line"/>
      <point x="299.92" y="361.03999999999996" type="line"/>
      <point x="156.81000000000003" y="361.03999999999996" type="line"/>
      <point x="210.89000000000004" y="700.0" type="line"/>
      <point x="105.245" y="700.0" type="line"/>
    </contour>
  </outline>
</glyph>
<glyph name="I" format="2">
  <advance width="181.915"/>
  <unicode hex="0049"/>
  <anchor x="47.21976000000001" y="0.0" name="bottom"/>
  <anchor x="101.16886000000001" y="4.95" name="ogonek"/>
  <anchor x="158.14901999999998" y="700.0" name="top"/>
  <anchor x="87.694935" y="700.0" name="topleft"/>
  <outline>
    <contour>
      <point x="-5.57" y="0.0" type="line"/>
      <point x="99.67000000000002" y="0.0" type="line"/>
      <point x="210.89000000000004" y="700.0" type="line"/>
      <point x="105.245" y="700.0" type="line"/>
    </contour>
  </outline>
</glyph>
<glyph name="J" format="2">
  <advance width="301.48999999999995"/>
  <unicode hex="004A"/>
  <anchor x="87.26478" y="0.0" name="bottom"/>
  <anchor x="219.16" y="700.0" name="top"/>
  <outline>
    <contour>
      <point x="-36.315000000000005" y="14.6" type="line"/>
      <point x="-6.100000000000001" y="0.7500000000000011"/>
      <point x="29.265" y="-10.0"/>
      <point x="76.14500000000001" y="-10.0" type="curve" smooth="yes"/>
      <point x="176.435" y="-10.0"/>
      <point x="231.13500000000002" y="55.160000000000004"/>
      <point x="249.64" y="169.46999999999997" type="curve" smooth="yes"/>
      <point x="334.01" y="700.0" type="line"/>
      <point x="100.56" y="700.0" type="line"/>
      <point x="85.18499999999999" y="604.385" type="line"/>
      <point x="213.39499999999998" y="604.385" type="line"/>
      <point x="149.835" y="206.205" type="line" smooth="yes"/>
      <point x="136.32999999999998" y="122.055"/>
      <point x="107.275" y="97.99000000000001"/>
      <point x="57.73" y="97.99000000000001" type="curve" smooth="yes"/>
      <point x="37.375" y="97.99000000000001"/>
      <point x="14.110000000000001" y="103.91000000000001"/>
      <point x="-7.004999999999999" y="110.995" type="curve"/>
    </contour>
  </outline>
</glyph>
<glyph name="K" format="2">
  <advance width="411.36000000000007"/>
  <unicode hex="004B"/>
  <anchor x="179.75000000000003" y="0.0" name="bottom"/>
  <anchor x="271.31" y="700.0" name="top"/>
  <outline>
    <contour>
      <point x="-6.08" y="0.0" type="line"/>
      <point x="99.77" y="0.0" type="line"/>
      <point x="210.73999999999998" y="700.0" type="line"/>
      <point x="105.4" y="700.0" type="line"/>
    </contour>
    <contour>
      <point x="325.46" y="-9.9" type="curve" smooth="yes"/>
      <point x="338.57000000000005" y="-9.9"/>
      <point x="358.46" y="-5.079999999999999"/>
      <point x="365.62000000000006" y="-1.3199999999999996" type="curve"/>
      <point x="376.70000000000005" y="120.54000000000002" type="line"/>
      <point x="373.02000000000004" y="120.68000000000002"/>
      <point x="368.78000000000003" y="119.77000000000002"/>
      <point x="364.45000000000005" y="119.77000000000002" type="curve" smooth="yes"/>
      <point x="343.18000000000006" y="119.77000000000002"/>
      <point x="319.57000000000005" y="131.36000000000004"/>
      <point x="291.8" y="188.81" type="curve" smooth="yes"/>
      <point x="158.57" y="465.69" type="line"/>
      <point x="129.46999999999997" y="302.94000000000005" type="line"/>
      <point x="236.53" y="74.42999999999999" type="line" smooth="yes"/>
      <point x="264.94" y="10.760000000000002"/>
      <point x="286.97999999999996" y="-9.9"/>
    </contour>
    <contour>
      <point x="221.53" y="281.86" type="line"/>
      <point x="312.22" y="373.63"/>
      <point x="409.49" y="510.84000000000003"/>
      <point x="458.84" y="674.1400000000001" type="curve"/>
      <point x="373.11" y="705.59" type="line"/>
      <point x="320.32" y="556.48"/>
      <point x="242.01" y="434.0400000000001"/>
      <point x="179.46" y="369.51" type="curve"/>
    </contour>
  </outline>
</glyph>
<glyph name="L" format="2">
  <advance width="324.62000000000006"/>
  <unicode hex="004C"/>
  <anchor x="138.92" y="0.0" name="bottom"/>
  <anchor x="169.603005" y="350.0" name="center"/>
  <anchor x="157.64" y="700.0" name="top"/>
  <anchor x="278.955" y="700.0" name="topright"/>
  <outline>
    <contour>
      <point x="-5.9750000000000005" y="0.0" type="line"/>
      <point x="270.495" y="0.0" type="line"/>
      <point x="286.42" y="99.135" type="line"/>
      <point x="115.08" y="99.135" type="line"/>
      <point x="210.485" y="700.0" type="line"/>
      <point x="105.245" y="700.0" type="line"/>
    </contour>
  </outline>
</glyph>
<glyph name="M" format="2">
  <advance width="495.22999999999996"/>
  <unicode hex="004D"/>
  <outline>
    <contour>
      <point x="-5.720000000000001" y="0.0" type="line"/>
      <point x="90.69500000000001" y="0.0" type="line"/>
      <point x="169.05" y="503.62" type="line"/>
      <point x="206.995" y="194.56999999999996" type="line"/>
      <point x="259.2" y="194.56999999999996" type="line"/>
      <point x="396.685" y="501.985" type="line"/>
      <point x="316.435" y="0.0" type="line"/>
      <point x="412.98499999999996" y="0.0" type="line"/>
      <point x="524.2049999999999" y="700.0" type="line"/>
      <point x="406.94" y="700.0" type="line"/>
      <point x="257.9" y="363.335" type="line"/>
      <point x="214.69500000000002" y="700.0" type="line"/>
      <point x="105.245" y="700.0" type="line"/>
    </contour>
  </outline>
</glyph>
<glyph name="N" format="2">
  <advance width="432.875"/>
  <unicode hex="004E"/>
  <anchor x="178.875" y="0.0" name="bottom"/>
  <anchor x="283.95" y="700.0" name="top"/>
  <outline>
    <contour>
      <point x="-5.525" y="0.0" type="line"/>
      <point x="89.35" y="0.0" type="line"/>
      <point x="162.5375" y="460.775" type="line"/>
      <point x="246.25" y="-0.44999999999999996" type="line"/>
      <point x="350.575" y="-0.44999999999999996" type="line"/>
      <point x="461.85" y="700.0" type="line"/>
      <point x="366.95" y="700.0" type="line"/>
      <point x="290.6625" y="222.75" type="line"/>
      <point x="210.6375" y="700.45" type="line"/>
      <point x="105.4125" y="700.45" type="line"/>
    </contour>
  </outline>
</glyph>
<glyph name="O" format="2">
  <advance width="437.9750000000001"/>
  <unicode hex="004F"/>
  <note>
8
</note>
  <anchor x="176.35000000000002" y="0.0" name="bottom"/>
  <anchor x="231.57500000000002" y="350.0" name="center"/>
  <anchor x="237.70000000000005" y="1.825" name="ogonek"/>
  <anchor x="287.3" y="700.0" name="top"/>
  <anchor x="89.22500000000001" y="700.0" name="topleft"/>
  <anchor x="375.75" y="697.1750000000001" name="topright"/>
  <outline>
    <contour>
      <point x="183.77499999999998" y="-9.225" type="curve" smooth="yes"/>
      <point x="370.375" y="-9.225"/>
      <point x="438.325" y="302.84999999999997"/>
      <point x="438.59999999999997" y="505.47499999999997" type="curve" smooth="yes"/>
      <point x="438.8" y="648.7249999999999"/>
      <point x="384.32500000000005" y="709.225"/>
      <point x="278.19999999999993" y="709.225" type="curve" smooth="yes"/>
      <point x="91.6" y="709.225"/>
      <point x="23.65" y="397.15000000000003"/>
      <point x="23.374999999999996" y="194.525" type="curve" smooth="yes"/>
      <point x="23.174999999999997" y="51.275000000000006"/>
      <point x="77.65" y="-9.225"/>
    </contour>
    <contour>
      <point x="192.975" y="94.025" type="curve" smooth="yes"/>
      <point x="153.15" y="94.025"/>
      <point x="130.375" y="116.00000000000001"/>
      <point x="130.375" y="190.65" type="curve" smooth="yes"/>
      <point x="130.375" y="314.55"/>
      <point x="179.95000000000002" y="605.975"/>
      <point x="269.22499999999997" y="605.975" type="curve" smooth="yes"/>
      <point x="308.825" y="605.975"/>
      <point x="331.6" y="583.975"/>
      <point x="331.6" y="509.325" type="curve" smooth="yes"/>
      <point x="331.6" y="385.425"/>
      <point x="282.02500000000003" y="94.025"/>
    </contour>
  </outline>
</glyph>
<glyph name="P" format="2">
  <advance width="402.3625"/>
  <unicode hex="0050"/>
  <outline>
    <contour>
      <point x="-5.112500000000001" y="0.0" type="line"/>
      <point x="99.9625" y="0.0" type="line"/>
      <point x="134.8" y="217.625" type="line"/>
      <point x="159.95" y="214.86249999999998"/>
      <point x="170.38750000000002" y="214.75"/>
      <point x="202.3625" y="214.75" type="curve" smooth="yes"/>
      <point x="337.25" y="214.75"/>
      <point x="421.7875" y="347.3125"/>
      <point x="421.90000000000003" y="539.6750000000001" type="curve" smooth="yes"/>
      <point x="421.90000000000003" y="656.9124999999999"/>
      <point x="372.25" y="710.0"/>
      <point x="256.675" y="710.0" type="curve" smooth="yes"/>
      <point x="221.5625" y="710.0"/>
      <point x="166.4875" y="707.45"/>
      <point x="106.1625" y="702.5375" type="curve"/>
    </contour>
    <contour>
      <point x="197.1625" y="609.775" type="line"/>
      <point x="217.525" y="612.3375000000001"/>
      <point x="229.65" y="613.45"/>
      <point x="245.70000000000002" y="613.45" type="curve" smooth="yes"/>
      <point x="297.59999999999997" y="613.45"/>
      <point x="317.925" y="588.1875"/>
      <point x="317.925" y="522.4124999999999" type="curve" smooth="yes"/>
      <point x="317.925" y="412.5"/>
      <point x="270.95" y="311.4375"/>
      <point x="197.0625" y="311.4375" type="curve" smooth="yes"/>
      <point x="182.025" y="311.4375"/>
      <point x="168.875" y="312.1375"/>
      <point x="149.90000000000003" y="313.8" type="curve"/>
    </contour>
  </outline>
</glyph>
<glyph name="Q" format="2">
  <advance width="437.08500000000004"/>
  <unicode hex="0051"/>
  <note>
14
</note>
  <outline>
    <contour>
      <point x="302.91" y="-174.155" type="curve" smooth="yes"/>
      <point x="321.94499999999994" y="-174.155"/>
      <point x="341.99999999999994" y="-171.655"/>
      <point x="360.27" y="-165.25" type="curve"/>
      <point x="368.19" y="-72.955" type="line"/>
      <point x="355.9" y="-77.595"/>
      <point x="340.92500000000007" y="-80.045"/>
      <point x="325.785" y="-80.045" type="curve" smooth="yes"/>
      <point x="281.265" y="-80.045"/>
      <point x="246.37" y="-57.334999999999994"/>
      <point x="243.34" y="11.930000000000001" type="curve"/>
      <point x="156.60999999999999" y="8.855000000000002" type="line"/>
      <point x="158.66" y="-131.54"/>
      <point x="231.385" y="-174.155"/>
    </contour>
    <component base="O"/>
  </outline>
</glyph>
<glyph name="R" format="2">
  <advance width="413.3500000000001"/>
  <unicode hex="0052"/>
  <anchor x="180.12500000000003" y="0.0" name="bottom"/>
  <anchor x="249.3" y="700.0" name="top"/>
  <outline>
    <contour>
      <point x="-5.9750000000000005" y="0.0" type="line"/>
      <point x="99.8" y="0.0" type="line"/>
      <point x="139.25000000000003" y="249.89999999999998" type="line"/>
      <point x="155.3" y="249.67499999999998"/>
      <point x="171.475" y="249.0"/>
      <point x="205.29999999999998" y="248.75" type="curve"/>
      <point x="210.87499999999997" y="252.74999999999997" type="line"/>
      <point x="331.85" y="252.97499999999997"/>
      <point x="422.95000000000005" y="365.125"/>
      <point x="422.95000000000005" y="533.7250000000001" type="curve" smooth="yes"/>
      <point x="422.95000000000005" y="648.9749999999999"/>
      <point x="366.40000000000003" y="710.0"/>
      <point x="250.6" y="710.0" type="curve" smooth="yes"/>
      <point x="201.875" y="710.0"/>
      <point x="158.075" y="706.825"/>
      <point x="105.97499999999998" y="701.475" type="curve"/>
    </contour>
    <contour>
      <point x="325.95" y="-10.0" type="curve" smooth="yes"/>
      <point x="335.99999999999994" y="-10.0"/>
      <point x="357.225" y="-6.175"/>
      <point x="364.70000000000005" y="-2.1499999999999995" type="curve"/>
      <point x="374.90000000000003" y="107.95" type="line"/>
      <point x="370.725" y="107.02500000000002"/>
      <point x="366.925" y="107.02500000000002"/>
      <point x="364.30000000000007" y="107.02500000000002" type="curve" smooth="yes"/>
      <point x="332.2" y="107.02500000000002"/>
      <point x="307.22499999999997" y="137.07500000000002"/>
      <point x="275.025" y="299.675" type="curve"/>
      <point x="182.92499999999998" y="274.55000000000007" type="line"/>
      <point x="237.025" y="16.375"/>
      <point x="268.90000000000003" y="-10.0"/>
    </contour>
    <contour>
      <point x="202.525" y="341.72499999999997" type="curve" smooth="yes"/>
      <point x="183.225" y="341.72499999999997"/>
      <point x="167.97500000000002" y="342.7249999999999"/>
      <point x="153.675" y="344.2249999999999" type="curve"/>
      <point x="197.2" y="611.6500000000001" type="line"/>
      <point x="218.4" y="614.5500000000001"/>
      <point x="229.95000000000002" y="615.5500000000001"/>
      <point x="247.29999999999998" y="615.5500000000001" type="curve" smooth="yes"/>
      <point x="298.62500000000006" y="615.5500000000001"/>
      <point x="316.525" y="585.425"/>
      <point x="316.525" y="531.95" type="curve" smooth="yes"/>
      <point x="316.525" y="416.525"/>
      <point x="267.22499999999997" y="341.72499999999997"/>
    </contour>
  </outline>
</glyph>
<glyph name="S" format="2">
  <advance width="372.56250000000006"/>
  <unicode hex="0053"/>
  <anchor x="144.21249999999998" y="0.0" name="bottom"/>
  <anchor x="262.0125" y="700.0" name="top"/>
  <outline>
    <contour>
      <point x="394.47499999999997" y="681.925" type="line"/>
      <point x="360.9625" y="699.025"/>
      <point x="316.53749999999997" y="710.0"/>
      <point x="265.3" y="710.0" type="curve" smooth="yes"/>
      <point x="138.4125" y="710.0"/>
      <point x="57.9375" y="630.9"/>
      <point x="57.9375" y="503.575" type="curve" smooth="yes"/>
      <point x="57.9375" y="339.53749999999997"/>
      <point x="233.83749999999998" y="292.225"/>
      <point x="233.8375" y="186.6125" type="curve" smooth="yes"/>
      <point x="233.8375" y="129.925"/>
      <point x="196.75" y="88.5"/>
      <point x="132.58749999999998" y="88.5" type="curve" smooth="yes"/>
      <point x="90.61250000000001" y="88.5"/>
      <point x="53.825" y="97.3125"/>
      <point x="10.2375" y="115.5375" type="curve"/>
      <point x="-24.5875" y="23.700000000000003" type="line"/>
      <point x="14.9625" y="1.6750000000000003"/>
      <point x="70.075" y="-10.0"/>
      <point x="131.16249999999997" y="-10.0" type="curve" smooth="yes"/>
      <point x="259.8625" y="-10.0"/>
      <point x="340.71250000000003" y="73.5375"/>
      <point x="340.71250000000003" y="193.67499999999998" type="curve" smooth="yes"/>
      <point x="340.93750000000006" y="356.65000000000003"/>
      <point x="167.3375" y="407.375"/>
      <point x="167.3375" y="510.65" type="curve" smooth="yes"/>
      <point x="167.3375" y="575.1374999999999"/>
      <point x="206.89999999999998" y="611.525"/>
      <point x="266.7125" y="611.525" type="curve" smooth="yes"/>
      <point x="300.4625" y="611.525"/>
      <point x="331.56250000000006" y="605.925"/>
      <point x="361.325" y="592.5" type="curve"/>
    </contour>
  </outline>
</glyph>
<glyph name="T" format="2">
  <advance width="358.15999999999997"/>
  <unicode hex="0054"/>
  <anchor x="135.29978" y="0.0" name="bottom"/>
  <anchor x="191.01465999999996" y="350.0" name="center"/>
  <anchor x="246.24902000000003" y="700.0" name="top"/>
  <outline>
    <contour>
      <point x="402.12" y="604.66" type="line"/>
      <point x="417.99000000000007" y="700.0" type="line"/>
      <point x="75.05" y="700.0" type="line"/>
      <point x="59.12499999999999" y="604.66" type="line"/>
      <point x="178.125" y="604.66" type="line"/>
      <point x="82.225" y="0.0" type="line"/>
      <point x="187.465" y="0.0" type="line"/>
      <point x="283.31" y="604.66" type="line"/>
    </contour>
  </outline>
</glyph>
<glyph name="U" format="2">
  <advance width="420.22"/>
  <unicode hex="0055"/>
  <anchor x="166.4042" y="0.0" name="bottom"/>
  <anchor x="222.51" y="0.0" name="ogonek"/>
  <anchor x="276.34215" y="700.0" name="top"/>
  <anchor x="437.78" y="700.0" name="topright"/>
  <outline>
    <contour>
      <point x="163.005" y="-10.0" type="curve" smooth="yes"/>
      <point x="284.065" y="-10.0"/>
      <point x="348.90500000000003" y="50.550000000000004"/>
      <point x="370.53" y="184.81" type="curve" smooth="yes"/>
      <point x="452.74" y="700.0" type="line"/>
      <point x="347.48" y="700.0" type="line"/>
      <point x="263.02500000000003" y="167.76" type="line" smooth="yes"/>
      <point x="254.805" y="112.89999999999999"/>
      <point x="228.235" y="86.22"/>
      <point x="180.62" y="86.22" type="curve" smooth="yes"/>
      <point x="135.235" y="86.22"/>
      <point x="113.75" y="113.0"/>
      <point x="121.665" y="159.79500000000002" type="curve" smooth="yes"/>
      <point x="207.04000000000002" y="700.0" type="line"/>
      <point x="102.185" y="700.0" type="line"/>
      <point x="19.21" y="175.135" type="line" smooth="yes"/>
      <point x="15.524999999999999" y="152.435"/>
      <point x="14.435" y="140.71"/>
      <point x="14.435" y="124.81" type="curve" smooth="yes"/>
      <point x="14.435" y="35.24"/>
      <point x="64.66499999999999" y="-10.0"/>
    </contour>
  </outline>
</glyph>
<glyph name="V" format="2">
  <advance width="406.58250000000004"/>
  <unicode hex="0056"/>
  <outline>
    <contour>
      <point x="223.0575" y="0.0" type="line"/>
      <point x="391.6875" y="390.6325"/>
      <point x="440.6375" y="521.4749999999999"/>
      <point x="455.9" y="670.25" type="curve" smooth="yes"/>
      <point x="456.45" y="680.6574999999999"/>
      <point x="456.55" y="689.345"/>
      <point x="455.3825" y="700.0" type="curve"/>
      <point x="340.4825" y="700.0" type="line"/>
      <point x="341.3375" y="691.3125"/>
      <point x="341.96999999999997" y="684.1075"/>
      <point x="341.96999999999997" y="676.2875" type="curve" smooth="yes"/>
      <point x="336.6075" y="547.55"/>
      <point x="293.185" y="430.6975"/>
      <point x="178.09000000000003" y="115.05000000000001" type="curve"/>
      <point x="189.90000000000003" y="700.495" type="line"/>
      <point x="69.77499999999999" y="700.1125" type="line"/>
      <point x="85.97" y="0.0" type="line"/>
    </contour>
  </outline>
</glyph>
<glyph name="W" format="2">
  <advance width="611.5500000000001"/>
  <unicode hex="0057"/>
  <anchor x="258.5" y="0.0" name="bottom"/>
  <anchor x="375.225" y="700.0" name="top"/>
  <outline>
    <contour>
      <point x="451.175" y="-0.6749999999999999" type="line"/>
      <point x="617.625" y="457.35"/>
      <point x="656.0500000000001" y="582.4999999999999"/>
      <point x="660.0" y="674.375" type="curve" smooth="yes"/>
      <point x="660.0" y="683.4250000000001"/>
      <point x="660.0" y="691.175"/>
      <point x="658.45" y="700.0" type="curve"/>
      <point x="548.675" y="700.0" type="line"/>
      <point x="549.5749999999999" y="691.6250000000001"/>
      <point x="550.25" y="684.225"/>
      <point x="550.25" y="676.3249999999999" type="curve" smooth="yes"/>
      <point x="546.175" y="559.0"/>
      <point x="518.825" y="479.05"/>
      <point x="403.47499999999997" y="132.65" type="curve"/>
      <point x="424.02500000000003" y="644.025" type="line"/>
      <point x="311.77500000000003" y="644.025" type="line"/>
      <point x="268.40000000000003" y="477.9"/>
      <point x="212.54999999999998" y="284.45000000000005"/>
      <point x="162.6" y="136.875" type="curve"/>
      <point x="183.8" y="700.0" type="line"/>
      <point x="71.15" y="700.0" type="line"/>
      <point x="66.97500000000001" y="-0.6749999999999999" type="line"/>
      <point x="187.25" y="-0.6749999999999999" type="line"/>
      <point x="247.875" y="169.49999999999997"/>
      <point x="298.8" y="323.175"/>
      <point x="339.15" y="462.075" type="curve"/>
      <point x="324.84999999999997" y="-0.6749999999999999" type="line"/>
    </contour>
  </outline>
</glyph>
<glyph name="X" format="2">
  <advance width="417.35"/>
  <unicode hex="0058"/>
  <outline>
    <contour>
      <point x="265.175" y="-2.7249999999999996" type="line"/>
      <point x="377.75" y="-0.3999999999999999" type="line"/>
      <point x="289.40000000000003" y="331.35" type="line"/>
      <point x="374.425" y="483.40000000000003"/>
      <point x="450.37500000000006" y="605.1500000000001"/>
      <point x="456.67500000000007" y="700.05" type="curve"/>
      <point x="344.75" y="700.575" type="line"/>
      <point x="342.175" y="614.475"/>
      <point x="293.575" y="525.875"/>
      <point x="239.95" y="428.40000000000003" type="curve"/>
      <point x="178.85" y="703.625" type="line"/>
      <point x="70.425" y="701.3" type="line"/>
      <point x="152.05" y="371.04999999999995" type="line"/>
      <point x="66.3" y="230.35"/>
      <point x="-18.049999999999997" y="106.52499999999999"/>
      <point x="-18.65" y="0.0" type="curve"/>
      <point x="95.30000000000001" y="0.0" type="line"/>
      <point x="95.9" y="87.74999999999999"/>
      <point x="140.625" y="169.125"/>
      <point x="200.3" y="275.8" type="curve"/>
    </contour>
  </outline>
</glyph>
<glyph name="Y" format="2">
  <advance width="391.74"/>
  <unicode hex="0059"/>
  <anchor x="152.08999999999997" y="0.0" name="bottom"/>
  <anchor x="263.85499999999996" y="700.0" name="top"/>
  <anchor x="90.855" y="700.0" name="topleft"/>
  <outline>
    <contour>
      <point x="97.66" y="0.0" type="line"/>
      <point x="201.15" y="0.0" type="line"/>
      <point x="243.065" y="256.465" type="line"/>
      <point x="339.075" y="395.59000000000003"/>
      <point x="400.99499999999995" y="516.7950000000001"/>
      <point x="445.14500000000004" y="663.5849999999999" type="curve" smooth="yes"/>
      <point x="448.175" y="675.64"/>
      <point x="451.695" y="688.45"/>
      <point x="454.56999999999994" y="700.755" type="curve"/>
      <point x="335.34" y="702.5749999999999" type="line"/>
      <point x="333.565" y="691.13"/>
      <point x="331.385" y="679.44"/>
      <point x="328.96" y="668.005" type="curve" smooth="yes"/>
      <point x="304.34" y="556.91"/>
      <point x="269.805" y="459.40000000000003"/>
      <point x="208.62" y="358.11" type="curve"/>
      <point x="189.495" y="701.9699999999999" type="line"/>
      <point x="68.85000000000001" y="700.215" type="line"/>
      <point x="138.715" y="256.465" type="line"/>
    </contour>
  </outline>
</glyph>
<glyph name="Z" format="2">
  <advance width="368.875"/>
  <unicode hex="005A"/>
  <anchor x="142.625" y="0.0" name="bottom"/>
  <anchor x="195.025" y="350.0" name="center"/>
  <anchor x="251.72499999999997" y="700.0" name="top"/>
  <outline>
    <contour>
      <point x="-29.6" y="0.0" type="line"/>
      <point x="312.2" y="0.0" type="line"/>
      <point x="328.59999999999997" y="96.74999999999999" type="line"/>
      <point x="97.4" y="96.74999999999999" type="line"/>
      <point x="400.475" y="601.9499999999999" type="line"/>
      <point x="415.95" y="700.0" type="line"/>
      <point x="96.47500000000001" y="700.0" type="line"/>
      <point x="80.75" y="603.2499999999999" type="line"/>
      <point x="289.62499999999994" y="603.2499999999999" type="line"/>
      <point x="-14.225" y="95.775" type="line"/>
    </contour>
  </outline>
</glyph>
<glyph name="bracketleft" format="2">
  <advance width="232.115"/>
  <unicode hex="005B"/>
  <outline>
    <contour>
      <point x="63.11000000000001" y="-119.95" type="line"/>
      <point x="186.88" y="649.995" type="line"/>
      <point x="281.105" y="649.995" type="line"/>
      <point x="296.20500000000004" y="740.0" type="line"/>
      <point x="115.805" y="740.0" type="line"/>
      <point x="-37.705000000000005" y="-210.0" type="line"/>
      <point x="141.74" y="-210.0" type="line"/>
      <point x="157.33499999999998" y="-119.95" type="line"/>
    </contour>
  </outline>
</glyph>
<glyph name="backslash" format="2">
  <advance width="321.88"/>
  <unicode hex="005C"/>
  <outline>
    <contour>
      <point x="159.88" y="740.0" type="line"/>
      <point x="73.645" y="740.0" type="line"/>
      <point x="198.715" y="-210.0" type="line"/>
      <point x="284.45500000000004" y="-210.0" type="line"/>
    </contour>
  </outline>
</glyph>
<glyph name="bracketright" format="2">
  <advance width="232.115"/>
  <unicode hex="005D"/>
  <outline>
    <contour>
      <point x="-51.53999999999999" y="-119.95" type="line"/>
      <point x="-66.585" y="-210.0" type="line"/>
      <point x="112.41" y="-210.0" type="line"/>
      <point x="266.875" y="740.0" type="line"/>
      <point x="86.88" y="740.0" type="line"/>
      <point x="71.28500000000001" y="649.95" type="line"/>
      <point x="165.51000000000002" y="649.95" type="line"/>
      <point x="41.245" y="-119.95" type="line"/>
    </contour>
  </outline>
</glyph>
<glyph name="asciicircum" format="2">
  <advance width="392.94"/>
  <unicode hex="005E"/>
  <outline>
    <contour>
      <point x="40.845" y="256.31499999999994" type="line"/>
      <point x="116.97" y="256.31499999999994" type="line"/>
      <point x="245.67" y="590.13" type="line"/>
      <point x="271.09499999999997" y="256.31499999999994" type="line"/>
      <point x="346.635" y="256.31499999999994" type="line"/>
      <point x="309.61" y="704.5" type="line"/>
      <point x="213.635" y="704.5" type="line"/>
    </contour>
  </outline>
</glyph>
<glyph name="underscore" format="2">
  <advance width="594.04"/>
  <unicode hex="005F"/>
  <outline>
    <contour>
      <point x="-69.465" y="-176.205" type="line"/>
      <point x="519.315" y="-176.205" type="line"/>
      <point x="536.505" y="-74.895" type="line"/>
      <point x="-52.275" y="-74.895" type="line"/>
    </contour>
  </outline>
</glyph>
<glyph name="a" format="2">
  <advance width="386.0"/>
  <unicode hex="0061"/>
  <note>
15
</note>
  <anchor x="155.6625" y="0.0" name="bottom"/>
  <anchor x="349.1" y="7.150000000000001" name="ogonek"/>
  <anchor x="239.25" y="541.0" name="top"/>
  <outline>
    <contour>
      <point x="284.09999999999997" y="-10.0" type="curve" smooth="yes"/>
      <point x="307.95" y="-10.0"/>
      <point x="333.63749999999993" y="-2.95"/>
      <point x="349.07500000000005" y="7.150000000000001" type="curve"/>
      <point x="357.9125" y="95.325" type="line"/>
      <point x="350.725" y="92.525"/>
      <point x="344.08750000000003" y="91.28750000000002"/>
      <point x="337.98749999999995" y="91.28750000000002" type="curve" smooth="yes"/>
      <point x="324.8875" y="91.28750000000002"/>
      <point x="320.38749999999993" y="98.0125"/>
      <point x="320.38749999999993" y="112.31250000000001" type="curve" smooth="yes"/>
      <point x="320.38749999999993" y="119.07500000000002"/>
      <point x="325.82500000000005" y="152.01250000000002"/>
      <point x="384.975" y="522.35" type="curve"/>
      <point x="348.06249999999994" y="538.3375000000001"/>
      <point x="298.36249999999995" y="551.0"/>
      <point x="248.47500000000002" y="551.0" type="curve" smooth="yes"/>
      <point x="105.63749999999999" y="551.0"/>
      <point x="13.574999999999998" y="403.63750000000005"/>
      <point x="13.574999999999998" y="153.0625" type="curve" smooth="yes"/>
      <point x="13.574999999999998" y="47.800000000000004"/>
      <point x="53.9625" y="-10.0"/>
      <point x="121.825" y="-10.0" type="curve" smooth="yes"/>
      <point x="159.63750000000002" y="-10.0"/>
      <point x="190.00000000000003" y="4.15"/>
      <point x="215.9" y="29.287499999999998" type="curve"/>
      <point x="229.1125" y="3.0749999999999997"/>
      <point x="251.175" y="-10.0"/>
    </contour>
    <contour>
      <point x="214.3625" y="106.56250000000001" type="line"/>
      <point x="201.1125" y="97.4625"/>
      <point x="183.26250000000002" y="91.275"/>
      <point x="167.14999999999998" y="91.275" type="curve" smooth="yes"/>
      <point x="139.8" y="91.275"/>
      <point x="122.8375" y="117.375"/>
      <point x="122.8375" y="168.7625" type="curve" smooth="yes"/>
      <point x="122.8375" y="333.70000000000005"/>
      <point x="174.025" y="456.47499999999997"/>
      <point x="236.4625" y="456.47499999999997" type="curve" smooth="yes"/>
      <point x="248.66250000000002" y="456.47499999999997"/>
      <point x="259.275" y="454.53749999999997"/>
      <point x="268.4" y="449.72499999999997" type="curve"/>
    </contour>
  </outline>
</glyph>
<glyph name="b" format="2">
  <advance width="381.905"/>
  <unicode hex="0062"/>
  <note>
12
</note>
  <outline>
    <contour>
      <point x="215.6525" y="740.0" type="line"/>
      <point x="111.265" y="740.0" type="line"/>
      <point x="-3.545000000000001" y="13.29" type="line"/>
      <point x="27.307499999999997" y="1.2325000000000006"/>
      <point x="69.55749999999999" y="-10.0"/>
      <point x="126.25750000000001" y="-10.0" type="curve" smooth="yes"/>
      <point x="293.4725000000001" y="-10.0"/>
      <point x="369.7575" y="183.68"/>
      <point x="368.7950000000001" y="382.27000000000004" type="curve" smooth="yes"/>
      <point x="368.38250000000005" y="497.815"/>
      <point x="333.0625" y="551.0"/>
      <point x="264.8325" y="551.0" type="curve" smooth="yes"/>
      <point x="235.76000000000002" y="551.0"/>
      <point x="209.02999999999997" y="541.0150000000001"/>
      <point x="180.9875" y="522.13" type="curve"/>
    </contour>
    <contour>
      <point x="217.0475" y="448.94249999999994" type="curve" smooth="yes"/>
      <point x="250.22" y="448.94249999999994"/>
      <point x="262.345" y="416.1925"/>
      <point x="262.345" y="369.92" type="curve" smooth="yes"/>
      <point x="262.345" y="226.455"/>
      <point x="215.3625" y="82.9825"/>
      <point x="145.8875" y="82.9825" type="curve" smooth="yes"/>
      <point x="134.005" y="82.9825"/>
      <point x="122.25" y="85.19250000000001"/>
      <point x="113.0625" y="89.08000000000001" type="curve"/>
      <point x="166.98749999999998" y="431.97" type="line"/>
      <point x="182.03000000000003" y="442.26"/>
      <point x="201.9525" y="448.94249999999994"/>
    </contour>
  </outline>
</glyph>
<glyph name="c" format="2">
  <advance width="315.27500000000003"/>
  <unicode hex="0063"/>
  <note>
10
</note>
  <anchor x="150.35" y="0.0" name="bottom"/>
  <anchor x="236.525" y="541.0" name="top"/>
  <outline>
    <contour>
      <point x="161.925" y="-10.0" type="curve" smooth="yes"/>
      <point x="199.00000000000003" y="-10.0"/>
      <point x="240.34999999999997" y="-3.0000000000000004"/>
      <point x="269.20000000000005" y="8.225" type="curve"/>
      <point x="257.84999999999997" y="99.25000000000001" type="line"/>
      <point x="237.12500000000003" y="94.60000000000001"/>
      <point x="214.77500000000003" y="91.775"/>
      <point x="191.5" y="91.775" type="curve" smooth="yes"/>
      <point x="145.125" y="91.775"/>
      <point x="120.775" y="129.45000000000002"/>
      <point x="120.775" y="189.05" type="curve" smooth="yes"/>
      <point x="120.775" y="321.27500000000003"/>
      <point x="172.35000000000002" y="448.99999999999994"/>
      <point x="244.975" y="448.99999999999994" type="curve" smooth="yes"/>
      <point x="267.25000000000006" y="448.99999999999994"/>
      <point x="285.87500000000006" y="446.72499999999997"/>
      <point x="310.20000000000005" y="438.92499999999995" type="curve"/>
      <point x="344.70000000000005" y="536.5749999999999" type="line"/>
      <point x="316.72499999999997" y="546.075"/>
      <point x="283.325" y="551.0"/>
      <point x="247.45000000000002" y="551.0" type="curve" smooth="yes"/>
      <point x="95.25" y="551.0"/>
      <point x="13.725" y="384.22499999999997"/>
      <point x="13.725" y="162.25" type="curve" smooth="yes"/>
      <point x="13.725" y="53.35"/>
      <point x="65.90000000000002" y="-10.0"/>
    </contour>
  </outline>
</glyph>
<glyph name="d" format="2">
  <advance width="384.85"/>
  <unicode hex="0064"/>
  <note>
17
</note>
  <anchor x="162.5375" y="0.0" name="bottom"/>
  <anchor x="195.5375" y="313.3625" name="center"/>
  <anchor x="253.14999999999998" y="740.0" name="top"/>
  <anchor x="459.4625" y="740.0" name="topright"/>
  <outline>
    <contour>
      <point x="282.18750000000006" y="-10.0" type="curve" smooth="yes"/>
      <point x="303.8125" y="-10.0"/>
      <point x="329.9125" y="-3.7249999999999996"/>
      <point x="346.9125" y="7.150000000000001" type="curve"/>
      <point x="355.525" y="95.325" type="line"/>
      <point x="348.825" y="92.8625"/>
      <point x="341.925" y="91.28750000000002"/>
      <point x="335.5125" y="91.28750000000002" type="curve" smooth="yes"/>
      <point x="323.31250000000006" y="91.28750000000002"/>
      <point x="318.66249999999997" y="97.45"/>
      <point x="318.66249999999997" y="109.6875" type="curve" smooth="yes"/>
      <point x="318.66249999999997" y="123.41250000000001"/>
      <point x="375.63750000000005" y="476.86249999999995"/>
      <point x="417.15" y="740.0" type="curve"/>
      <point x="312.97499999999997" y="740.0" type="line"/>
      <point x="280.66249999999997" y="537.9499999999999" type="line"/>
      <point x="261.32500000000005" y="546.4499999999998"/>
      <point x="241.2625" y="551.0"/>
      <point x="217.85" y="551.0" type="curve" smooth="yes"/>
      <point x="101.5" y="551.0"/>
      <point x="13.5" y="389.02500000000003"/>
      <point x="13.5" y="156.4125" type="curve" smooth="yes"/>
      <point x="13.5" y="44.025"/>
      <point x="53.35" y="-10.0"/>
      <point x="121.6875" y="-10.0" type="curve" smooth="yes"/>
      <point x="158.375" y="-10.0"/>
      <point x="191.65" y="8.487499999999999"/>
      <point x="213.73749999999998" y="30.4125" type="curve"/>
      <point x="227.28749999999994" y="3.175"/>
      <point x="248.45" y="-10.0"/>
    </contour>
    <contour>
      <point x="164.53749999999997" y="91.83750000000002" type="curve" smooth="yes"/>
      <point x="136.67499999999998" y="91.83750000000002"/>
      <point x="120.3375" y="117.725"/>
      <point x="120.3375" y="157.97500000000002" type="curve" smooth="yes"/>
      <point x="120.3375" y="307.05"/>
      <point x="165.6625" y="456.47499999999997"/>
      <point x="233.35" y="456.47499999999997" type="curve" smooth="yes"/>
      <point x="245.8875" y="456.47499999999997"/>
      <point x="255.45" y="454.3125"/>
      <point x="266.79999999999995" y="450.73749999999995" type="curve"/>
      <point x="212.5375" y="107.35000000000001" type="line"/>
      <point x="199.28749999999997" y="97.8"/>
      <point x="182.01250000000002" y="91.83750000000002"/>
    </contour>
  </outline>
</glyph>
<glyph name="e" format="2">
  <advance width="355.0"/>
  <unicode hex="0065"/>
  <note>
14 points
</note>
  <anchor x="169.90000000000003" y="0.0" name="bottom"/>
  <anchor x="254.95000000000002" y="1.2999999999999998" name="ogonek"/>
  <anchor x="236.50000000000003" y="541.725" name="top"/>
  <outline>
    <contour>
      <point x="97.17500000000003" y="289.02500000000003" type="curve"/>
      <point x="82.025" y="209.7" type="line"/>
      <point x="118.075" y="210.02500000000003"/>
      <point x="156.30000000000004" y="217.02500000000003"/>
      <point x="193.10000000000005" y="229.275" type="curve" smooth="yes"/>
      <point x="294.975" y="263.34999999999997"/>
      <point x="363.3" y="341.90000000000003"/>
      <point x="363.3" y="439.69999999999993" type="curve" smooth="yes"/>
      <point x="363.3" y="505.6"/>
      <point x="323.40000000000003" y="550.8249999999999"/>
      <point x="247.17499999999998" y="550.8249999999999" type="curve" smooth="yes"/>
      <point x="95.60000000000001" y="550.8249999999999"/>
      <point x="16.05" y="387.27500000000003"/>
      <point x="16.05" y="187.35" type="curve" smooth="yes"/>
      <point x="16.05" y="60.849999999999994"/>
      <point x="71.1" y="-10.0"/>
      <point x="173.37500000000003" y="-10.0" type="curve" smooth="yes"/>
      <point x="216.65" y="-10.0"/>
      <point x="266.3" y="-0.22499999999999998"/>
      <point x="305.84999999999997" y="21.049999999999997" type="curve"/>
      <point x="287.72499999999997" y="116.12500000000001" type="line"/>
      <point x="250.10000000000002" y="99.375"/>
      <point x="216.50000000000003" y="92.45000000000002"/>
      <point x="188.20000000000005" y="92.45000000000002" type="curve" smooth="yes"/>
      <point x="141.45" y="92.45000000000002"/>
      <point x="116.45" y="123.27500000000002"/>
      <point x="116.65000000000002" y="204.64999999999998" type="curve" smooth="yes"/>
      <point x="117.00000000000001" y="356.82500000000005"/>
      <point x="168.25000000000003" y="458.0249999999999"/>
      <point x="230.55" y="457.94999999999993" type="curve" smooth="yes"/>
      <point x="253.24999999999994" y="457.94999999999993"/>
      <point x="265.425" y="447.45000000000005"/>
      <point x="265.425" y="418.9" type="curve" smooth="yes"/>
      <point x="265.325" y="368.34999999999997"/>
      <point x="228.95" y="328.325"/>
      <point x="171.125" y="304.50000000000006" type="curve" smooth="yes"/>
      <point x="148.525" y="295.175"/>
      <point x="122.17500000000003" y="289.40000000000003"/>
    </contour>
  </outline>
</glyph>
<glyph name="f" format="2">
  <advance width="245.91499999999996"/>
  <unicode hex="0066"/>
  <outline>
    <contour>
      <point x="-42.044999999999995" y="-220.0" type="curve" smooth="yes"/>
      <point x="50.40500000000001" y="-220.0"/>
      <point x="96.56" y="-156.86999999999998"/>
      <point x="117.03000000000002" y="-27.539999999999996" type="curve" smooth="yes"/>
      <point x="186.855" y="413.63" type="line"/>
      <point x="264.77" y="413.63" type="line"/>
      <point x="279.595" y="506.275" type="line"/>
      <point x="201.625" y="506.275" type="line"/>
      <point x="217.94" y="611.2900000000001"/>
      <point x="241.94500000000002" y="647.4"/>
      <point x="286.42" y="647.4" type="curve" smooth="yes"/>
      <point x="302.72499999999997" y="647.4"/>
      <point x="320.29999999999995" y="643.575"/>
      <point x="336.42" y="638.4" type="curve"/>
      <point x="366.695" y="729.275" type="line"/>
      <point x="339.15" y="741.5450000000001"/>
      <point x="311.21" y="750.0"/>
      <point x="274.37" y="750.0" type="curve" smooth="yes"/>
      <point x="182.48000000000002" y="750.0"/>
      <point x="122.41499999999999" y="674.86"/>
      <point x="97.275" y="506.275" type="curve"/>
      <point x="43.375" y="499.055" type="line"/>
      <point x="29.165000000000003" y="413.63" type="line"/>
      <point x="82.45" y="413.63" type="line"/>
      <point x="13.765" y="-22.864999999999995" type="line" smooth="yes"/>
      <point x="3.59" y="-86.07"/>
      <point x="-15.075" y="-117.91499999999999"/>
      <point x="-52.82000000000001" y="-117.91499999999999" type="curve" smooth="yes"/>
      <point x="-63.28999999999999" y="-117.91499999999999"/>
      <point x="-74.14" y="-116.86"/>
      <point x="-88.955" y="-111.88" type="curve"/>
      <point x="-116.53" y="-206.31999999999996" type="line"/>
      <point x="-91.985" y="-215.645"/>
      <point x="-68.105" y="-220.0"/>
    </contour>
  </outline>
</glyph>
<glyph name="g" format="2">
  <advance width="381.575"/>
  <unicode hex="0067"/>
  <note>
16
</note>
  <anchor x="108.30000000000001" y="-215.4" name="bottom"/>
  <anchor x="237.3" y="541.0" name="top"/>
  <outline>
    <contour>
      <point x="-18.075" y="-192.2" type="line"/>
      <point x="23.775" y="-210.67500000000004"/>
      <point x="70.275" y="-220.0"/>
      <point x="108.97500000000002" y="-220.0" type="curve" smooth="yes"/>
      <point x="214.60000000000005" y="-220.0"/>
      <point x="274.625" y="-157.57500000000002"/>
      <point x="296.775" y="-17.625" type="curve" smooth="yes"/>
      <point x="384.82499999999993" y="528.55" type="line"/>
      <point x="355.8" y="540.675"/>
      <point x="301.65000000000003" y="551.0"/>
      <point x="256.625" y="551.0" type="curve" smooth="yes"/>
      <point x="87.25" y="551.0"/>
      <point x="12.625000000000002" y="374.55"/>
      <point x="12.625000000000002" y="152.0" type="curve" smooth="yes"/>
      <point x="12.625000000000002" y="62.35000000000001"/>
      <point x="46.0" y="1.7000000000000024"/>
      <point x="115.62500000000001" y="1.7000000000000024" type="curve" smooth="yes"/>
      <point x="139.42499999999998" y="1.7000000000000024"/>
      <point x="172.775" y="9.875000000000002"/>
      <point x="200.07500000000002" y="26.275" type="curve"/>
      <point x="194.07500000000002" y="-19.574999999999992" type="line" smooth="yes"/>
      <point x="183.6" y="-95.25"/>
      <point x="153.775" y="-120.675"/>
      <point x="108.67500000000003" y="-120.675" type="curve" smooth="yes"/>
      <point x="81.65000000000002" y="-120.675"/>
      <point x="41.4" y="-111.875"/>
      <point x="12.675000000000002" y="-100.65" type="curve"/>
    </contour>
    <contour>
      <point x="267.70000000000005" y="453.74999999999994" type="curve"/>
      <point x="213.35" y="112.125" type="line"/>
      <point x="201.22500000000002" y="103.25"/>
      <point x="181.35000000000002" y="96.325"/>
      <point x="167.175" y="96.325" type="curve" smooth="yes"/>
      <point x="138.425" y="96.325"/>
      <point x="120.87500000000003" y="120.12500000000003"/>
      <point x="120.87500000000003" y="164.225" type="curve" smooth="yes"/>
      <point x="120.87500000000003" y="305.3"/>
      <point x="165.62499999999997" y="460.29999999999995"/>
      <point x="235.15000000000003" y="460.29999999999995" type="curve" smooth="yes"/>
      <point x="247.25" y="460.29999999999995"/>
      <point x="257.575" y="457.3"/>
    </contour>
  </outline>
</glyph>
<glyph name="h" format="2">
  <advance width="384.65"/>
  <unicode hex="0068"/>
  <note>
16
</note>
  <anchor x="151.09500000000003" y="0.0" name="bottom"/>
  <anchor x="207.88756000000004" y="371.375" name="center"/>
  <anchor x="265.69" y="740.0" name="top"/>
  <outline>
    <contour>
      <point x="318.74750000000006" y="110.47250000000001" type="curve" smooth="yes"/>
      <point x="318.74750000000006" y="131.25"/>
      <point x="372.1525000000001" y="431.805"/>
      <point x="372.1525000000001" y="461.96999999999997" type="curve" smooth="yes"/>
      <point x="372.1525000000001" y="516.29"/>
      <point x="345.42999999999995" y="551.0"/>
      <point x="286.88" y="551.0" type="curve" smooth="yes"/>
      <point x="249.64750000000004" y="551.0"/>
      <point x="217.16750000000002" y="538.915"/>
      <point x="179.425" y="513.8375" type="curve"/>
      <point x="215.7825" y="740.0" type="line"/>
      <point x="111.175" y="740.0" type="line"/>
      <point x="-6.497500000000001" y="0.0" type="line"/>
      <point x="98.12" y="0.0" type="line"/>
      <point x="166.5325" y="429.525" type="line"/>
      <point x="185.66750000000002" y="441.82500000000005"/>
      <point x="208.46500000000006" y="450.10249999999996"/>
      <point x="226.07" y="450.10249999999996" type="curve" smooth="yes"/>
      <point x="252.95500000000004" y="450.10249999999996"/>
      <point x="261.045" y="434.7125"/>
      <point x="261.045" y="414.2975" type="curve" smooth="yes"/>
      <point x="261.045" y="391.41499999999996"/>
      <point x="208.75250000000003" y="99.34500000000001"/>
      <point x="208.75250000000003" y="61.5775" type="curve" smooth="yes"/>
      <point x="208.75250000000003" y="20.194999999999997"/>
      <point x="238.9875" y="-10.0"/>
      <point x="284.8425" y="-10.0" type="curve" smooth="yes"/>
      <point x="306.06750000000005" y="-10.0"/>
      <point x="328.2924999999999" y="-4.2225"/>
      <point x="346.845" y="6.637500000000001" type="curve"/>
      <point x="356.02500000000003" y="95.64500000000002" type="line"/>
      <point x="348.6075" y="92.84500000000001"/>
      <point x="342.63499999999993" y="92.04750000000001"/>
      <point x="338.11999999999995" y="92.04750000000001" type="curve" smooth="yes"/>
      <point x="324.76000000000005" y="92.04750000000001"/>
      <point x="318.74750000000006" y="98.055"/>
    </contour>
  </outline>
</glyph>
<glyph name="i" format="2">
  <advance width="180.195"/>
  <unicode hex="0069"/>
  <note>
Ajuster pts sur points
8
</note>
  <anchor x="46.144420000000004" y="0.0" name="bottom"/>
  <anchor x="98.58" y="0.0" name="ogonek"/>
  <anchor x="131.84557999999998" y="541.0" name="top"/>
  <outline>
    <contour>
      <point x="-5.4300000000000015" y="0.0" type="line"/>
      <point x="98.58" y="0.0" type="line"/>
      <point x="184.175" y="541.0" type="line"/>
      <point x="79.86999999999999" y="541.0" type="line"/>
    </contour>
    <contour>
      <point x="167.005" y="754.0" type="curve" smooth="yes"/>
      <point x="114.16499999999999" y="754.0"/>
      <point x="95.18499999999999" y="714.8000000000001"/>
      <point x="93.925" y="665.0250000000001" type="curve" smooth="yes"/>
      <point x="93.52000000000001" y="632.0450000000001"/>
      <point x="111.16" y="617.2049999999999"/>
      <point x="143.955" y="617.2049999999999" type="curve" smooth="yes"/>
      <point x="195.97500000000002" y="617.2049999999999"/>
      <point x="215.76500000000001" y="656.6249999999999"/>
      <point x="217.07000000000002" y="706.775" type="curve" smooth="yes"/>
      <point x="217.475" y="739.655"/>
      <point x="199.475" y="754.0"/>
    </contour>
  </outline>
</glyph>
<glyph name="j" format="2">
  <advance width="186.165"/>
  <unicode hex="006A"/>
  <note>
idem /i
12
</note>
  <outline>
    <contour>
      <point x="173.03" y="754.0" type="curve" smooth="yes"/>
      <point x="120.135" y="754.0"/>
      <point x="101.3" y="714.8000000000001"/>
      <point x="100.04" y="665.0250000000001" type="curve" smooth="yes"/>
      <point x="99.63499999999999" y="632.0450000000001"/>
      <point x="117.735" y="617.2049999999999"/>
      <point x="150.53000000000003" y="617.2049999999999" type="curve" smooth="yes"/>
      <point x="201.92" y="617.2049999999999"/>
      <point x="221.70000000000002" y="656.6249999999999"/>
      <point x="223.005" y="706.775" type="curve" smooth="yes"/>
      <point x="223.41" y="739.655"/>
      <point x="205.50000000000003" y="754.0"/>
    </contour>
    <contour>
      <point x="190.75" y="541.0" type="line"/>
      <point x="85.89499999999998" y="541.0" type="line"/>
      <point x="-3.815" y="-23.209999999999997" type="line" smooth="yes"/>
      <point x="-13.505" y="-83.425"/>
      <point x="-31.254999999999995" y="-117.91499999999999"/>
      <point x="-68.875" y="-117.91499999999999" type="curve" smooth="yes"/>
      <point x="-80.02499999999999" y="-117.91499999999999"/>
      <point x="-91.19" y="-116.96"/>
      <point x="-105.71499999999999" y="-111.855" type="curve"/>
      <point x="-131.155" y="-208.055" type="line"/>
      <point x="-106.64500000000001" y="-216.85500000000002"/>
      <point x="-78.19" y="-220.0"/>
      <point x="-57.07500000000001" y="-220.0" type="curve" smooth="yes"/>
      <point x="38.40500000000001" y="-220.0"/>
      <point x="79.54" y="-156.965"/>
      <point x="100.315" y="-25.184999999999995" type="curve" smooth="yes"/>
    </contour>
  </outline>
</glyph>
<glyph name="l" format="2">
  <advance width="193.36499999999998"/>
  <unicode hex="006C"/>
  <anchor x="80.52" y="0.0" name="bottom"/>
  <anchor x="110.83033" y="371.375" name="center"/>
  <anchor x="163.21" y="740.0" name="top"/>
  <anchor x="257.90000000000003" y="740.0" name="topright"/>
  <outline>
    <contour>
      <point x="111.21" y="740.0" type="line"/>
      <point x="10.069999999999999" y="101.12500000000001" type="line" smooth="yes"/>
      <point x="8.31" y="89.49000000000001"/>
      <point x="7.01" y="76.45500000000001"/>
      <point x="7.01" y="66.105" type="curve" smooth="yes"/>
      <point x="7.01" y="18.655"/>
      <point x="30.965000000000003" y="-10.0"/>
      <point x="83.19" y="-10.0" type="curve" smooth="yes"/>
      <point x="108.195" y="-10.0"/>
      <point x="137.85000000000002" y="-2.7949999999999995"/>
      <point x="157.365" y="8.125000000000002" type="curve"/>
      <point x="166.41" y="97.44500000000002" type="line"/>
      <point x="155.26999999999998" y="94.11500000000001"/>
      <point x="146.3" y="92.76"/>
      <point x="139.21" y="92.76" type="curve" smooth="yes"/>
      <point x="122.95" y="92.76"/>
      <point x="117.50000000000001" y="100.66"/>
      <point x="117.50000000000001" y="113.965" type="curve" smooth="yes"/>
      <point x="117.50000000000001" y="122.43"/>
      <point x="119.39000000000001" y="132.975"/>
      <point x="121.705" y="147.97000000000003" type="curve" smooth="yes"/>
      <point x="215.615" y="740.0" type="line"/>
    </contour>
  </outline>
</glyph>
<glyph name="m" format="2">
  <advance width="571.63"/>
  <unicode hex="006D"/>
  <note>
24&gt;23 points
un point de trop dans la jointure avec 2e jambage
</note>
  <outline>
    <contour>
      <point x="470.495" y="-10.0" type="curve" smooth="yes"/>
      <point x="491.63000000000005" y="-10.0"/>
      <point x="516.6450000000001" y="-4.335"/>
      <point x="533.87" y="6.570000000000001" type="curve"/>
      <point x="542.9599999999999" y="95.24000000000002" type="line"/>
      <point x="535.7" y="92.44000000000001"/>
      <point x="529.525" y="91.84500000000001"/>
      <point x="525.055" y="91.84500000000001" type="curve" smooth="yes"/>
      <point x="511.74000000000007" y="91.84500000000001"/>
      <point x="505.16499999999996" y="99.31500000000001"/>
      <point x="505.16499999999996" y="113.24000000000001" type="curve" smooth="yes"/>
      <point x="505.16499999999996" y="142.995"/>
      <point x="558.885" y="435.13499999999993"/>
      <point x="558.885" y="464.805" type="curve" smooth="yes"/>
      <point x="558.885" y="515.12"/>
      <point x="532.5849999999999" y="551.0"/>
      <point x="473.675" y="551.0" type="curve" smooth="yes"/>
      <point x="438.695" y="551.0"/>
      <point x="399.525" y="539.3700000000001"/>
      <point x="355.34499999999997" y="505.15" type="curve"/>
      <point x="344.38" y="533.755"/>
      <point x="319.155" y="551.0"/>
      <point x="280.715" y="551.0" type="curve" smooth="yes"/>
      <point x="246.375" y="551.0"/>
      <point x="209.40500000000003" y="538.7"/>
      <point x="169.43" y="509.76" type="curve"/>
      <point x="174.74999999999997" y="541.0" type="line"/>
      <point x="79.41" y="541.0" type="line"/>
      <point x="-6.195000000000001" y="0.0" type="line"/>
      <point x="98.165" y="0.0" type="line"/>
      <point x="166.32999999999998" y="430.695" type="line"/>
      <point x="183.565" y="442.37"/>
      <point x="203.27" y="450.12499999999994"/>
      <point x="220.965" y="450.12499999999994" type="curve" smooth="yes"/>
      <point x="244.76999999999998" y="450.12499999999994"/>
      <point x="254.125" y="435.4"/>
      <point x="254.125" y="414.995" type="curve" smooth="yes"/>
      <point x="254.125" y="395.985"/>
      <point x="205.21999999999997" y="101.84500000000001"/>
      <point x="188.60500000000002" y="0.0" type="curve"/>
      <point x="292.65500000000003" y="0.0" type="line"/>
      <point x="305.64" y="80.37000000000002"/>
      <point x="345.58" y="328.73499999999996"/>
      <point x="356.36" y="407.755" type="curve" smooth="yes"/>
      <point x="356.91" y="414.105"/>
      <point x="357.66999999999996" y="423.7"/>
      <point x="357.72499999999997" y="429.04" type="curve"/>
      <point x="375.125" y="441.315"/>
      <point x="394.775" y="449.96"/>
      <point x="414.38000000000005" y="449.96" type="curve" smooth="yes"/>
      <point x="438.94500000000005" y="449.96"/>
      <point x="447.43" y="434.695"/>
      <point x="447.43" y="413.865" type="curve" smooth="yes"/>
      <point x="447.43" y="389.97999999999996"/>
      <point x="395.21500000000003" y="103.775"/>
      <point x="395.21500000000003" y="63.04" type="curve" smooth="yes"/>
      <point x="395.21500000000003" y="17.180000000000003"/>
      <point x="424.72999999999996" y="-10.0"/>
    </contour>
  </outline>
</glyph>
<glyph name="n" format="2">
  <advance width="383.84"/>
  <unicode hex="006E"/>
  <note>
16
</note>
  <anchor x="159.84" y="0.0" name="bottom"/>
  <anchor x="230.765" y="541.0" name="top"/>
  <outline>
    <contour>
      <point x="79.41" y="541.0" type="line"/>
      <point x="-6.195000000000001" y="0.0" type="line"/>
      <point x="98.11000000000001" y="0.0" type="line"/>
      <point x="166.78" y="429.75" type="line"/>
      <point x="185.45499999999998" y="441.88500000000005"/>
      <point x="207.63500000000002" y="450.53000000000003"/>
      <point x="225.97" y="450.53000000000003" type="curve" smooth="yes"/>
      <point x="252.66500000000002" y="450.53000000000003"/>
      <point x="261.45000000000005" y="435.08"/>
      <point x="261.45000000000005" y="414.14000000000004" type="curve" smooth="yes"/>
      <point x="261.45000000000005" y="385.75"/>
      <point x="209.18" y="104.325"/>
      <point x="209.18" y="59.080000000000005" type="curve" smooth="yes"/>
      <point x="209.18" y="20.645"/>
      <point x="237.93" y="-10.0"/>
      <point x="283.695" y="-10.0" type="curve" smooth="yes"/>
      <point x="304.83000000000004" y="-10.0"/>
      <point x="328.85499999999996" y="-4.335"/>
      <point x="346.08000000000004" y="6.570000000000001" type="curve"/>
      <point x="355.17" y="95.24000000000002" type="line"/>
      <point x="347.91" y="92.44000000000001"/>
      <point x="341.73499999999996" y="91.84500000000001"/>
      <point x="337.26500000000004" y="91.84500000000001" type="curve" smooth="yes"/>
      <point x="323.95000000000005" y="91.84500000000001"/>
      <point x="318.14000000000004" y="97.875"/>
      <point x="318.14000000000004" y="110.31500000000001" type="curve" smooth="yes"/>
      <point x="318.14000000000004" y="131.16"/>
      <point x="372.35499999999996" y="431.67"/>
      <point x="372.35499999999996" y="461.835" type="curve" smooth="yes"/>
      <point x="372.35499999999996" y="516.88"/>
      <point x="343.805" y="551.0"/>
      <point x="286.38000000000005" y="551.0" type="curve" smooth="yes"/>
      <point x="248.675" y="551.0"/>
      <point x="208.50000000000003" y="538.1750000000001"/>
      <point x="169.175" y="509.2200000000001" type="curve"/>
      <point x="174.08999999999997" y="541.0" type="line"/>
    </contour>
  </outline>
</glyph>
<glyph name="o" format="2">
  <advance width="375.2"/>
  <unicode hex="006F"/>
  <note>
8
</note>
  <anchor x="146.33329999999998" y="0.0" name="bottom"/>
  <anchor x="188.27499999999998" y="270.95" name="center"/>
  <anchor x="207.025" y="0.0" name="ogonek"/>
  <anchor x="224.54999999999998" y="541.0" name="top"/>
  <anchor x="306.55" y="531.4499999999999" name="topright"/>
  <outline>
    <contour>
      <point x="158.275" y="-9.925" type="curve" smooth="yes"/>
      <point x="306.65" y="-9.925"/>
      <point x="359.575" y="221.575"/>
      <point x="359.575" y="395.52500000000003" type="curve" smooth="yes"/>
      <point x="359.575" y="505.625"/>
      <point x="314.80000000000007" y="551.25"/>
      <point x="216.0" y="551.25" type="curve" smooth="yes"/>
      <point x="66.075" y="551.25"/>
      <point x="13.600000000000001" y="316.625"/>
      <point x="13.600000000000001" y="145.875" type="curve" smooth="yes"/>
      <point x="13.600000000000001" y="36.375"/>
      <point x="58.150000000000006" y="-9.925"/>
    </contour>
    <contour>
      <point x="159.3" y="85.775" type="curve" smooth="yes"/>
      <point x="132.02499999999998" y="85.75"/>
      <point x="115.62500000000001" y="98.75000000000001"/>
      <point x="115.575" y="145.925" type="curve" smooth="yes"/>
      <point x="115.47500000000001" y="217.52499999999998"/>
      <point x="148.85" y="455.5"/>
      <point x="214.55" y="455.54999999999995" type="curve" smooth="yes"/>
      <point x="240.675" y="455.575"/>
      <point x="257.77500000000003" y="443.24999999999994"/>
      <point x="257.82500000000005" y="397.65" type="curve" smooth="yes"/>
      <point x="257.92500000000007" y="321.55"/>
      <point x="224.54999999999998" y="85.825"/>
    </contour>
  </outline>
</glyph>
<glyph name="p" format="2">
  <advance width="382.3625"/>
  <unicode hex="0070"/>
  <note>
14 point
</note>
  <outline>
    <contour>
      <point x="-38.73500000000001" y="-210.0" type="line"/>
      <point x="64.69750000000002" y="-210.0" type="line"/>
      <point x="97.8325" y="-1.8699999999999999" type="line"/>
      <point x="113.08250000000002" y="-5.81"/>
      <point x="131.6275" y="-9.0375"/>
      <point x="156.4675" y="-9.0375" type="curve" smooth="yes"/>
      <point x="294.925" y="-9.0375"/>
      <point x="368.7950000000001" y="180.05"/>
      <point x="368.7950000000001" y="379.7975" type="curve" smooth="yes"/>
      <point x="368.7950000000001" y="495.295"/>
      <point x="335.9025" y="551.0"/>
      <point x="266.71" y="551.0" type="curve" smooth="yes"/>
      <point x="227.09750000000003" y="551.0"/>
      <point x="199.54" y="533.085"/>
      <point x="176.03750000000002" y="515.4375" type="curve"/>
      <point x="174.25" y="545.05" type="line"/>
      <point x="80.275" y="545.05" type="line"/>
    </contour>
    <contour>
      <point x="145.5275" y="82.9825" type="curve" smooth="yes"/>
      <point x="133.645" y="82.9825"/>
      <point x="122.25" y="84.8325"/>
      <point x="112.6575" y="88.72" type="curve"/>
      <point x="166.9425" y="432.3375" type="line"/>
      <point x="181.2125" y="441.63"/>
      <point x="201.26749999999998" y="448.94249999999994"/>
      <point x="217.32250000000002" y="448.94249999999994" type="curve" smooth="yes"/>
      <point x="246.92499999999998" y="448.94249999999994"/>
      <point x="262.345" y="425.1625"/>
      <point x="262.345" y="365.615" type="curve" smooth="yes"/>
      <point x="262.345" y="230.0625"/>
      <point x="215.925" y="82.9825"/>
    </contour>
  </outline>
</glyph>
<glyph name="q" format="2">
  <advance width="381.46000000000004"/>
  <unicode hex="0071"/>
  <note>
12
</note>
  <outline>
    <contour>
      <point x="384.32749999999993" y="527.71" type="line"/>
      <point x="351.9475" y="538.9575"/>
      <point x="301.28749999999997" y="551.0"/>
      <point x="248.4375" y="551.0" type="curve" smooth="yes"/>
      <point x="85.42249999999999" y="551.0"/>
      <point x="12.355" y="348.74249999999995"/>
      <point x="12.355" y="146.91000000000003" type="curve" smooth="yes"/>
      <point x="12.355" y="41.817499999999995"/>
      <point x="52.415000000000006" y="-10.0"/>
      <point x="120.50999999999999" y="-10.0" type="curve" smooth="yes"/>
      <point x="150.1575" y="-10.0"/>
      <point x="176.4375" y="1.9925000000000002"/>
      <point x="198.795" y="19.1775" type="curve"/>
      <point x="161.85250000000002" y="-210.0" type="line"/>
      <point x="265.95" y="-210.0" type="line"/>
    </contour>
    <contour>
      <point x="267.3525" y="450.8975" type="curve"/>
      <point x="212.9325" y="108.56750000000001" type="line"/>
      <point x="197.885" y="97.10500000000002"/>
      <point x="180.0775" y="91.2325"/>
      <point x="164.8525" y="91.2325" type="curve" smooth="yes"/>
      <point x="135.61" y="91.2325"/>
      <point x="119.965" y="120.41"/>
      <point x="119.965" y="159.1425" type="curve" smooth="yes"/>
      <point x="119.965" y="283.88"/>
      <point x="157.1375" y="456.77250000000004"/>
      <point x="233.72" y="456.77250000000004" type="curve" smooth="yes"/>
      <point x="245.2125" y="456.77250000000004"/>
      <point x="256.775" y="454.38"/>
    </contour>
  </outline>
</glyph>
<glyph name="r" format="2">
  <advance width="264.375"/>
  <unicode hex="0072"/>
  <anchor x="44.88" y="0.0" name="bottom"/>
  <anchor x="204.14999999999998" y="541.0" name="top"/>
  <outline>
    <contour>
      <point x="173.605" y="541.0" type="line"/>
      <point x="79.52" y="541.0" type="line"/>
      <point x="-6.250000000000001" y="0.0" type="line"/>
      <point x="96.635" y="0.0" type="line"/>
      <point x="160.76500000000001" y="400.51" type="line"/>
      <point x="189.585" y="425.79499999999996"/>
      <point x="212.79999999999998" y="434.945"/>
      <point x="236.705" y="434.945" type="curve" smooth="yes"/>
      <point x="248.215" y="434.945"/>
      <point x="264.355" y="432.995"/>
      <point x="278.34499999999997" y="428.45000000000005" type="curve"/>
      <point x="312.25000000000006" y="542.185" type="line"/>
      <point x="297.03499999999997" y="549.0149999999999"/>
      <point x="282.34999999999997" y="551.0"/>
      <point x="265.76" y="551.0" type="curve" smooth="yes"/>
      <point x="234.44500000000002" y="551.0"/>
      <point x="202.77" y="533.7400000000001"/>
      <point x="166.14000000000001" y="495.195" type="curve"/>
    </contour>
  </outline>
</glyph>
<glyph name="s" format="2">
  <advance width="321.82500000000005"/>
  <unicode hex="0073"/>
  <anchor x="118.07499999999999" y="0.0" name="bottom"/>
  <anchor x="214.2" y="541.0" name="top"/>
  <outline>
    <contour>
      <point x="-22.45" y="18.075000000000003" type="line"/>
      <point x="13.375" y="0.7250000000000004"/>
      <point x="54.975" y="-10.0"/>
      <point x="112.95" y="-10.0" type="curve" smooth="yes"/>
      <point x="224.70000000000002" y="-10.0"/>
      <point x="292.075" y="52.5"/>
      <point x="292.075" y="166.92499999999998" type="curve" smooth="yes"/>
      <point x="292.075" y="309.625"/>
      <point x="138.3" y="314.02500000000003"/>
      <point x="138.3" y="392.9" type="curve" smooth="yes"/>
      <point x="138.3" y="429.125"/>
      <point x="160.74999999999997" y="453.6"/>
      <point x="209.62500000000003" y="453.6" type="curve" smooth="yes"/>
      <point x="240.15" y="453.6"/>
      <point x="275.0" y="444.82499999999993"/>
      <point x="303.275" y="433.475" type="curve"/>
      <point x="331.475" y="527.85" type="line"/>
      <point x="305.65" y="541.1750000000001"/>
      <point x="262.975" y="551.0"/>
      <point x="216.975" y="551.0" type="curve" smooth="yes"/>
      <point x="93.64999999999999" y="551.0"/>
      <point x="38.25" y="471.8"/>
      <point x="38.25" y="379.95" type="curve" smooth="yes"/>
      <point x="38.25" y="229.95"/>
      <point x="192.125" y="231.075"/>
      <point x="192.125" y="151.825" type="curve" smooth="yes"/>
      <point x="192.125" y="116.10000000000001"/>
      <point x="168.375" y="85.55000000000001"/>
      <point x="116.12500000000001" y="85.55000000000001" type="curve" smooth="yes"/>
      <point x="80.80000000000001" y="85.55000000000001"/>
      <point x="37.800000000000004" y="95.9"/>
      <point x="8.525" y="109.50000000000001" type="curve"/>
    </contour>
  </outline>
</glyph>
<glyph name="t" format="2">
  <advance width="248.39000000000001"/>
  <unicode hex="0074"/>
  <anchor x="112.425" y="0.0" name="bottom"/>
  <anchor x="119.36" y="298.49" name="center"/>
  <anchor x="170.9" y="659.5550000000001" name="top"/>
  <anchor x="289.065" y="757.6" name="topright"/>
  <outline>
    <contour>
      <point x="213.34" y="97.80000000000001" type="line"/>
      <point x="198.595" y="94.01"/>
      <point x="186.45" y="91.555"/>
      <point x="175.415" y="91.555" type="curve" smooth="yes"/>
      <point x="144.99" y="91.555"/>
      <point x="133.67000000000002" y="108.035"/>
      <point x="133.67000000000002" y="136.68" type="curve" smooth="yes"/>
      <point x="133.67000000000002" y="145.955"/>
      <point x="135.02" y="156.175"/>
      <point x="136.51500000000001" y="168.15999999999997" type="curve" smooth="yes"/>
      <point x="181.76" y="448.445" type="line"/>
      <point x="271.60499999999996" y="448.445" type="line"/>
      <point x="287.53000000000003" y="541.0" type="line"/>
      <point x="197.52" y="541.0" type="line"/>
      <point x="215.98" y="659.5550000000001" type="line"/>
      <point x="126.71" y="659.5550000000001" type="line"/>
      <point x="93.92999999999999" y="541.0" type="line"/>
      <point x="43.26" y="534.23" type="line"/>
      <point x="28.4" y="448.94" type="line"/>
      <point x="77.84" y="448.94" type="line"/>
      <point x="31.165000000000003" y="157.26999999999998" type="line" smooth="yes"/>
      <point x="27.065" y="132.58"/>
      <point x="23.984999999999996" y="101.89999999999999"/>
      <point x="23.984999999999996" y="83.02999999999999" type="curve" smooth="yes"/>
      <point x="23.984999999999996" y="13.685"/>
      <point x="64.35" y="-10.0"/>
      <point x="116.685" y="-10.0" type="curve" smooth="yes"/>
      <point x="148.01000000000002" y="-10.0"/>
      <point x="177.66" y="-4.02"/>
      <point x="205.35" y="8.815000000000001" type="curve"/>
    </contour>
  </outline>
</glyph>
<glyph name="u" format="2">
  <advance width="381.90000000000003"/>
  <unicode hex="0075"/>
  <note>
15
</note>
  <anchor x="150.19" y="0.0" name="bottom"/>
  <anchor x="343.575" y="8.855" name="ogonek"/>
  <anchor x="230.79522" y="541.0" name="top"/>
  <anchor x="367.44499999999994" y="541.0" name="topright"/>
  <outline>
    <contour>
      <point x="97.465" y="-10.0" type="curve" smooth="yes"/>
      <point x="137.94" y="-10.0"/>
      <point x="170.795" y="5.625000000000001"/>
      <point x="210.13" y="38.614999999999995" type="curve"/>
      <point x="218.165" y="9.215000000000002"/>
      <point x="244.025" y="-10.0"/>
      <point x="278.83000000000004" y="-10.0" type="curve" smooth="yes"/>
      <point x="299.37" y="-10.0"/>
      <point x="326.7" y="-2.4149999999999996"/>
      <point x="343.575" y="9.46" type="curve"/>
      <point x="352.195" y="95.15" type="line"/>
      <point x="344.505" y="92.185"/>
      <point x="336.57" y="90.83500000000001"/>
      <point x="332.265" y="90.83500000000001" type="curve" smooth="yes"/>
      <point x="319.655" y="90.83500000000001"/>
      <point x="315.055" y="98.54500000000002"/>
      <point x="315.055" y="111.99000000000002" type="curve" smooth="yes"/>
      <point x="315.055" y="119.77"/>
      <point x="316.865" y="134.025"/>
      <point x="382.29499999999996" y="541.0" type="curve"/>
      <point x="279.32" y="541.0" type="line"/>
      <point x="210.76" y="111.22000000000001" type="line"/>
      <point x="189.8" y="96.745"/>
      <point x="170.745" y="89.37000000000002"/>
      <point x="150.635" y="89.37000000000002" type="curve" smooth="yes"/>
      <point x="128.09" y="89.37000000000002"/>
      <point x="116.135" y="104.7"/>
      <point x="117.12500000000001" y="126.275" type="curve" smooth="yes"/>
      <point x="126.03500000000001" y="191.53500000000003"/>
      <point x="138.2" y="267.6600000000001"/>
      <point x="181.365" y="541.0" type="curve"/>
      <point x="77.94" y="541.0" type="line"/>
      <point x="30.450000000000003" y="239.19"/>
      <point x="7.76" y="126.94000000000001"/>
      <point x="7.76" y="76.50000000000001" type="curve" smooth="yes"/>
      <point x="7.76" y="25.61"/>
      <point x="39.085" y="-10.0"/>
    </contour>
  </outline>
</glyph>
<glyph name="v" format="2">
  <advance width="352.085"/>
  <unicode hex="0076"/>
  <outline>
    <contour>
      <point x="193.895" y="-1.5199999999999998" type="line"/>
      <point x="303.08500000000004" y="261.445"/>
      <point x="370.465" y="393.42499999999995"/>
      <point x="375.005" y="541.0" type="curve"/>
      <point x="267.375" y="541.0" type="line"/>
      <point x="265.085" y="420.865"/>
      <point x="231.795" y="339.435"/>
      <point x="144.605" y="105.67500000000001" type="curve"/>
      <point x="153.16500000000002" y="541.45" type="line"/>
      <point x="43.06" y="541.085" type="line"/>
      <point x="61.925" y="-1.5199999999999998" type="line"/>
    </contour>
  </outline>
</glyph>
<glyph name="w" format="2">
  <advance width="554.795"/>
  <unicode hex="0077"/>
  <note>
15
</note>
  <anchor x="238.985" y="0.0" name="bottom"/>
  <anchor x="306.075" y="541.0" name="top"/>
  <outline>
    <contour>
      <point x="409.555" y="0.0" type="line"/>
      <point x="519.795" y="287.165"/>
      <point x="570.975" y="400.485"/>
      <point x="575.015" y="541.0" type="curve"/>
      <point x="471.83" y="541.0" type="line"/>
      <point x="464.58" y="418.59499999999997"/>
      <point x="439.535" y="335.825"/>
      <point x="363.19500000000005" y="110.76" type="curve"/>
      <point x="371.91499999999996" y="517.205" type="line"/>
      <point x="254.90499999999997" y="517.205" type="line"/>
      <point x="216.03000000000003" y="378.855"/>
      <point x="177.76" y="245.52"/>
      <point x="138.23499999999999" y="109.49" type="curve"/>
      <point x="149.44" y="541.45" type="line"/>
      <point x="41.745" y="541.13" type="line"/>
      <point x="54.16499999999999" y="0.0" type="line"/>
      <point x="183.67" y="0.0" type="line"/>
      <point x="218.76500000000001" y="120.225"/>
      <point x="254.59" y="243.895"/>
      <point x="288.34499999999997" y="363.03" type="curve"/>
      <point x="286.55" y="0.0" type="line"/>
    </contour>
  </outline>
</glyph>
<glyph name="x" format="2">
  <advance width="372.715"/>
  <unicode hex="0078"/>
  <outline>
    <contour>
      <point x="282.6775" y="541.0" type="line"/>
      <point x="278.6875" y="471.7125"/>
      <point x="254.58249999999998" y="413.93"/>
      <point x="200.09" y="332.0925" type="curve"/>
      <point x="170.1725" y="543.7049999999999" type="line"/>
      <point x="55.26" y="540.795" type="line"/>
      <point x="110.3325" y="277.67750000000007" type="line"/>
      <point x="35.6175" y="182.07750000000001"/>
      <point x="-10.8375" y="92.38999999999999"/>
      <point x="-20.474999999999998" y="0.0" type="curve"/>
      <point x="91.4" y="0.0" type="line"/>
      <point x="98.58" y="73.525"/>
      <point x="129.44000000000003" y="140.91750000000002"/>
      <point x="178.125" y="212.375" type="curve"/>
      <point x="210.8275" y="-1.145" type="line"/>
      <point x="327.08750000000003" y="0.7674999999999998" type="line"/>
      <point x="267.1925" y="268.48749999999995" type="line"/>
      <point x="351.53999999999996" y="375.70250000000004"/>
      <point x="387.5025" y="483.12"/>
      <point x="392.3425" y="541.0" type="curve"/>
    </contour>
  </outline>
</glyph>
<glyph name="y" format="2">
  <advance width="354.17500000000007"/>
  <unicode hex="0079"/>
  <anchor x="135.10000000000002" y="-188.99999999999997" name="bottom"/>
  <anchor x="209.3" y="541.0" name="top"/>
  <outline>
    <contour>
      <point x="275.62500000000006" y="544.95" type="line"/>
      <point x="259.84999999999997" y="382.72499999999997"/>
      <point x="212.10000000000002" y="245.525"/>
      <point x="156.125" y="102.37500000000001" type="curve"/>
      <point x="143.95000000000002" y="545.5" type="line"/>
      <point x="39.449999999999996" y="544.325" type="line"/>
      <point x="64.85000000000001" y="-0.55" type="line"/>
      <point x="103.875" y="-0.55" type="line"/>
      <point x="75.54999999999998" y="-68.19999999999999"/>
      <point x="40.3" y="-133.5"/>
      <point x="-3.6999999999999997" y="-209.725" type="curve"/>
      <point x="102.30000000000001" y="-214.5" type="line"/>
      <point x="241.475" y="61.750000000000014"/>
      <point x="351.925" y="304.05"/>
      <point x="379.70000000000005" y="543.425" type="curve"/>
    </contour>
  </outline>
</glyph>
<glyph name="z" format="2">
  <advance width="339.905"/>
  <unicode hex="007A"/>
  <anchor x="138.26500000000001" y="0.0" name="bottom"/>
  <anchor x="167.78" y="275.0" name="center"/>
  <anchor x="214.79" y="541.0" name="top"/>
  <outline>
    <contour>
      <point x="-17.55" y="0.0" type="line"/>
      <point x="287.015" y="0.0" type="line"/>
      <point x="301.895" y="95.47500000000001" type="line"/>
      <point x="113.22000000000001" y="95.47500000000001" type="line"/>
      <point x="341.26" y="448.805" type="line"/>
      <point x="359.13" y="541.0" type="line"/>
      <point x="71.495" y="541.0" type="line"/>
      <point x="56.065" y="444.535" type="line"/>
      <point x="227.36999999999998" y="444.535" type="line"/>
      <point x="-4.44" y="85.92500000000001" type="line"/>
    </contour>
  </outline>
</glyph>
<glyph name="braceleft" format="2">
  <advance width="241.42999999999998"/>
  <unicode hex="007B"/>
  <outline>
    <contour>
      <point x="4.299999999999999" y="-101.875" type="curve" smooth="yes"/>
      <point x="4.299999999999999" y="-174.15"/>
      <point x="38.64" y="-210.0"/>
      <point x="90.36999999999999" y="-210.0" type="curve" smooth="yes"/>
      <point x="142.37" y="-210.0" type="line"/>
      <point x="157.965" y="-119.05" type="line"/>
      <point x="133.355" y="-119.05" type="line" smooth="yes"/>
      <point x="108.69" y="-119.05"/>
      <point x="98.23499999999999" y="-99.975"/>
      <point x="98.23499999999999" y="-70.16" type="curve" smooth="yes"/>
      <point x="98.23499999999999" y="20.560000000000002"/>
      <point x="159.62500000000003" y="97.87"/>
      <point x="159.62500000000003" y="185.46" type="curve" smooth="yes"/>
      <point x="159.62500000000003" y="218.4"/>
      <point x="151.815" y="248.95999999999998"/>
      <point x="125.69" y="268.6" type="curve"/>
      <point x="176.41500000000002" y="294.76000000000005"/>
      <point x="199.075" y="363.83"/>
      <point x="199.075" y="424.65" type="curve" smooth="yes"/>
      <point x="199.075" y="462.075"/>
      <point x="195.555" y="488.48999999999995"/>
      <point x="195.555" y="533.1750000000001" type="curve" smooth="yes"/>
      <point x="195.555" y="585.27"/>
      <point x="209.675" y="649.0500000000001"/>
      <point x="258.92499999999995" y="649.0500000000001" type="curve" smooth="yes"/>
      <point x="280.925" y="649.0500000000001" type="line"/>
      <point x="295.53000000000003" y="740.0" type="line"/>
      <point x="245.555" y="740.0" type="line" smooth="yes"/>
      <point x="140.525" y="740.0"/>
      <point x="105.15" y="630.195"/>
      <point x="105.15" y="524.745" type="curve" smooth="yes"/>
      <point x="105.15" y="478.61999999999995"/>
      <point x="110.10000000000001" y="450.19"/>
      <point x="110.10000000000001" y="416.71500000000003" type="curve" smooth="yes"/>
      <point x="110.10000000000001" y="373.25000000000006"/>
      <point x="102.355" y="316.405"/>
      <point x="64.44" y="316.405" type="curve" smooth="yes"/>
      <point x="50.555" y="316.405" type="line"/>
      <point x="35.455" y="221.56" type="line"/>
      <point x="48.575" y="221.56" type="line" smooth="yes"/>
      <point x="68.11" y="221.56"/>
      <point x="73.62" y="206.77999999999997"/>
      <point x="73.62" y="185.5" type="curve" smooth="yes"/>
      <point x="73.62" y="99.605"/>
      <point x="4.299999999999999" y="11.549999999999999"/>
    </contour>
  </outline>
</glyph>
<glyph name="bar" format="2">
  <advance width="155.63"/>
  <unicode hex="007C"/>
  <outline>
    <contour>
      <point x="204.4" y="790.495" type="line"/>
      <point x="114.89999999999999" y="790.495" type="line"/>
      <point x="-44.26500000000001" y="-210.0" type="line"/>
      <point x="45.67500000000001" y="-210.0" type="line"/>
    </contour>
  </outline>
</glyph>
<glyph name="braceright" format="2">
  <advance width="241.42999999999998"/>
  <unicode hex="007D"/>
  <outline>
    <contour>
      <point x="234.085" y="631.875" type="curve" smooth="yes"/>
      <point x="234.085" y="704.645"/>
      <point x="199.25" y="740.495"/>
      <point x="147.52" y="740.495" type="curve" smooth="yes"/>
      <point x="95.52" y="740.495" type="line"/>
      <point x="79.925" y="649.545" type="line"/>
      <point x="99.585" y="649.545" type="line" smooth="yes"/>
      <point x="124.74499999999999" y="649.545"/>
      <point x="135.69500000000002" y="629.9749999999999"/>
      <point x="135.69500000000002" y="600.16" type="curve" smooth="yes"/>
      <point x="135.69500000000002" y="508.45"/>
      <point x="74.305" y="444.685"/>
      <point x="74.305" y="346.7" type="curve" smooth="yes"/>
      <point x="74.305" y="315.245"/>
      <point x="81.62" y="284.68499999999995"/>
      <point x="108.73500000000001" y="265.54" type="curve"/>
      <point x="58.01" y="238.885"/>
      <point x="34.855" y="170.805"/>
      <point x="34.855" y="109.49" type="curve" smooth="yes"/>
      <point x="34.855" y="72.065"/>
      <point x="38.375" y="42.005"/>
      <point x="38.375" y="-1.689999999999998" type="curve" smooth="yes"/>
      <point x="38.375" y="-53.785"/>
      <point x="24.749999999999996" y="-118.55499999999999"/>
      <point x="-24.5" y="-118.55499999999999" type="curve" smooth="yes"/>
      <point x="-42.54" y="-118.55499999999999" type="line"/>
      <point x="-57.145" y="-210.0" type="line"/>
      <point x="-7.664999999999996" y="-210.0" type="line" smooth="yes"/>
      <point x="97.36500000000001" y="-210.0"/>
      <point x="132.74" y="-93.75999999999999"/>
      <point x="132.74" y="-4.149999999999999" type="curve" smooth="yes"/>
      <point x="132.74" y="55.34"/>
      <point x="127.79" y="89.395"/>
      <point x="127.79" y="119.405" type="curve" smooth="yes"/>
      <point x="127.79" y="161.88"/>
      <point x="136.525" y="217.73499999999999"/>
      <point x="173.45" y="217.73499999999999" type="curve" smooth="yes"/>
      <point x="187.335" y="217.73499999999999" type="line"/>
      <point x="202.435" y="312.085" type="line"/>
      <point x="189.31499999999997" y="312.085" type="line" smooth="yes"/>
      <point x="169.78" y="312.085"/>
      <point x="164.27" y="326.865"/>
      <point x="164.27" y="348.145" type="curve" smooth="yes"/>
      <point x="164.27" y="434.535"/>
      <point x="234.085" y="511.52"/>
    </contour>
  </outline>
</glyph>
<glyph name="asciitilde" format="2">
  <advance width="396.485"/>
  <unicode hex="007E"/>
  <outline>
    <contour>
      <point x="337.07" y="243.45000000000002" type="curve"/>
      <point x="352.4" y="343.20500000000004" type="line"/>
      <point x="328.19" y="318.29999999999995"/>
      <point x="306.805" y="308.065"/>
      <point x="281.94500000000005" y="308.065" type="curve" smooth="yes"/>
      <point x="219.29999999999998" y="308.065"/>
      <point x="204.755" y="397.84999999999997"/>
      <point x="142.55" y="397.84999999999997" type="curve" smooth="yes"/>
      <point x="109.85000000000001" y="397.84999999999997"/>
      <point x="81.11" y="379.245"/>
      <point x="69.505" y="365.22499999999997" type="curve"/>
      <point x="53.900000000000006" y="265.42499999999995" type="line"/>
      <point x="67.82" y="281.45"/>
      <point x="95.655" y="300.0799999999999"/>
      <point x="126.67499999999998" y="300.0799999999999" type="curve" smooth="yes"/>
      <point x="187.23" y="300.0799999999999"/>
      <point x="201.805" y="210.29500000000002"/>
      <point x="267.465" y="210.29500000000002" type="curve" smooth="yes"/>
      <point x="292.595" y="210.29500000000002"/>
      <point x="314.145" y="219.98"/>
    </contour>
  </outline>
</glyph>
<glyph name="cent" format="2">
  <advance width="413.42999999999995"/>
  <unicode hex="00A2"/>
  <outline>
    <contour>
      <point x="130.33499999999998" y="-105.44" type="line"/>
      <point x="220.495" y="-105.44" type="line"/>
      <point x="236.045" y="-5.94" type="line"/>
      <point x="264.57" y="-3.2199999999999993"/>
      <point x="290.63500000000005" y="1.9799999999999998"/>
      <point x="308.89000000000004" y="9.66" type="curve"/>
      <point x="307.45" y="114.015" type="line"/>
      <point x="284.8" y="108.435"/>
      <point x="259.31" y="103.34000000000002"/>
      <point x="240.02500000000003" y="103.34000000000002" type="curve" smooth="yes"/>
      <point x="193.61999999999998" y="103.34000000000002"/>
      <point x="177.13500000000002" y="137.5"/>
      <point x="177.13500000000002" y="189.35000000000002" type="curve" smooth="yes"/>
      <point x="177.13500000000002" y="316.315"/>
      <point x="219.92999999999998" y="436.08"/>
      <point x="292.36999999999995" y="436.08" type="curve" smooth="yes"/>
      <point x="312.72" y="436.08"/>
      <point x="330.93" y="432.64500000000004"/>
      <point x="350.685" y="426.53" type="curve"/>
      <point x="384.91999999999996" y="535.865" type="line"/>
      <point x="367.4" y="541.535"/>
      <point x="349.01000000000005" y="546.1200000000001"/>
      <point x="326.245" y="548.12" type="curve"/>
      <point x="342.25499999999994" y="645.505" type="line"/>
      <point x="252.09500000000006" y="645.505" type="line"/>
      <point x="234.92999999999998" y="540.1" type="line"/>
      <point x="123.71000000000001" y="500.46"/>
      <point x="65.95500000000001" y="320.48499999999996"/>
      <point x="65.95500000000001" y="147.45" type="curve" smooth="yes"/>
      <point x="65.95500000000001" y="56.465"/>
      <point x="98.47" y="14.495000000000003"/>
      <point x="146.04" y="-0.5849999999999993" type="curve"/>
    </contour>
  </outline>
</glyph>
<glyph name="sterling" format="2">
  <advance width="413.69999999999993"/>
  <unicode hex="00A3"/>
  <outline>
    <contour>
      <point x="24.64" y="0.0" type="line"/>
      <point x="314.93999999999994" y="0.0" type="line"/>
      <point x="330.315" y="98.875" type="line"/>
      <point x="162.74000000000004" y="98.875" type="line"/>
      <point x="208.33000000000004" y="155.98"/>
      <point x="239.49" y="212.91000000000003"/>
      <point x="239.49" y="296.775" type="curve" smooth="yes"/>
      <point x="239.49" y="348.36"/>
      <point x="223.37" y="402.15"/>
      <point x="223.37" y="453.655" type="curve" smooth="yes"/>
      <point x="223.37" y="558.46"/>
      <point x="271.24" y="601.675"/>
      <point x="322.51" y="601.675" type="curve" smooth="yes"/>
      <point x="346.15000000000003" y="601.675"/>
      <point x="366.78" y="598.1100000000001"/>
      <point x="390.30500000000006" y="587.31" type="curve"/>
      <point x="422.365" y="682.2599999999999" type="line"/>
      <point x="392.30500000000006" y="700.5250000000001"/>
      <point x="354.21000000000004" y="710.0"/>
      <point x="316.85499999999996" y="710.0" type="curve" smooth="yes"/>
      <point x="194.94500000000002" y="710.0"/>
      <point x="121.86000000000001" y="605.52"/>
      <point x="121.86000000000001" y="469.5950000000001" type="curve" smooth="yes"/>
      <point x="121.86000000000001" y="394.55499999999995"/>
      <point x="142.22500000000002" y="347.995"/>
      <point x="142.22500000000002" y="284.41" type="curve" smooth="yes"/>
      <point x="142.22500000000002" y="195.085"/>
      <point x="92.97500000000001" y="131.665"/>
      <point x="35.06" y="76.325" type="curve"/>
    </contour>
    <contour>
      <point x="66.58000000000001" y="321.5799999999999" type="line"/>
      <point x="336.145" y="321.58000000000004" type="line"/>
      <point x="346.58500000000004" y="394.3299999999999" type="line"/>
      <point x="77.685" y="394.3299999999999" type="line"/>
    </contour>
  </outline>
</glyph>
<glyph name="currency" format="2">
  <advance width="392.045"/>
  <unicode hex="00A4"/>
  <outline>
    <contour>
      <point x="63.775" y="103.705" type="line"/>
      <point x="131.14499999999998" y="167.54" type="line"/>
      <point x="143.405" y="157.44"/>
      <point x="159.78" y="152.435"/>
      <point x="178.945" y="152.435" type="curve" smooth="yes"/>
      <point x="197.185" y="152.435"/>
      <point x="214.965" y="157.48499999999999"/>
      <point x="230.495" y="167.10000000000002" type="curve"/>
      <point x="278.40999999999997" y="103.705" type="line"/>
      <point x="350.805" y="172.32" type="line"/>
      <point x="307.7" y="229.39" type="line"/>
      <point x="323.545" y="250.505"/>
      <point x="334.06499999999994" y="277.09499999999997"/>
      <point x="335.05499999999995" y="305.345" type="curve" smooth="yes"/>
      <point x="336.045" y="322.53499999999997"/>
      <point x="333.28999999999996" y="338.96000000000004"/>
      <point x="327.78999999999996" y="353.89" type="curve"/>
      <point x="388.77000000000004" y="410.96" type="line"/>
      <point x="338.04999999999995" y="479.575" type="line"/>
      <point x="271.51500000000004" y="417.665" type="line"/>
      <point x="258.78499999999997" y="427.32500000000005"/>
      <point x="242.26500000000001" y="433.27500000000003"/>
      <point x="223.475" y="433.27500000000003" type="curve" smooth="yes"/>
      <point x="203.815" y="433.27500000000003"/>
      <point x="185.14499999999998" y="426.83"/>
      <point x="168.735" y="417.225" type="curve"/>
      <point x="123.36000000000001" y="479.575" type="line"/>
      <point x="50.785000000000004" y="410.96" type="line"/>
      <point x="93.84" y="352.09499999999997" type="line"/>
      <point x="78.83" y="332.105"/>
      <point x="69.255" y="307.295"/>
      <point x="68.265" y="280.57500000000005" type="curve" smooth="yes"/>
      <point x="67.27499999999999" y="262.725"/>
      <point x="69.535" y="245.73"/>
      <point x="75.09" y="231.14" type="curve"/>
      <point x="12.764999999999999" y="172.32" type="line"/>
    </contour>
    <contour>
      <point x="191.25" y="225.51000000000002" type="curve" smooth="yes"/>
      <point x="159.455" y="225.51000000000002"/>
      <point x="138.78000000000003" y="249.065"/>
      <point x="140.265" y="282.84" type="curve" smooth="yes"/>
      <point x="141.75" y="324.875"/>
      <point x="175.14" y="359.705"/>
      <point x="212.05999999999997" y="359.705" type="curve" smooth="yes"/>
      <point x="244.315" y="359.705"/>
      <point x="264.09" y="334.6"/>
      <point x="262.60499999999996" y="301.51" type="curve" smooth="yes"/>
      <point x="261.12" y="258.725"/>
      <point x="228.555" y="225.51000000000002"/>
    </contour>
  </outline>
</glyph>
<glyph name="yen" format="2">
  <advance width="415.25"/>
  <unicode hex="00A5"/>
  <outline>
    <contour>
      <point x="70.3" y="312.9" type="line"/>
      <point x="162.325" y="312.9" type="line"/>
      <point x="152.975" y="255.60000000000002" type="line"/>
      <point x="61.825" y="255.60000000000002" type="line"/>
      <point x="50.525" y="187.325" type="line"/>
      <point x="142.35000000000002" y="187.325" type="line"/>
      <point x="112.825" y="0.0" type="line"/>
      <point x="217.0" y="0.0" type="line"/>
      <point x="246.85000000000002" y="187.325" type="line"/>
      <point x="340.77500000000003" y="187.325" type="line"/>
      <point x="351.17500000000007" y="255.60000000000002" type="line"/>
      <point x="257.15000000000003" y="255.60000000000002" type="line"/>
      <point x="266.50000000000006" y="312.9" type="line"/>
      <point x="360.625" y="312.9" type="line"/>
      <point x="371.25" y="380.74999999999994" type="line"/>
      <point x="278.1" y="380.74999999999994" type="line"/>
      <point x="445.57500000000005" y="700.45" type="line"/>
      <point x="334.7" y="703.6" type="line"/>
      <point x="238.425" y="459.67500000000007" type="line"/>
      <point x="215.60000000000002" y="701.175" type="line"/>
      <point x="104.425" y="699.7" type="line"/>
      <point x="173.05" y="380.74999999999994" type="line"/>
      <point x="81.14999999999999" y="380.74999999999994" type="line"/>
    </contour>
  </outline>
</glyph>
<glyph name="brokenbar" format="2">
  <advance width="158.51"/>
  <unicode hex="00A6"/>
  <outline>
    <contour>
      <point x="142.32500000000002" y="391.0" type="line"/>
      <point x="207.37" y="790.495" type="line"/>
      <point x="117.86999999999999" y="790.495" type="line"/>
      <point x="52.824999999999996" y="391.0" type="line"/>
    </contour>
    <contour>
      <point x="20.284999999999997" y="190.495" type="line"/>
      <point x="-43.86" y="-210.0" type="line"/>
      <point x="45.58500000000001" y="-210.0" type="line"/>
      <point x="110.22500000000001" y="190.495" type="line"/>
    </contour>
  </outline>
</glyph>
<glyph name="section" format="2">
  <advance width="399.385"/>
  <unicode hex="00A7"/>
  <outline>
    <contour>
      <point x="7.070000000000001" y="-73.02" type="curve"/>
      <point x="-34.495" y="-182.795" type="line"/>
      <point x="-0.8850000000000007" y="-207.18"/>
      <point x="50.07" y="-220.0"/>
      <point x="85.77499999999999" y="-220.0" type="curve" smooth="yes"/>
      <point x="250.45000000000002" y="-220.0"/>
      <point x="351.89500000000004" y="-30.664999999999996"/>
      <point x="351.89500000000004" y="150.835" type="curve" smooth="yes"/>
      <point x="351.89500000000004" y="297.895"/>
      <point x="272.49" y="403.375"/>
      <point x="272.49" y="529.9399999999999" type="curve" smooth="yes"/>
      <point x="272.49" y="585.66"/>
      <point x="296.23999999999995" y="629.8299999999999"/>
      <point x="336.715" y="629.8299999999999" type="curve" smooth="yes"/>
      <point x="348.97999999999996" y="629.8299999999999"/>
      <point x="358.15999999999997" y="625.4449999999999"/>
      <point x="371.73" y="618.275" type="curve"/>
      <point x="412.97499999999997" y="729.135" type="line"/>
      <point x="389.68" y="743.105"/>
      <point x="346.065" y="749.495"/>
      <point x="319.44500000000005" y="749.495" type="curve" smooth="yes"/>
      <point x="142.37" y="749.495"/>
      <point x="48.004999999999995" y="575.935"/>
      <point x="48.004999999999995" y="388.575" type="curve" smooth="yes"/>
      <point x="48.004999999999995" y="222.05"/>
      <point x="126.97999999999999" y="94.19000000000001"/>
      <point x="126.97999999999999" y="-19.79" type="curve" smooth="yes"/>
      <point x="126.97999999999999" y="-63.97"/>
      <point x="104.9" y="-101.21499999999999"/>
      <point x="68.515" y="-101.21499999999999" type="curve" smooth="yes"/>
      <point x="47.459999999999994" y="-101.21499999999999"/>
      <point x="25.26" y="-91.79999999999998"/>
    </contour>
    <contour>
      <point x="266.89000000000004" y="676.74" type="curve"/>
      <point x="218.605" y="637.695"/>
      <point x="199.28" y="573.385"/>
      <point x="199.28" y="515.785" type="curve" smooth="yes"/>
      <point x="199.28" y="376.79499999999996"/>
      <point x="274.44" y="270.22499999999997"/>
      <point x="274.44" y="128.31" type="curve" smooth="yes"/>
      <point x="274.44" y="1.0300000000000011"/>
      <point x="206.865" y="-138.18"/>
      <point x="109.285" y="-150.99499999999998" type="curve"/>
      <point x="176.305" y="-119.525"/>
      <point x="201.685" y="-51.91"/>
      <point x="201.685" y="12.83000000000001" type="curve" smooth="yes"/>
      <point x="201.685" y="138.89000000000001"/>
      <point x="126.04" y="260.925"/>
      <point x="126.04" y="397.625" type="curve" smooth="yes"/>
      <point x="126.04" y="522.9300000000001"/>
      <point x="172.63" y="639.325"/>
    </contour>
  </outline>
</glyph>
<glyph name="copyright" format="2">
  <advance width="543.985"/>
  <unicode hex="00A9"/>
  <outline>
    <contour>
      <point x="244.11999999999998" y="-10.1" type="curve" smooth="yes"/>
      <point x="435.08" y="-10.31"/>
      <point x="527.005" y="231.88"/>
      <point x="527.005" y="471.71500000000003" type="curve" smooth="yes"/>
      <point x="527.005" y="627.5400000000001"/>
      <point x="455.78" y="710.655"/>
      <point x="324.355" y="710.865" type="curve" smooth="yes"/>
      <point x="133.65" y="711.075"/>
      <point x="40.485" y="469.81499999999994"/>
      <point x="40.485" y="229.15" type="curve" smooth="yes"/>
      <point x="40.485" y="73.60499999999999"/>
      <point x="111.55000000000001" y="-9.89"/>
    </contour>
    <contour>
      <point x="268.45500000000004" y="139.82" type="curve" smooth="yes"/>
      <point x="290.77000000000004" y="139.82"/>
      <point x="318.51500000000004" y="145.21"/>
      <point x="335.4700000000001" y="153.415" type="curve"/>
      <point x="334.26000000000005" y="215.935" type="line"/>
      <point x="322.01500000000004" y="211.595"/>
      <point x="303.72" y="208.715"/>
      <point x="290.87" y="208.715" type="curve" smooth="yes"/>
      <point x="260.67499999999995" y="208.715"/>
      <point x="243.36" y="235.76000000000002"/>
      <point x="243.36" y="281.82" type="curve" smooth="yes"/>
      <point x="243.36" y="380.885"/>
      <point x="278.17" y="479.115"/>
      <point x="328.85499999999996" y="479.115" type="curve" smooth="yes"/>
      <point x="342.455" y="479.115"/>
      <point x="354.125" y="477.59499999999997"/>
      <point x="366.26000000000005" y="472.77500000000003" type="curve"/>
      <point x="387.56" y="543.8849999999999" type="line"/>
      <point x="374.43999999999994" y="549.905"/>
      <point x="355.7" y="554.4549999999999"/>
      <point x="329.57" y="554.4549999999999" type="curve" smooth="yes"/>
      <point x="245.60499999999996" y="554.4549999999999"/>
      <point x="169.58" y="438.2"/>
      <point x="169.58" y="281.13" type="curve" smooth="yes"/>
      <point x="169.58" y="186.405"/>
      <point x="205.605" y="139.82"/>
    </contour>
    <contour>
      <point x="247.73499999999999" y="29.910000000000004" type="curve" smooth="yes"/>
      <point x="140.125" y="29.910000000000004"/>
      <point x="83.195" y="97.00000000000001"/>
      <point x="83.195" y="231.2" type="curve" smooth="yes"/>
      <point x="83.195" y="442.10999999999996"/>
      <point x="156.98" y="670.9449999999999"/>
      <point x="320.47499999999997" y="670.9449999999999" type="curve" smooth="yes"/>
      <point x="427.03499999999997" y="670.9449999999999"/>
      <point x="484.2950000000001" y="603.765"/>
      <point x="484.2950000000001" y="469.775" type="curve" smooth="yes"/>
      <point x="484.2950000000001" y="259.065"/>
      <point x="411.03000000000003" y="29.910000000000004"/>
    </contour>
  </outline>
</glyph>
<glyph name="ordfeminine" format="2">
  <advance width="270.32"/>
  <unicode hex="00AA"/>
  <outline>
    <contour>
      <point x="29.185" y="263.33" type="line"/>
      <point x="240.70000000000002" y="263.33" type="line"/>
      <point x="249.64000000000001" y="320.615" type="line"/>
      <point x="38.125" y="320.615" type="line"/>
    </contour>
    <component base="a.superior" xOffset="9.260000000000002"/>
  </outline>
</glyph>
<glyph name="logicalnot" format="2">
  <advance width="392.69999999999993"/>
  <unicode hex="00AC"/>
  <outline>
    <contour>
      <point x="53.53" y="336.08000000000004" type="line"/>
      <point x="263.0" y="336.08000000000004" type="line"/>
      <point x="238.68" y="176.61499999999998" type="line"/>
      <point x="333.04" y="176.61499999999998" type="line"/>
      <point x="372.955" y="429.705" type="line"/>
      <point x="69.125" y="429.705" type="line"/>
    </contour>
  </outline>
</glyph>
<glyph name="registered" format="2">
  <advance width="501.21000000000004"/>
  <unicode hex="00AE"/>
  <outline>
    <contour>
      <point x="250.605" y="208.29000000000002" type="curve" smooth="yes"/>
      <point x="407.54499999999996" y="208.29000000000002"/>
      <point x="516.585" y="410.53499999999997"/>
      <point x="516.585" y="667.485" type="curve" smooth="yes"/>
      <point x="516.585" y="811.6700000000001"/>
      <point x="455.20500000000004" y="893.7199999999999"/>
      <point x="337.61999999999995" y="893.7199999999999" type="curve" smooth="yes"/>
      <point x="180.68" y="893.7199999999999"/>
      <point x="72.23" y="691.225"/>
      <point x="72.23" y="434.525" type="curve" smooth="yes"/>
      <point x="72.23" y="290.43"/>
      <point x="132.92999999999998" y="208.29000000000002"/>
    </contour>
    <contour>
      <point x="253.415" y="245.555" type="curve" smooth="yes"/>
      <point x="159.655" y="245.555"/>
      <point x="110.965" y="315.49"/>
      <point x="110.965" y="433.9" type="curve" smooth="yes"/>
      <point x="110.965" y="668.1249999999999"/>
      <point x="201.385" y="856.295"/>
      <point x="334.9" y="856.295" type="curve" smooth="yes"/>
      <point x="428.66" y="856.295"/>
      <point x="477.84999999999997" y="786.52"/>
      <point x="477.84999999999997" y="667.86" type="curve" smooth="yes"/>
      <point x="477.84999999999997" y="433.635"/>
      <point x="386.84" y="245.555"/>
    </contour>
    <contour>
      <point x="177.97" y="373.27500000000003" type="line"/>
      <point x="244.15" y="373.27500000000003" type="line"/>
      <point x="264.62" y="500.97999999999996" type="line"/>
      <point x="272.06" y="500.07"/>
      <point x="279.57" y="499.07"/>
      <point x="289.67" y="499.56500000000005" type="curve"/>
      <point x="301.31500000000005" y="507.3" type="line"/>
      <point x="366.795" y="514.3149999999999"/>
      <point x="409.615" y="569.9200000000001"/>
      <point x="409.615" y="651.02" type="curve" smooth="yes"/>
      <point x="409.615" y="717.695"/>
      <point x="378.445" y="748.9399999999999"/>
      <point x="318.735" y="748.9399999999999" type="curve" smooth="yes"/>
      <point x="289.5" y="748.9399999999999"/>
      <point x="265.05" y="746.6850000000001"/>
      <point x="236.585" y="742.575" type="curve"/>
    </contour>
    <contour>
      <point x="291.62" y="553.6750000000001" type="curve" smooth="yes"/>
      <point x="285.005" y="553.6750000000001"/>
      <point x="279.5" y="554.93"/>
      <point x="272.945" y="555.83" type="curve"/>
      <point x="293.755" y="686.2600000000001" type="line"/>
      <point x="303.45500000000004" y="687.795"/>
      <point x="308.695" y="688.795"/>
      <point x="317.375" y="688.795" type="curve" smooth="yes"/>
      <point x="336.16" y="688.795"/>
      <point x="344.125" y="675.17"/>
      <point x="344.125" y="649.87" type="curve" smooth="yes"/>
      <point x="344.125" y="595.45"/>
      <point x="323.41499999999996" y="553.6750000000001"/>
    </contour>
    <contour>
      <point x="355.65999999999997" y="368.82" type="curve" smooth="yes"/>
      <point x="360.645" y="368.82"/>
      <point x="371.565" y="370.56"/>
      <point x="376.87500000000006" y="373.04499999999996" type="curve"/>
      <point x="384.61" y="443.335" type="line"/>
      <point x="382.42" y="442.575"/>
      <point x="380.41" y="442.575"/>
      <point x="378.80500000000006" y="442.575" type="curve" smooth="yes"/>
      <point x="360.88500000000005" y="442.575"/>
      <point x="348.325" y="466.86499999999995"/>
      <point x="338.925" y="531.515" type="curve"/>
      <point x="281.59499999999997" y="515.62" type="line"/>
      <point x="302.60499999999996" y="383.51000000000005"/>
      <point x="323.06" y="368.82"/>
    </contour>
  </outline>
</glyph>
<glyph name="degree" format="2">
  <advance width="264.225"/>
  <unicode hex="00B0"/>
  <outline>
    <contour>
      <point x="158.14999999999998" y="435.19" type="curve" smooth="yes"/>
      <point x="245.17999999999998" y="435.19"/>
      <point x="288.96999999999997" y="531.595"/>
      <point x="288.96999999999997" y="613.635" type="curve" smooth="yes"/>
      <point x="288.96999999999997" y="672.28"/>
      <point x="263.95" y="717.99"/>
      <point x="201.72" y="717.99" type="curve" smooth="yes"/>
      <point x="114.46500000000002" y="717.99"/>
      <point x="70.49499999999999" y="621.18"/>
      <point x="70.49499999999999" y="539.2299999999999" type="curve" smooth="yes"/>
      <point x="70.49499999999999" y="479.50500000000005"/>
      <point x="97.495" y="435.19"/>
    </contour>
    <contour>
      <point x="169.92" y="515.26" type="curve" smooth="yes"/>
      <point x="149.475" y="515.26"/>
      <point x="139.98499999999999" y="531.9700000000001"/>
      <point x="139.98499999999999" y="556.49" type="curve" smooth="yes"/>
      <point x="139.98499999999999" y="594.785"/>
      <point x="157.29500000000002" y="635.9399999999999"/>
      <point x="189.04999999999998" y="635.9399999999999" type="curve" smooth="yes"/>
      <point x="210.08" y="635.9399999999999"/>
      <point x="219.48" y="618.42"/>
      <point x="219.48" y="594.305" type="curve" smooth="yes"/>
      <point x="219.48" y="556.2800000000001"/>
      <point x="201.58499999999998" y="515.26"/>
    </contour>
  </outline>
</glyph>
<glyph name="plusminus" format="2">
  <advance width="393.62"/>
  <unicode hex="00B1"/>
  <outline>
    <contour>
      <point x="312.13500000000005" y="33.245" type="line"/>
      <point x="327.73" y="132.225" type="line"/>
      <point x="220.155" y="132.225" type="line"/>
      <point x="242.33" y="270.84000000000003" type="line"/>
      <point x="349.5" y="270.84000000000003" type="line"/>
      <point x="365.095" y="369.81999999999994" type="line"/>
      <point x="257.925" y="369.81999999999994" type="line"/>
      <point x="280.805" y="504.3" type="line"/>
      <point x="188.42499999999998" y="504.3" type="line"/>
      <point x="165.84" y="369.81999999999994" type="line"/>
      <point x="58.025" y="369.81999999999994" type="line"/>
      <point x="42.43" y="270.84000000000003" type="line"/>
      <point x="149.95000000000002" y="270.84000000000003" type="line"/>
      <point x="127.665" y="132.225" type="line"/>
      <point x="20.659999999999997" y="132.225" type="line"/>
      <point x="5.065" y="33.245" type="line"/>
    </contour>
  </outline>
</glyph>
<glyph name="uni00B2" format="2">
  <advance width="257.17499999999995"/>
  <unicode hex="00B2"/>
  <outline>
    <contour>
      <point x="45.75" y="368.73499999999996" type="line"/>
      <point x="236.77" y="368.73499999999996" type="line"/>
      <point x="246.11" y="422.86" type="line"/>
      <point x="134.26999999999998" y="422.86" type="line"/>
      <point x="205.935" y="511.24"/>
      <point x="274.32" y="600.52"/>
      <point x="274.32" y="694.415" type="curve" smooth="yes"/>
      <point x="274.32" y="743.385"/>
      <point x="245.03" y="773.41"/>
      <point x="196.81" y="773.41" type="curve" smooth="yes"/>
      <point x="160.85" y="773.41"/>
      <point x="125.055" y="760.405"/>
      <point x="97.15" y="738.59" type="curve"/>
      <point x="111.82" y="675.17" type="line"/>
      <point x="132.545" y="690.46"/>
      <point x="148.145" y="696.985"/>
      <point x="166.89999999999998" y="696.985" type="curve" smooth="yes"/>
      <point x="187.13500000000002" y="696.985"/>
      <point x="196.82999999999998" y="681.995"/>
      <point x="196.82999999999998" y="659.285" type="curve" smooth="yes"/>
      <point x="196.32500000000002" y="594.025"/>
      <point x="115.22" y="482.375"/>
      <point x="52.644999999999996" y="416.61499999999995" type="curve"/>
    </contour>
  </outline>
</glyph>
<glyph name="uni00B3" format="2">
  <advance width="268.8625"/>
  <unicode hex="00B3"/>
  <outline>
    <contour>
      <point x="42.45" y="393.7875" type="line"/>
      <point x="64.9875" y="374.9875"/>
      <point x="92.5625" y="364.82500000000005"/>
      <point x="130.0" y="364.82500000000005" type="curve" smooth="yes"/>
      <point x="202.9375" y="364.82500000000005"/>
      <point x="264.7375" y="420.33750000000003"/>
      <point x="264.7375" y="508.1625" type="curve" smooth="yes"/>
      <point x="264.7375" y="546.5875000000001"/>
      <point x="247.8875" y="568.75"/>
      <point x="227.075" y="579.1625" type="curve"/>
      <point x="262.67499999999995" y="600.2375"/>
      <point x="288.77500000000003" y="639.375"/>
      <point x="288.77500000000003" y="692.9749999999999" type="curve" smooth="yes"/>
      <point x="288.77500000000003" y="745.1875"/>
      <point x="252.6875" y="774.7375000000001"/>
      <point x="198.8125" y="774.7375000000001" type="curve" smooth="yes"/>
      <point x="165.85" y="774.7375000000001"/>
      <point x="132.1125" y="765.5625"/>
      <point x="105.35000000000001" y="747.4375" type="curve"/>
      <point x="117.825" y="695.3375" type="line"/>
      <point x="134.0125" y="704.125"/>
      <point x="155.5375" y="708.9"/>
      <point x="173.5375" y="708.9" type="curve" smooth="yes"/>
      <point x="201.475" y="708.9"/>
      <point x="217.05" y="693.4125"/>
      <point x="217.05" y="666.3125" type="curve" smooth="yes"/>
      <point x="217.05" y="630.4499999999999"/>
      <point x="194.125" y="600.025"/>
      <point x="164.625" y="600.025" type="curve" smooth="yes"/>
      <point x="131.075" y="600.025" type="line"/>
      <point x="122.19999999999999" y="550.1" type="line"/>
      <point x="158.13750000000002" y="550.1" type="line" smooth="yes"/>
      <point x="186.025" y="550.1"/>
      <point x="199.375" y="534.2375000000001"/>
      <point x="199.375" y="507.71250000000003" type="curve" smooth="yes"/>
      <point x="199.375" y="467.6"/>
      <point x="176.1875" y="427.775"/>
      <point x="129.7" y="427.775" type="curve" smooth="yes"/>
      <point x="108.3875" y="427.775"/>
      <point x="91.275" y="433.6875"/>
      <point x="75.0" y="446.95" type="curve"/>
    </contour>
  </outline>
</glyph>
<glyph name="uni00B5" format="2">
  <advance width="383.865"/>
  <unicode hex="00B5"/>
  <outline>
    <contour>
      <point x="-38.834999999999994" y="-210.0" type="line"/>
      <point x="64.075" y="-210.0" type="line"/>
      <point x="98.42500000000001" y="5.68" type="line"/>
      <point x="103.88000000000001" y="-4.95"/>
      <point x="114.25" y="-10.0"/>
      <point x="128.58" y="-10.0" type="curve" smooth="yes"/>
      <point x="156.46" y="-10.0"/>
      <point x="185.85" y="2.16"/>
      <point x="216.54999999999998" y="32.675000000000004" type="curve"/>
      <point x="224.58499999999998" y="8.225000000000001"/>
      <point x="248.465" y="-10.0"/>
      <point x="280.79499999999996" y="-10.0" type="curve" smooth="yes"/>
      <point x="301.335" y="-10.0"/>
      <point x="328.66499999999996" y="-2.4149999999999996"/>
      <point x="345.54" y="9.46" type="curve"/>
      <point x="354.16" y="95.15" type="line"/>
      <point x="346.46999999999997" y="92.185"/>
      <point x="338.53499999999997" y="90.83500000000001"/>
      <point x="334.22999999999996" y="90.83500000000001" type="curve" smooth="yes"/>
      <point x="321.62" y="90.83500000000001"/>
      <point x="317.02000000000004" y="98.54500000000002"/>
      <point x="317.02000000000004" y="111.99000000000002" type="curve" smooth="yes"/>
      <point x="317.02000000000004" y="119.77"/>
      <point x="318.83" y="134.025"/>
      <point x="384.26000000000005" y="541.0" type="curve"/>
      <point x="281.285" y="541.0" type="line"/>
      <point x="212.725" y="111.22000000000001" type="line"/>
      <point x="191.76500000000001" y="96.745"/>
      <point x="169.47" y="89.37000000000002"/>
      <point x="151.79" y="89.37000000000002" type="curve" smooth="yes"/>
      <point x="129.245" y="89.37000000000002"/>
      <point x="117.69500000000001" y="102.67500000000001"/>
      <point x="118.68500000000002" y="124.25000000000001" type="curve" smooth="yes"/>
      <point x="130.07000000000002" y="191.13000000000002"/>
      <point x="148.67" y="322.73999999999995"/>
      <point x="183.32999999999998" y="541.0" type="curve"/>
      <point x="79.905" y="541.0" type="line"/>
    </contour>
  </outline>
</glyph>
<glyph name="paragraph" format="2">
  <advance width="476.995"/>
  <unicode hex="00B6"/>
  <outline>
    <contour>
      <point x="279.18" y="-210.0" type="line"/>
      <point x="360.04499999999996" y="-210.0" type="line"/>
      <point x="511.585" y="740.0" type="line"/>
      <point x="430.71999999999997" y="740.0" type="line"/>
    </contour>
    <contour>
      <point x="199.27499999999998" y="293.305" type="line"/>
      <point x="165.355" y="301.79"/>
      <point x="143.85500000000002" y="342.785"/>
      <point x="143.85500000000002" y="406.08500000000004" type="curve" smooth="yes"/>
      <point x="143.85500000000002" y="516.705"/>
      <point x="187.705" y="637.015"/>
      <point x="278.46500000000003" y="640.5699999999999" type="curve"/>
      <point x="143.45499999999998" y="-210.0" type="line"/>
      <point x="224.32" y="-210.0" type="line"/>
      <point x="375.86" y="740.0" type="line"/>
      <point x="323.65999999999997" y="740.0" type="line" smooth="yes"/>
      <point x="149.24999999999997" y="740.0"/>
      <point x="52.230000000000004" y="581.6949999999999"/>
      <point x="52.230000000000004" y="399.215" type="curve" smooth="yes"/>
      <point x="52.230000000000004" y="304.96000000000004"/>
      <point x="91.58000000000001" y="237.555"/>
      <point x="175.85000000000002" y="217.735" type="curve"/>
    </contour>
  </outline>
</glyph>
<glyph name="periodcentered" format="2">
  <advance width="161.56499999999997"/>
  <unicode hex="00B7"/>
  <outline>
    <contour>
      <point x="25.9525" y="287.76250000000005" type="curve" smooth="yes"/>
      <point x="25.052499999999995" y="252.5475"/>
      <point x="38.82500000000001" y="236.8975"/>
      <point x="74.58749999999999" y="236.8975" type="curve" smooth="yes"/>
      <point x="128.13500000000002" y="236.8975"/>
      <point x="144.37250000000003" y="286.8075"/>
      <point x="145.27250000000004" y="331.46999999999997" type="curve" smooth="yes"/>
      <point x="146.1725" y="365.51250000000005"/>
      <point x="132.51250000000005" y="381.50000000000006"/>
      <point x="97.41250000000001" y="381.50000000000006" type="curve" smooth="yes"/>
      <point x="44.7525" y="381.50000000000006"/>
      <point x="26.8525" y="332.16"/>
    </contour>
  </outline>
</glyph>
<glyph name="uni00B9" format="2">
  <advance width="245.41"/>
  <unicode hex="00B9"/>
  <outline>
    <contour>
      <point x="40.955" y="370.0" type="line"/>
      <point x="239.39" y="370.0" type="line"/>
      <point x="249.805" y="428.97499999999997" type="line"/>
      <point x="189.135" y="428.97499999999997" type="line"/>
      <point x="246.275" y="768.5899999999999" type="line"/>
      <point x="209.635" y="768.5899999999999" type="line"/>
      <point x="92.855" y="716.47" type="line"/>
      <point x="97.395" y="651.01" type="line"/>
      <point x="162.37" y="684.09" type="line"/>
      <point x="119.72" y="428.97499999999997" type="line"/>
      <point x="50.74" y="428.97499999999997" type="line"/>
    </contour>
  </outline>
</glyph>
<glyph name="ordmasculine" format="2">
  <advance width="253.19"/>
  <unicode hex="00BA"/>
  <outline>
    <contour>
      <point x="29.16" y="263.33" type="line"/>
      <point x="220.145" y="263.33" type="line"/>
      <point x="228.68" y="320.615" type="line"/>
      <point x="37.69499999999999" y="320.615" type="line"/>
    </contour>
    <component base="o.superior" xOffset="12.05"/>
  </outline>
</glyph>
<glyph name="AE" format="2">
  <advance width="571.3875"/>
  <unicode hex="00C6"/>
  <anchor x="251.19481" y="0.0" name="bottom"/>
  <anchor x="371.18250000000006" y="700.0" name="top"/>
  <outline>
    <contour>
      <point x="216.25750000000002" y="0.0" type="line"/>
      <point x="512.915" y="0.0" type="line"/>
      <point x="528.5550000000001" y="99.1825" type="line"/>
      <point x="335.435" y="99.1825" type="line"/>
      <point x="366.95750000000004" y="300.42" type="line"/>
      <point x="528.93" y="300.42" type="line"/>
      <point x="544.7549999999999" y="395.0775" type="line"/>
      <point x="382.355" y="395.0775" type="line"/>
      <point x="414.44" y="598.6800000000001" type="line"/>
      <point x="596.795" y="598.6800000000001" type="line"/>
      <point x="613.8525000000001" y="700.0" type="line"/>
      <point x="252.4325" y="700.0" type="line"/>
      <point x="-40.625" y="0.0" type="line"/>
      <point x="70.5425" y="0.0" type="line"/>
      <point x="157.95749999999998" y="206.35" type="line"/>
      <point x="248.33499999999995" y="206.35" type="line"/>
    </contour>
    <contour>
      <point x="192.56" y="304.12249999999995" type="line"/>
      <point x="312.2825" y="613.6850000000001" type="line"/>
      <point x="263.68" y="304.12249999999995" type="line"/>
    </contour>
  </outline>
</glyph>
<glyph name="multiply" format="2">
  <advance width="376.55"/>
  <unicode hex="00D7"/>
  <outline>
    <contour>
      <point x="82.53" y="119.3125" type="line"/>
      <point x="184.0325" y="243.58499999999998" type="line"/>
      <point x="245.21499999999997" y="119.15249999999999" type="line"/>
      <point x="320.01750000000004" y="188.28749999999997" type="line"/>
      <point x="257.825" y="315.6925" type="line"/>
      <point x="362.41" y="445.11250000000007" type="line"/>
      <point x="307.625" y="513.6875" type="line"/>
      <point x="206.33749999999998" y="388.94499999999994" type="line"/>
      <point x="144.245" y="513.8075" type="line"/>
      <point x="69.045" y="445.2125" type="line"/>
      <point x="132.0225" y="316.735" type="line"/>
      <point x="27.307499999999997" y="187.61249999999998" type="line"/>
    </contour>
  </outline>
</glyph>
<glyph name="Oslash" format="2">
  <advance width="437.9750000000001"/>
  <unicode hex="00D8"/>
  <anchor x="279.40000000000003" y="700.0" name="top"/>
  <outline>
    <contour>
      <point x="470.875" y="710.25" type="line"/>
      <point x="396.85" y="710.25" type="line"/>
      <point x="348.32500000000005" y="629.0" type="line"/>
      <point x="344.34999999999997" y="630.075" type="line"/>
      <point x="77.44999999999999" y="146.40000000000003" type="line"/>
      <point x="74.3" y="148.175" type="line"/>
      <point x="-14.499999999999998" y="-4.85" type="line"/>
      <point x="59.675000000000004" y="-4.85" type="line"/>
      <point x="106.1" y="72.925" type="line"/>
      <point x="110.075" y="71.85" type="line"/>
      <point x="378.75" y="559.0249999999999" type="line"/>
      <point x="381.875" y="557.25" type="line"/>
    </contour>
    <contour>
      <point x="185.54999999999998" y="-9.450000000000001" type="curve" smooth="yes"/>
      <point x="363.3" y="-9.450000000000001"/>
      <point x="434.92500000000007" y="293.625"/>
      <point x="435.20000000000005" y="502.99999999999994" type="curve" smooth="yes"/>
      <point x="435.40000000000003" y="643.9999999999999"/>
      <point x="383.1" y="709.4499999999999"/>
      <point x="270.975" y="709.4499999999999" type="curve" smooth="yes"/>
      <point x="97.125" y="709.4499999999999"/>
      <point x="21.6" y="406.6"/>
      <point x="21.325000000000003" y="197.45" type="curve" smooth="yes"/>
      <point x="21.125" y="55.775"/>
      <point x="73.42500000000001" y="-9.450000000000001"/>
    </contour>
    <contour>
      <point x="193.125" y="90.17500000000003" type="curve" smooth="yes"/>
      <point x="149.97500000000002" y="90.17500000000003"/>
      <point x="124.12500000000001" y="117.62500000000003"/>
      <point x="124.12500000000001" y="190.79999999999998" type="curve" smooth="yes"/>
      <point x="124.12500000000001" y="326.82499999999993"/>
      <point x="177.60000000000002" y="609.825"/>
      <point x="266.025" y="609.825" type="curve" smooth="yes"/>
      <point x="307.65" y="609.825"/>
      <point x="333.225" y="583.05"/>
      <point x="333.225" y="510.74999999999994" type="curve" smooth="yes"/>
      <point x="333.225" y="382.525"/>
      <point x="279.3" y="90.17500000000003"/>
    </contour>
  </outline>
</glyph>
<glyph name="Thorn" format="2">
  <advance width="403.29999999999995"/>
  <unicode hex="00DE"/>
  <outline>
    <contour>
      <point x="-5.525" y="0.0" type="line"/>
      <point x="99.68750000000001" y="0.0" type="line"/>
      <point x="119.95" y="126.675" type="line"/>
      <point x="147.8625" y="123.9125"/>
      <point x="163.5125" y="123.77499999999999"/>
      <point x="187.9625" y="123.77499999999999" type="curve" smooth="yes"/>
      <point x="321.4375" y="123.77499999999999"/>
      <point x="408.0125" y="255.10000000000002"/>
      <point x="408.0125" y="447.175" type="curve" smooth="yes"/>
      <point x="408.0125" y="559.275"/>
      <point x="361.98749999999995" y="619.05"/>
      <point x="244.175" y="619.05" type="curve" smooth="yes"/>
      <point x="232.38750000000002" y="619.05"/>
      <point x="217.7375" y="618.4625000000001"/>
      <point x="197.92499999999998" y="617.2249999999999" type="curve"/>
      <point x="211.0625" y="700.0" type="line"/>
      <point x="105.85" y="700.0" type="line"/>
    </contour>
    <contour>
      <point x="182.66250000000002" y="220.35" type="curve" smooth="yes"/>
      <point x="163.22500000000002" y="220.35"/>
      <point x="152.63750000000002" y="220.79999999999998"/>
      <point x="136.83749999999998" y="222.7125" type="curve"/>
      <point x="182.3125" y="518.6875" type="line"/>
      <point x="205.6" y="521.5"/>
      <point x="217.92499999999998" y="522.5"/>
      <point x="232.375" y="522.5" type="curve" smooth="yes"/>
      <point x="281.95" y="522.5"/>
      <point x="304.0375" y="497.6125"/>
      <point x="304.0375" y="438.04999999999995" type="curve" smooth="yes"/>
      <point x="304.0375" y="310.2"/>
      <point x="258.28749999999997" y="220.35"/>
    </contour>
  </outline>
</glyph>
<glyph name="germandbls" format="2">
  <advance width="487.46250000000003"/>
  <unicode hex="00DF"/>
  <outline>
    <contour>
      <point x="12.435" y="-26.194999999999993" type="line" smooth="yes"/>
      <point x="2.7399999999999998" y="-85.88"/>
      <point x="-14.8525" y="-118.33749999999999"/>
      <point x="-51.805" y="-118.33749999999999" type="curve" smooth="yes"/>
      <point x="-63.1075" y="-118.33749999999999"/>
      <point x="-73.32000000000001" y="-117.1925"/>
      <point x="-88.83250000000001" y="-112.2225" type="curve"/>
      <point x="-116.55499999999999" y="-206.0825" type="line"/>
      <point x="-92.2575" y="-215.565"/>
      <point x="-67.3575" y="-220.0"/>
      <point x="-41.31499999999999" y="-220.0" type="curve" smooth="yes"/>
      <point x="50.657500000000006" y="-220.0"/>
      <point x="95.41" y="-157.375"/>
      <point x="115.2175" y="-31.837499999999995" type="curve" smooth="yes"/>
      <point x="201.69750000000002" y="518.0775" type="line" smooth="yes"/>
      <point x="214.9375" y="601.5725"/>
      <point x="252.1725" y="650.2975"/>
      <point x="317.6375" y="650.2975" type="curve" smooth="yes"/>
      <point x="357.59" y="650.2975"/>
      <point x="377.5325" y="636.7099999999999"/>
      <point x="377.5325" y="607.1575" type="curve" smooth="yes"/>
      <point x="377.5325" y="576.8800000000001"/>
      <point x="364.5025" y="557.4225"/>
      <point x="314.13750000000005" y="525.2775" type="curve" smooth="yes"/>
      <point x="253.83499999999998" y="487.075"/>
      <point x="219.7975" y="443.8425"/>
      <point x="219.7975" y="367.73499999999996" type="curve" smooth="yes"/>
      <point x="219.7975" y="301.055"/>
      <point x="255.425" y="262.94749999999993"/>
      <point x="308.315" y="228.04999999999998" type="curve" smooth="yes"/>
      <point x="350.84000000000003" y="199.875"/>
      <point x="362.4925" y="183.3025"/>
      <point x="362.4925" y="157.66000000000003" type="curve" smooth="yes"/>
      <point x="362.4925" y="117.62500000000001"/>
      <point x="329.05" y="87.3425"/>
      <point x="280.2525" y="87.3425" type="curve" smooth="yes"/>
      <point x="247.06" y="87.3425"/>
      <point x="211.0725" y="94.6025"/>
      <point x="181.78" y="105.605" type="curve"/>
      <point x="156.19750000000002" y="15.9475" type="line"/>
      <point x="187.2275" y="0.9700000000000002"/>
      <point x="229.48" y="-9.99"/>
      <point x="279.94" y="-9.99" type="curve" smooth="yes"/>
      <point x="401.39000000000004" y="-9.99"/>
      <point x="468.5675" y="57.7425"/>
      <point x="468.5675" y="169.0225" type="curve" smooth="yes"/>
      <point x="468.5675" y="233.825"/>
      <point x="439.31" y="270.73499999999996"/>
      <point x="386.9175" y="305.595" type="curve" smooth="yes"/>
      <point x="335.73" y="340.37"/>
      <point x="320.39500000000004" y="355.1675"/>
      <point x="320.39500000000004" y="382.4" type="curve" smooth="yes"/>
      <point x="320.39500000000004" y="411.91749999999996"/>
      <point x="336.06" y="431.205"/>
      <point x="393.1275" y="464.88000000000005" type="curve" smooth="yes"/>
      <point x="453.60249999999996" y="500.91499999999996"/>
      <point x="485.90000000000003" y="540.4074999999999"/>
      <point x="485.90000000000003" y="617.235" type="curve" smooth="yes"/>
      <point x="485.90000000000003" y="702.885"/>
      <point x="425.75" y="750.0"/>
      <point x="325.58500000000004" y="750.0" type="curve" smooth="yes"/>
      <point x="189.86749999999998" y="750.0"/>
      <point x="122.8475" y="674.1724999999999"/>
      <point x="100.975" y="534.2175" type="curve" smooth="yes"/>
      <point x="96.68999999999998" y="506.3875" type="line"/>
      <point x="43.457499999999996" y="498.925" type="line"/>
      <point x="28.8725" y="413.345" type="line"/>
      <point x="81.38" y="413.345" type="line"/>
    </contour>
  </outline>
</glyph>
<glyph name="ae" format="2">
  <advance width="579.6"/>
  <unicode hex="00E6"/>
  <anchor x="256.625" y="0.0" name="bottom"/>
  <anchor x="336.35" y="541.0" name="top"/>
  <outline>
    <contour>
      <point x="120.4" y="-10.0" type="curve" smooth="yes"/>
      <point x="151.875" y="-10.0"/>
      <point x="178.32500000000002" y="-0.3500000000000001"/>
      <point x="204.175" y="27.425" type="curve"/>
      <point x="198.575" y="-4.05" type="line"/>
      <point x="294.27500000000003" y="-4.05" type="line"/>
      <point x="304.5" y="60.825" type="line"/>
      <point x="324.35" y="18.849999999999998"/>
      <point x="365.52500000000003" y="-8.924999999999999"/>
      <point x="416.82500000000005" y="-8.924999999999999" type="curve" smooth="yes"/>
      <point x="456.0" y="-8.924999999999999"/>
      <point x="497.5" y="0.20000000000000018"/>
      <point x="530.875" y="21.400000000000002" type="curve"/>
      <point x="517.2499999999999" y="114.14999999999999" type="line"/>
      <point x="481.7" y="97.90000000000002"/>
      <point x="451.27500000000003" y="90.425"/>
      <point x="420.52500000000003" y="90.425" type="curve" smooth="yes"/>
      <point x="369.975" y="90.425"/>
      <point x="335.37500000000006" y="132.05"/>
      <point x="335.37500000000006" y="203.52500000000003" type="curve" smooth="yes"/>
      <point x="335.37500000000006" y="335.42500000000007"/>
      <point x="379.575" y="458.32500000000005"/>
      <point x="447.575" y="458.32500000000005" type="curve" smooth="yes"/>
      <point x="472.925" y="458.32500000000005"/>
      <point x="485.125" y="446.5"/>
      <point x="485.125" y="417.25" type="curve" smooth="yes"/>
      <point x="485.125" y="369.325"/>
      <point x="450.075" y="326.575"/>
      <point x="392.54999999999995" y="302.2" type="curve" smooth="yes"/>
      <point x="368.2" y="291.65"/>
      <point x="341.52500000000003" y="285.525"/>
      <point x="312.17500000000007" y="284.82500000000005" type="curve"/>
      <point x="298.27500000000003" y="209.625" type="line"/>
      <point x="336.575" y="209.79999999999998"/>
      <point x="377.525" y="216.225"/>
      <point x="415.20000000000005" y="229.775" type="curve" smooth="yes"/>
      <point x="517.0500000000001" y="264.55"/>
      <point x="583.775" y="342.625"/>
      <point x="583.775" y="438.725" type="curve" smooth="yes"/>
      <point x="583.775" y="506.82499999999993"/>
      <point x="549.6499999999999" y="551.0"/>
      <point x="484.825" y="551.0" type="curve" smooth="yes"/>
      <point x="439.17499999999995" y="551.0"/>
      <point x="399.6" y="527.95"/>
      <point x="369.175" y="485.90000000000003" type="curve"/>
      <point x="379.79999999999995" y="550.0" type="line"/>
      <point x="286.34999999999997" y="550.0" type="line"/>
      <point x="283.075" y="530.325" type="line"/>
      <point x="266.79999999999995" y="545.3000000000001"/>
      <point x="245.07500000000002" y="551.0"/>
      <point x="221.8" y="551.0" type="curve" smooth="yes"/>
      <point x="99.5" y="551.0"/>
      <point x="13.299999999999999" y="386.45"/>
      <point x="13.299999999999999" y="152.025" type="curve" smooth="yes"/>
      <point x="13.299999999999999" y="48.5"/>
      <point x="53.125" y="-10.0"/>
    </contour>
    <contour>
      <point x="166.37500000000003" y="78.275" type="curve" smooth="yes"/>
      <point x="139.35" y="78.275"/>
      <point x="121.45000000000002" y="105.175"/>
      <point x="121.45000000000002" y="158.0" type="curve" smooth="yes"/>
      <point x="121.45000000000002" y="305.87499999999994"/>
      <point x="173.1" y="457.05"/>
      <point x="235.65" y="457.05" type="curve" smooth="yes"/>
      <point x="248.72500000000002" y="457.05"/>
      <point x="260.35" y="454.675"/>
      <point x="269.82500000000005" y="446.775" type="curve"/>
      <point x="215.1" y="94.65" type="line"/>
      <point x="201.05" y="84.525"/>
      <point x="183.275" y="78.275"/>
    </contour>
  </outline>
</glyph>
<glyph name="eth" format="2">
  <advance width="378.25"/>
  <unicode hex="00F0"/>
  <outline>
    <contour>
      <point x="289.87500000000006" y="428.35" type="curve"/>
      <point x="307.82500000000005" y="509.09999999999997" type="line"/>
      <point x="284.15" y="526.7750000000001"/>
      <point x="249.8" y="534.925"/>
      <point x="218.55" y="534.925" type="curve" smooth="yes"/>
      <point x="75.025" y="534.925"/>
      <point x="10.85" y="330.7"/>
      <point x="10.85" y="159.05" type="curve" smooth="yes"/>
      <point x="10.85" y="40.925"/>
      <point x="65.17500000000001" y="-9.700000000000001"/>
      <point x="151.85000000000002" y="-9.700000000000001" type="curve" smooth="yes"/>
      <point x="273.45" y="-9.700000000000001"/>
      <point x="327.77500000000003" y="70.3"/>
      <point x="367.275" y="319.95000000000005" type="curve" smooth="yes"/>
      <point x="378.17499999999995" y="389.775"/>
      <point x="385.07500000000005" y="447.77500000000003"/>
      <point x="385.07500000000005" y="495.82500000000005" type="curve" smooth="yes"/>
      <point x="385.07500000000005" y="651.75"/>
      <point x="316.30000000000007" y="734.9249999999998"/>
      <point x="178.325" y="734.9249999999998" type="curve" smooth="yes"/>
      <point x="142.40000000000003" y="734.9249999999998"/>
      <point x="109.55" y="726.65"/>
      <point x="80.49999999999999" y="719.0999999999999" type="curve"/>
      <point x="84.87499999999999" y="640.9750000000001" type="line"/>
      <point x="105.85" y="645.2"/>
      <point x="127.70000000000003" y="650.05"/>
      <point x="156.7" y="650.05" type="curve" smooth="yes"/>
      <point x="244.325" y="650.05"/>
      <point x="281.65000000000003" y="613.2750000000001"/>
      <point x="281.65000000000003" y="516.175" type="curve" smooth="yes"/>
      <point x="281.65000000000003" y="473.22499999999997"/>
      <point x="277.59999999999997" y="416.725"/>
      <point x="265.69999999999993" y="343.55" type="curve" smooth="yes"/>
      <point x="230.04999999999998" y="120.825"/>
      <point x="202.6" y="72.475"/>
      <point x="159.85000000000002" y="72.475" type="curve" smooth="yes"/>
      <point x="129.57500000000002" y="72.475"/>
      <point x="111.4" y="93.675"/>
      <point x="111.4" y="140.5" type="curve" smooth="yes"/>
      <point x="111.4" y="250.825"/>
      <point x="153.3" y="450.7"/>
      <point x="233.34999999999997" y="450.7" type="curve" smooth="yes"/>
      <point x="251.675" y="450.7"/>
      <point x="272.42499999999995" y="444.84999999999997"/>
    </contour>
    <contour>
      <point x="164.35000000000002" y="557.3000000000001" type="line"/>
      <point x="293.7" y="639.7" type="line"/>
      <point x="291.75" y="644.1" type="line"/>
      <point x="436.2" y="736.3499999999999" type="line"/>
      <point x="346.35" y="736.4499999999999" type="line"/>
      <point x="254.44999999999996" y="678.0000000000001" type="line"/>
      <point x="257.425" y="674.025" type="line"/>
      <point x="74.94999999999999" y="557.375" type="line"/>
    </contour>
  </outline>
</glyph>
<glyph name="divide" format="2">
  <advance width="393.935"/>
  <unicode hex="00F7"/>
  <outline>
    <contour>
      <point x="119.14500000000001" y="118.62500000000001" type="curve" smooth="yes"/>
      <point x="118.245" y="91.67"/>
      <point x="132.02" y="78.65"/>
      <point x="164.97" y="78.65" type="curve" smooth="yes"/>
      <point x="206.22000000000003" y="78.65"/>
      <point x="226.69" y="99.99"/>
      <point x="228.49" y="151.86499999999998" type="curve" smooth="yes"/>
      <point x="229.39000000000001" y="179.495"/>
      <point x="214.725" y="191.74"/>
      <point x="183.53000000000006" y="191.74" type="curve" smooth="yes"/>
      <point x="140.105" y="191.74"/>
      <point x="120.945" y="162.42499999999998"/>
    </contour>
    <contour>
      <point x="175.89" y="470.12499999999994" type="curve" smooth="yes"/>
      <point x="174.99" y="443.405"/>
      <point x="188.43000000000004" y="430.925"/>
      <point x="220.94" y="430.925" type="curve" smooth="yes"/>
      <point x="262.20000000000005" y="430.925"/>
      <point x="283.19000000000005" y="452.51"/>
      <point x="284.99000000000007" y="503.38500000000005" type="curve" smooth="yes"/>
      <point x="285.89000000000004" y="531.3299999999999"/>
      <point x="271.37" y="543.5649999999999"/>
      <point x="239.94" y="543.5649999999999" type="curve" smooth="yes"/>
      <point x="194.64999999999998" y="543.5649999999999"/>
      <point x="177.69" y="512.0"/>
    </contour>
    <contour>
      <point x="41.595" y="261.67499999999995" type="line"/>
      <point x="348.79999999999995" y="261.67499999999995" type="line"/>
      <point x="364.675" y="361.375" type="line"/>
      <point x="57.245" y="361.375" type="line"/>
    </contour>
  </outline>
</glyph>
<glyph name="oslash" format="2">
  <advance width="375.2"/>
  <unicode hex="00F8"/>
  <anchor x="225.27499999999998" y="541.0" name="top"/>
  <outline>
    <contour>
      <point x="335.85" y="551.325" type="line"/>
      <point x="286.375" y="475.0" type="line"/>
      <point x="282.5" y="476.35" type="line"/>
      <point x="70.14999999999999" y="135.37500000000003" type="line"/>
      <point x="67.525" y="137.65" type="line"/>
      <point x="-27.775" y="-10.0" type="line"/>
      <point x="40.45" y="-10.0" type="line"/>
      <point x="93.75" y="71.97500000000001" type="line"/>
      <point x="97.85000000000001" y="70.625" type="line"/>
      <point x="309.6" y="409.52500000000003" type="line"/>
      <point x="312.0" y="407.25" type="line"/>
      <point x="404.2" y="551.325" type="line"/>
    </contour>
    <contour>
      <point x="160.575" y="-10.0" type="curve" smooth="yes"/>
      <point x="308.925" y="-10.0"/>
      <point x="360.95" y="221.04999999999998"/>
      <point x="360.95" y="394.675" type="curve" smooth="yes"/>
      <point x="360.95" y="505.47499999999997"/>
      <point x="316.175" y="551.325"/>
      <point x="216.97500000000002" y="551.325" type="curve" smooth="yes"/>
      <point x="67.075" y="551.325"/>
      <point x="15.475" y="317.15"/>
      <point x="15.475" y="146.875" type="curve" smooth="yes"/>
      <point x="15.475" y="36.525"/>
      <point x="60.025" y="-10.0"/>
    </contour>
    <contour>
      <point x="161.70000000000002" y="82.45000000000002" type="curve" smooth="yes"/>
      <point x="127.87500000000001" y="82.20000000000002"/>
      <point x="112.0" y="100.6"/>
      <point x="111.725" y="146.125" type="curve" smooth="yes"/>
      <point x="111.1" y="218.62500000000003"/>
      <point x="144.04999999999998" y="458.375"/>
      <point x="215.4" y="458.875" type="curve" smooth="yes"/>
      <point x="248.75" y="459.12500000000006"/>
      <point x="264.65" y="440.05"/>
      <point x="264.925" y="395.42500000000007" type="curve" smooth="yes"/>
      <point x="265.55" y="318.42500000000007"/>
      <point x="231.92499999999998" y="82.92500000000001"/>
    </contour>
  </outline>
</glyph>
<glyph name="thorn" format="2">
  <advance width="382.36249999999995"/>
  <unicode hex="00FE"/>
  <outline>
    <contour>
      <point x="-38.73500000000001" y="-210.0" type="line"/>
      <point x="64.6975" y="-210.0" type="line"/>
      <point x="97.8325" y="-1.8699999999999999" type="line"/>
      <point x="113.08250000000001" y="-5.81"/>
      <point x="131.6275" y="-9.0375"/>
      <point x="156.46749999999997" y="-9.0375" type="curve" smooth="yes"/>
      <point x="294.925" y="-9.0375"/>
      <point x="368.7950000000001" y="180.05"/>
      <point x="368.7950000000001" y="379.7975" type="curve" smooth="yes"/>
      <point x="368.7950000000001" y="499.42"/>
      <point x="340.43999999999994" y="551.0"/>
      <point x="271.385" y="551.0" type="curve" smooth="yes"/>
      <point x="229.84750000000003" y="551.0"/>
      <point x="202.84" y="532.9475"/>
      <point x="179.88750000000002" y="515.4375" type="curve"/>
      <point x="215.3775" y="740.0" type="line"/>
      <point x="111.265" y="740.0" type="line"/>
    </contour>
    <contour>
      <point x="145.52750000000003" y="83.39500000000001" type="curve" smooth="yes"/>
      <point x="133.645" y="83.39500000000001"/>
      <point x="122.25000000000001" y="85.245"/>
      <point x="112.6575" y="89.1325" type="curve"/>
      <point x="166.9425" y="431.925" type="line"/>
      <point x="181.2125" y="441.2175"/>
      <point x="201.26749999999998" y="448.53"/>
      <point x="217.32250000000002" y="448.53" type="curve" smooth="yes"/>
      <point x="246.925" y="448.53"/>
      <point x="261.9325" y="424.75"/>
      <point x="261.9325" y="365.2025" type="curve" smooth="yes"/>
      <point x="261.9325" y="229.65"/>
      <point x="215.1" y="83.39500000000001"/>
    </contour>
  </outline>
</glyph>
<glyph name="Dcroat" format="2">
  <advance width="436.44000000000005"/>
  <unicode hex="0110"/>
  <outline>
    <contour>
      <point x="12.935" y="305.86249999999995" type="line"/>
      <point x="231.405" y="305.86249999999995" type="line"/>
      <point x="248.11499999999998" y="404.5075" type="line"/>
      <point x="29.615000000000002" y="404.5075" type="line"/>
    </contour>
    <component base="D" xOffset="9.392500000000002"/>
  </outline>
</glyph>
<glyph name="dcroat" format="2">
  <advance width="390.59250000000003"/>
  <unicode hex="0111"/>
  <outline>
    <contour>
      <point x="192.02499999999998" y="614.7925" type="line"/>
      <point x="444.35499999999996" y="614.7925" type="line"/>
      <point x="454.41499999999996" y="676.1300000000001" type="line"/>
      <point x="202.51250000000002" y="676.1300000000001" type="line"/>
    </contour>
    <component base="d"/>
  </outline>
</glyph>
<glyph name="Hbar" format="2">
  <advance width="436.59"/>
  <unicode hex="0126"/>
  <outline>
    <contour>
      <point x="38.215" y="501.08500000000004" type="line"/>
      <point x="470.32000000000005" y="501.08500000000004" type="line"/>
      <point x="484.63" y="590.23" type="line"/>
      <point x="52.525" y="590.23" type="line"/>
    </contour>
    <component base="H" xOffset="2.98"/>
  </outline>
</glyph>
<glyph name="hbar" format="2">
  <advance width="388.23500000000007"/>
  <unicode hex="0127"/>
  <outline>
    <contour>
      <point x="53.8" y="614.7925" type="line"/>
      <point x="280.2325" y="614.7925" type="line"/>
      <point x="290.0675" y="676.1300000000001" type="line"/>
      <point x="63.635000000000005" y="676.1300000000001" type="line"/>
    </contour>
    <component base="h" xOffset="3.5850000000000004"/>
  </outline>
</glyph>
<glyph name="Idotaccent" format="2">
  <advance width="183.535"/>
  <unicode hex="0130"/>
  <outline>
    <contour>
      <point x="191.25500000000002" y="896.8000000000001" type="curve" smooth="yes"/>
      <point x="138.415" y="896.8000000000001"/>
      <point x="119.435" y="857.6"/>
      <point x="118.17499999999998" y="807.8249999999999" type="curve" smooth="yes"/>
      <point x="117.77000000000001" y="774.845"/>
      <point x="135.41" y="760.005"/>
      <point x="168.20499999999998" y="760.005" type="curve" smooth="yes"/>
      <point x="220.225" y="760.005"/>
      <point x="240.015" y="799.425"/>
      <point x="241.32" y="849.575" type="curve" smooth="yes"/>
      <point x="241.725" y="882.455"/>
      <point x="223.725" y="896.8000000000001"/>
    </contour>
    <component base="I"/>
  </outline>
</glyph>
<glyph name="dotlessi" format="2">
  <advance width="179.38500000000002"/>
  <unicode hex="0131"/>
  <anchor x="45.73942" y="0.0" name="bottom"/>
  <anchor x="98.17500000000001" y="0.0" name="ogonek"/>
  <anchor x="131.44058" y="541.0" name="top"/>
  <outline>
    <contour>
      <point x="98.17500000000001" y="0.0" type="line"/>
      <point x="183.76999999999998" y="541.0" type="line"/>
      <point x="79.465" y="541.0" type="line"/>
      <point x="-5.835000000000002" y="0.05500000000000001" type="line"/>
    </contour>
  </outline>
</glyph>
<glyph name="kgreenlandic" format="2">
  <advance width="365.82500000000005"/>
  <unicode hex="0138"/>
  <anchor x="158.17500000000004" y="0.0" name="bottom"/>
  <anchor x="228.58890000000002" y="541.0" name="top"/>
  <outline>
    <contour>
      <point x="-5.825000000000003" y="0.0" type="line"/>
      <point x="99.10000000000002" y="0.0" type="line"/>
      <point x="184.54999999999995" y="541.0" type="line"/>
      <point x="79.375" y="541.0" type="line"/>
    </contour>
    <contour>
      <point x="291.425" y="-10.0" type="curve" smooth="yes"/>
      <point x="303.15000000000003" y="-10.0"/>
      <point x="314.85" y="-8.675"/>
      <point x="327.42499999999995" y="-3.75" type="curve"/>
      <point x="341.325" y="104.45" type="line"/>
      <point x="334.3" y="103.55"/>
      <point x="328.725" y="103.62500000000001"/>
      <point x="323.425" y="104.4" type="curve" smooth="yes"/>
      <point x="296.72499999999997" y="108.2"/>
      <point x="272.475" y="130.6"/>
      <point x="222.42499999999998" y="227.225" type="curve" smooth="yes"/>
      <point x="145.4" y="374.75000000000006" type="line"/>
      <point x="120.77500000000002" y="229.0" type="line"/>
      <point x="181.82500000000002" y="106.25" type="line" smooth="yes"/>
      <point x="221.54999999999998" y="25.099999999999998"/>
      <point x="248.87500000000003" y="-10.0"/>
    </contour>
    <contour>
      <point x="206.20000000000002" y="238.77499999999998" type="line"/>
      <point x="288.95000000000005" y="314.075"/>
      <point x="361.90000000000003" y="429.55"/>
      <point x="395.9" y="539.65" type="curve"/>
      <point x="295.25" y="551.0" type="line"/>
      <point x="262.52500000000003" y="440.25"/>
      <point x="213.25" y="371.52500000000003"/>
      <point x="150.60000000000002" y="310.8" type="curve"/>
    </contour>
  </outline>
</glyph>
<glyph name="Ldot" format="2">
  <advance width="324.62000000000006"/>
  <unicode hex="013F"/>
  <outline>
    <contour>
      <point x="225.46901" y="367.76619" type="curve" smooth="yes"/>
      <point x="224.61401" y="341.17949"/>
      <point x="234.82269000000002" y="329.746305"/>
      <point x="261.964225" y="329.746305" type="curve" smooth="yes"/>
      <point x="301.233945" y="329.746305"/>
      <point x="313.39745999999997" y="363.79470499999996"/>
      <point x="314.34246" y="397.70557999999994" type="curve" smooth="yes"/>
      <point x="315.19746000000004" y="423.337445"/>
      <point x="305.39378000000005" y="435.17563"/>
      <point x="278.63691500000004" y="435.17563" type="curve" smooth="yes"/>
      <point x="239.75236" y="435.17563"/>
      <point x="226.41400999999996" y="401.457065"/>
    </contour>
    <component base="L"/>
  </outline>
</glyph>
<glyph name="ldot" format="2">
  <advance width="268.84"/>
  <unicode hex="0140"/>
  <outline>
    <contour>
      <point x="200.48595" y="356.091275" type="curve" smooth="yes"/>
      <point x="199.63095" y="330.81891"/>
      <point x="208.66691999999998" y="320.11816"/>
      <point x="233.29495500000002" y="320.11816" type="curve" smooth="yes"/>
      <point x="269.565965" y="320.11816"/>
      <point x="279.93092500000006" y="353.018105"/>
      <point x="280.875925" y="385.04182000000003" type="curve" smooth="yes"/>
      <point x="281.73092500000007" y="409.33278500000006"/>
      <point x="273.09995499999997" y="420.438535"/>
      <point x="248.82617500000003" y="420.438535" type="curve" smooth="yes"/>
      <point x="212.90887" y="420.438535"/>
      <point x="201.43095" y="387.96610499999997"/>
    </contour>
    <component base="l"/>
  </outline>
</glyph>
<glyph name="Lslash" format="2">
  <advance width="339.095"/>
  <unicode hex="0141"/>
  <outline>
    <contour>
      <point x="8.5" y="0.0" type="line"/>
      <point x="284.97" y="0.0" type="line"/>
      <point x="300.895" y="99.135" type="line"/>
      <point x="129.06" y="99.135" type="line"/>
      <point x="161.32000000000002" y="302.545" type="line"/>
      <point x="283.34000000000003" y="381.81499999999994" type="line"/>
      <point x="301.53" y="490.02500000000003" type="line"/>
      <point x="178.52" y="410.25999999999993" type="line"/>
      <point x="224.96" y="700.0" type="line"/>
      <point x="120.215" y="700.0" type="line"/>
      <point x="64.77" y="353.385" type="line"/>
      <point x="16.66" y="322.36" type="line"/>
      <point x="-0.33999999999999986" y="214.02" type="line"/>
      <point x="47.165" y="244.98999999999998" type="line"/>
    </contour>
  </outline>
</glyph>
<glyph name="lslash" format="2">
  <advance width="212.45000000000002"/>
  <unicode hex="0142"/>
  <outline>
    <contour>
      <point x="-2.885" y="206.045" type="line"/>
      <point x="223.92500000000004" y="377.005" type="line"/>
      <point x="239.25500000000002" y="474.08500000000004" type="line"/>
      <point x="11.895000000000001" y="303.12500000000006" type="line"/>
    </contour>
    <component base="l" xOffset="9.9"/>
  </outline>
</glyph>
<glyph name="Eng" format="2">
  <advance width="432.7625"/>
  <unicode hex="014A"/>
  <outline>
    <contour>
      <point x="-5.6375" y="0.0" type="line"/>
      <point x="91.23750000000001" y="0.0" type="line"/>
      <point x="163.1" y="451.7" type="line"/>
      <point x="247.75000000000003" y="-2.9750000000000005" type="line"/>
      <point x="240.31250000000003" y="-53.9"/>
      <point x="216.325" y="-70.725"/>
      <point x="182.125" y="-70.725" type="curve" smooth="yes"/>
      <point x="169.98749999999998" y="-71.175"/>
      <point x="157.575" y="-70.1125"/>
      <point x="144.1625" y="-66.69999999999999" type="curve"/>
      <point x="125.6" y="-176.55" type="line"/>
      <point x="143.1125" y="-181.0875"/>
      <point x="162.6375" y="-182.4375"/>
      <point x="179.8125" y="-182.4375" type="curve" smooth="yes"/>
      <point x="276.66249999999997" y="-179.8875"/>
      <point x="331.325" y="-121.87500000000001"/>
      <point x="349.3625" y="-6.700000000000001" type="curve" smooth="yes"/>
      <point x="461.7375" y="700.0" type="line"/>
      <point x="364.8125" y="700.0" type="line"/>
      <point x="290.2125" y="233.51250000000002" type="line"/>
      <point x="210.1625" y="700.45" type="line"/>
      <point x="105.3" y="700.45" type="line"/>
    </contour>
  </outline>
</glyph>
<glyph name="eng" format="2">
  <advance width="381.01"/>
  <unicode hex="014B"/>
  <outline>
    <contour>
      <point x="294.38500000000005" y="-18.689999999999994" type="curve" smooth="yes"/>
      <point x="329.58" y="208.04999999999998"/>
      <point x="372.135" y="450.475"/>
      <point x="372.135" y="467.97999999999996" type="curve" smooth="yes"/>
      <point x="372.135" y="519.2"/>
      <point x="342.405" y="551.0"/>
      <point x="286.73" y="551.0" type="curve" smooth="yes"/>
      <point x="249.02500000000003" y="551.0"/>
      <point x="210.09500000000003" y="538.34"/>
      <point x="168.68" y="509.2200000000001" type="curve"/>
      <point x="173.59499999999997" y="541.0" type="line"/>
      <point x="79.41" y="541.0" type="line"/>
      <point x="-6.195000000000001" y="0.0" type="line"/>
      <point x="97.43000000000002" y="0.0" type="line"/>
      <point x="166.615" y="430.02500000000003" type="line"/>
      <point x="185.95" y="442.21500000000003"/>
      <point x="207.765" y="450.58500000000004"/>
      <point x="226.045" y="450.58500000000004" type="curve" smooth="yes"/>
      <point x="250.76999999999998" y="450.58500000000004"/>
      <point x="262.02" y="439.12999999999994"/>
      <point x="261.58" y="417.88" type="curve" smooth="yes"/>
      <point x="260.92" y="408.61"/>
      <point x="256.12" y="378.64"/>
      <point x="192.73" y="-19.025" type="curve" smooth="yes"/>
      <point x="184.69" y="-69.55999999999999"/>
      <point x="169.69" y="-104.49"/>
      <point x="136.14000000000001" y="-104.49" type="curve" smooth="yes"/>
      <point x="130.645" y="-104.49"/>
      <point x="124.565" y="-103.99499999999999"/>
      <point x="117.58500000000001" y="-101.69999999999999" type="curve"/>
      <point x="93.17" y="-214.73000000000002" type="line"/>
      <point x="107.04" y="-218.08"/>
      <point x="124.965" y="-220.26999999999998"/>
      <point x="145.685" y="-220.26999999999998" type="curve" smooth="yes"/>
      <point x="215.70000000000002" y="-220.26999999999998"/>
      <point x="273.555" y="-170.32500000000002"/>
    </contour>
  </outline>
</glyph>
<glyph name="OE" format="2">
  <advance width="594.6875"/>
  <unicode hex="0152"/>
  <outline>
    <contour>
      <point x="536.2" y="0.0" type="line"/>
      <point x="552.075" y="99.1875" type="line"/>
      <point x="358.3875" y="99.1875" type="line"/>
      <point x="391.04999999999995" y="308.075" type="line"/>
      <point x="554.3875" y="308.075" type="line"/>
      <point x="570.3875000000002" y="402.7375" type="line"/>
      <point x="406.82499999999993" y="402.7375" type="line"/>
      <point x="437.77500000000003" y="598.675" type="line"/>
      <point x="620.1" y="598.675" type="line"/>
      <point x="637.1374999999999" y="700.0" type="line"/>
      <point x="450.90000000000003" y="700.0" type="line"/>
      <point x="410.46250000000003" y="704.4875"/>
      <point x="356.425" y="710.0"/>
      <point x="313.5125" y="710.0" type="curve" smooth="yes"/>
      <point x="106.35" y="710.0"/>
      <point x="23.112499999999997" y="435.02500000000003"/>
      <point x="23.112499999999997" y="191.8625" type="curve" smooth="yes"/>
      <point x="23.112499999999997" y="54.22500000000001"/>
      <point x="75.62499999999999" y="-10.0"/>
      <point x="207.8875" y="-10.0" type="curve" smooth="yes"/>
      <point x="240.225" y="-10.0"/>
      <point x="281.46250000000003" y="-6.987500000000001"/>
      <point x="333.98749999999995" y="0.0" type="curve"/>
    </contour>
    <contour>
      <point x="252.05" y="92.275" type="line"/>
      <point x="236.625" y="89.03750000000001"/>
      <point x="222.05" y="87.81250000000001"/>
      <point x="206.76250000000002" y="87.81250000000001" type="curve" smooth="yes"/>
      <point x="149.25000000000003" y="87.81250000000001"/>
      <point x="127.8375" y="128.25"/>
      <point x="127.8375" y="200.92499999999998" type="curve" smooth="yes"/>
      <point x="127.8375" y="394.00000000000006"/>
      <point x="197.68750000000003" y="609.0875"/>
      <point x="290.86249999999995" y="609.0875" type="curve" smooth="yes"/>
      <point x="306.04999999999995" y="609.0875"/>
      <point x="324.7375" y="606.2624999999999"/>
      <point x="333.7375" y="605.1125" type="curve"/>
    </contour>
  </outline>
</glyph>
